<?xml version="1.0" encoding="utf-8"?>
<!-- Generator: Adobe Illustrator 26.2.1, SVG Export Plug-In . SVG Version: 6.00 Build 0)  -->
<svg version="1.1" id="Calque_1" xmlns="http://www.w3.org/2000/svg" xmlns:xlink="http://www.w3.org/1999/xlink" x="0px" y="0px"
	 viewBox="0 0 389.5 301.8" style="enable-background:new 0 0 389.5 301.8;" xml:space="preserve">
<style type="text/css">
	.st0{fill:url(#SVGID_1_);}
</style>
<linearGradient id="SVGID_1_" gradientUnits="userSpaceOnUse" x1="281.919" y1="211.4974" x2="207.7521" y2="61.3811" gradientTransform="matrix(1 0 0 -1 -40.14 281.17)">
	<stop  offset="0.11" style="stop-color:#1D70B7"/>
	<stop  offset="0.53" style="stop-color:#00A099"/>
	<stop  offset="1" style="stop-color:#2D2E82"/>
</linearGradient>
<path class="st0" d="M237,105.4L199.9,49l-37.1,56.4l-10.4,76.9l47.5,53.5l47.5-53.5L237,105.4z M232.1,107.1l5.1,37.2
	c-2.6-3.3-5.4-6.5-8.3-9.6c-11.7-12.5-24.8-26.6-26.3-72.6L232.1,107.1z M198.7,189.1h-5.2c2.4,11.9,3.7,24,3.8,36.1l-39.6-44.6
	l7.8-57.8c2.3,6.6,5.7,12.7,9.3,19.2c0.6,1,1.1,2,1.7,3h5.8c-1-1.9-2-3.7-3-5.4c-6.3-11.3-11.3-20.3-11.5-32.8l29.7-45.1
	c1.4,48.3,15.3,63.1,27.6,76.3c5.7,6.1,10.6,11.4,13.9,19.5l3.2,23.1l-39.8,44.7C202.2,213.2,201,201.1,198.7,189.1z"/>
<path d="M144.6,172.3c0,4.1-2.3,7.3-6.7,7.3c-4.4,0-6.7-3.2-6.7-7.3V149h-5.2v23.4c0,3.4,1,6.6,3.6,8.9c4.8,3.9,11.8,3.9,16.5,0
	c2.6-2.3,3.6-5.5,3.6-8.9V149h-5.2V172.3z"/>
<path d="M218.7,158c0-2.6,2.1-4.7,4.7-4.7c3.1,0,5,2,5,5h5.2c0-5.8-4.3-9.6-10.1-9.6c-5.4,0-9.9,4-9.9,9.4c0,6.7,4.4,8.3,9.9,10.4
	c3,1.1,5.7,2,5.7,5.7c0,3.4-2.2,5.8-5.7,5.8c-3.7,0-5.7-2.9-5.7-6.3h-5.2c0,6.3,4.4,10.9,10.9,10.9c6.3,0,10.8-4.3,10.8-10.5
	C234.2,161,218.7,165.3,218.7,158z"/>
<path d="M313.9,170.3c4.6-1.6,6.7-5.3,6.7-10c0-3-1-6.1-3.3-8.2c-2.5-2.4-6.1-2.9-9.4-2.9h-10.9v34.6h5.2v-16h0.1l11.7,16h6.5
	l-9.9-12.9C311.6,171,312.8,170.8,313.9,170.3z M302.1,167.2v-13.2h5.4c4.1,0,7.8,2.1,7.8,6.4c0,5.5-5.2,6.8-9.7,6.8H302.1z"/>
<path d="M92.4,148.7c-10.1,0-18.4,8-18.4,17.9c0,9.9,8.2,18,18.3,18c4.1,0,8.2-1.4,11.4-3.9l3.3,3.2l3.7-3.6l-3.4-3.3
	c5.9-8.1,3.9-19.3-4.3-25C99.9,149.8,96.2,148.6,92.4,148.7L92.4,148.7z M92.4,179.9c-7.5,0-13.6-6-13.6-13.3
	c0-7.4,6.1-13.3,13.6-13.3c7.5,0,13.6,6,13.6,13.3C106,174,99.9,179.9,92.4,179.9z"/>
<path d="M184.3,149.3h-5.7l-13.4,34.6h5.4l10.7-29.2c3.8,7.8,6.9,15.9,9.2,24.2h-8.2l-1.4,5h16.3
	C194.4,171.9,190.1,160.3,184.3,149.3z"/>
<path d="M268.7,149.3H263l-13.4,34.6h5.4l10.7-29.2c3.8,7.8,6.9,15.9,9.2,24.2h-8.2l-1.4,5h16.3
	C278.8,171.9,274.5,160.3,268.7,149.3z"/>
</svg>
