<?xml version="1.0" encoding="utf-8"?>
<!-- Generator: Adobe Illustrator 26.5.0, SVG Export Plug-In . SVG Version: 6.00 Build 0)  -->
<svg version="1.1" id="Calque_1" xmlns="http://www.w3.org/2000/svg" xmlns:xlink="http://www.w3.org/1999/xlink" x="0px" y="0px"
	 viewBox="0 0 283.5 283.5" style="enable-background:new 0 0 283.5 283.5;" xml:space="preserve">
<style type="text/css">
	.st0{fill:url(#SVGID_1_);}
	.st1{fill:#F2C357;}
	.st2{fill:#FFFFFF;}
	.st3{font-family:'Comfortaa-Regular';}
	.st4{font-size:25.3585px;}
	.st5{fill:#2581C4;}
</style>
<linearGradient id="SVGID_1_" gradientUnits="userSpaceOnUse" x1="162.8305" y1="126.6854" x2="115.2802" y2="13.7533" gradientTransform="matrix(1.4532 -4.915564e-02 9.977173e-02 1.0053 -80.5302 6.7239)">
	<stop  offset="1.736555e-02" style="stop-color:#2581C4"/>
	<stop  offset="0.7785" style="stop-color:#2581C4;stop-opacity:0"/>
</linearGradient>
<path class="st0" d="M150.5,221.5c-45.6-18.8-65.7-43.8-53.7-46.2c58.5-11.7,9.3-21.1,19.2-48.8c6-16.8,37.1-8.1,27.9-62.6
	c-2.8-16.5,76.7-4.4,40.6-49.7l25.4,12.7c11.3,5.4,14.4,22.3,14.2,31.7c-0.3,9.4,11.7,6.5,14,17c6.4,29.9-24.7,34.2-18.5,40.1
	c27.8,26.5-18.5,50.8-27.4,58.7c-0.9,0.8-6.2,15.6-9.1,23.5c-1.2,3.2-3.2,6.1-5.8,8.1L150.5,221.5z"/>
<path class="st1" d="M140.1,275.3c11.6,0.8-10.1-21.4,1.4-40.1c11.2-18.2,13.6-20.2,14.8-22.7c1.1-2.3,10.1-8.7,13.3-14
	c5.2-8.5,3.8-12.3-7.2-0.8c-11.5,12-11,4.8-11.5,4.2c-3.2-3.8,24.8-29.2,17.7-35.2c-1.7-1.4-23.3,28.2-27,25.8
	c-3.4-2.2,23.1-43.2,12.6-42.8c-2.8,0.1-23.8,44.3-25.6,36c-1.9-9,13-35.6,1.4-31.4c-0.2,0.1-8.3,27.3-15.9,37.1
	c-7.2,9.4-16.9-22-21.6-14.4c-4.8,7.7,6.7,16.7,11.5,35.6c8.6,33.3-7.4,51.3,8.6,57.6C121.3,273.4,129.3,274.6,140.1,275.3z"/>
<polygon class="st1" points="185.7,92.4 187.9,81.2 180.4,73 191.1,71.7 196.2,61.6 200.7,72 211.4,74 203.4,81.7 204.9,93 
	195.5,87.4 "/>
<polygon class="st1" points="174.6,124.6 169.9,119 162.8,119.6 166.4,113.6 163.4,107 170.3,108.8 175.5,104.2 176.2,111.3 
	182.5,115.1 175.9,117.6 "/>
<polygon class="st1" points="158.1,91.6 155.9,89 152.6,89.3 154.3,86.4 153,83.2 156.2,84 158.7,81.7 158.9,85.2 161.8,86.9 
	158.7,88.2 "/>
<polygon class="st1" points="200.9,156 196.2,150.5 189.1,151 192.7,145 189.7,138.4 196.7,140.3 201.9,135.6 202.5,142.8 
	208.8,146.5 202.2,149.1 "/>
<polygon class="st1" points="150.2,142.4 146.3,139.3 141.8,140.9 143.3,136.1 140.5,132 145.3,132.1 148.1,128 149.5,132.9 
	154.1,134.4 150.1,137.3 "/>
<ellipse class="st2" cx="203.4" cy="40" rx="3.1" ry="3.5"/>
<ellipse class="st2" cx="204.7" cy="118.3" rx="2.4" ry="2.5"/>
<ellipse class="st2" cx="127.3" cy="131.8" rx="1" ry="1.1"/>
<ellipse class="st2" cx="129.9" cy="146.3" rx="2" ry="1.7"/>
<ellipse class="st2" cx="163.1" cy="142.6" rx="2.5" ry="2.5"/>
<ellipse class="st2" cx="146.8" cy="114.2" rx="2.5" ry="2.5"/>
<ellipse class="st2" cx="226.7" cy="95.8" rx="1.7" ry="1.5"/>
<ellipse class="st2" cx="181.5" cy="57.1" rx="1.4" ry="1.7"/>
<ellipse class="st2" cx="209.1" cy="58.2" rx="1.4" ry="1.7"/>
<ellipse class="st2" cx="149.8" cy="71.3" rx="3.2" ry="3.2"/>
<text transform="matrix(1.22 0 0 1 22.4443 252.2646)"><tspan x="0" y="0" class="st1 st3 st4">OSER </tspan><tspan x="72.6" y="0" class="st5 st3 st4">    rêver</tspan></text>
</svg>
