<?xml version="1.0" encoding="utf-8"?>
<!-- Generator: Adobe Illustrator 26.0.0, SVG Export Plug-In . SVG Version: 6.00 Build 0)  -->
<svg version="1.1" id="Calque_1" xmlns="http://www.w3.org/2000/svg" xmlns:xlink="http://www.w3.org/1999/xlink" x="0px" y="0px"
	 viewBox="0 0 700 700" style="enable-background:new 0 0 700 700;" xml:space="preserve">
<style type="text/css">
	.st0{display:none;fill:#C15B5B;stroke:#FFFFFF;stroke-miterlimit:10;}
	.st1{fill:none;stroke:#FFFFFF;stroke-width:2;stroke-miterlimit:10;}
	.st2{fill:none;stroke:#FFFFFF;stroke-miterlimit:10;}
</style>
<ellipse class="st0" cx="354" cy="346.5" rx="349.5" ry="314"/>
<path class="st1" d="M417.8,578.1l-0.2-0.1c-12.2-5.4-20.3-9.2-22-10l-0.4-0.2l-5.2,18.7c-3.3,12.3-32,30.4-44,32.3
	c-148.6,23.4-181.2-139-181.2-139l-41.3-15.9c-163.4-91.1-42.4-223.8-42.4-223.8c-24.4-21.6-23.3-84-31.4-113.3
	c-4.8-17.4-4.4-64.9-8.7-83.9C37.3,26.3,59.9,9.7,63.5,10c3.5,0.3,24.7,1.9,24.7,1.9l29,9.3c172.9,63.1,247.6,266.5,247.6,266.5
	l-1.5,10c0,0-11,9-37.3,29.4c-19.7,15.3-60.7,40.1-91,71c-20.7,21-24.6,25.1-29,34c-16.4,33.3-10.8,34.7,13.1,32
	c6.6-0.8,33.7-9.7,45.6-18.1c21.2-14.9,62.5-50.4,98.4-81.2l0,0c20.8-17.8,36.1-31.7,36.1-31.7c142.5,28.3,265.6,215,257.4,285.1
	C649.9,675.3,480.1,605.7,417.8,578.1z"/>
<path class="st2" d="M101.1,133.3c0,0,71.1,15.7,93.1,24.4s157.6,141,157.6,141L125.1,241l6-36.5l-24.9-34.4l5.9-25.7l-11.5-10.5
	l2.6-17.6l-13-15.5L90.8,88l4.1-14.3l2.2-17l28.5-1l22.4,8.1l15.1,8.3l-25.3,6.9l14.1,17.7l-13,11.1l12.2,15l-10.9,10.6l26.6,12.9
	l46.7-30.8l46.7,35.5l19.2,32.1c0,0,7.6,10.8,10.6,9.1c3-1.7,19.5,12.3,19.5,12.3l42.2,94.4"/>
<line class="st2" x1="279.5" y1="231.7" x2="131.1" y2="204.5"/>
<polyline class="st2" points="208.7,511.1 237.9,490 326.6,425.7 363.2,364.7 "/>
<polyline class="st2" points="363.2,364.7 384.2,385.7 391,498.1 395.2,567.8 395.5,568 417.6,578 417.8,578.1 "/>
<path class="st2" d="M539.6,573.9c0,0-1.6-39-5.2-56.3C530.8,500.3,406,353.3,406,353.3l9.8,189.4"/>
<path class="st2" d="M326,327l-20.2-23.6L96,256.6l-7.6,22.3c0,0,7,17.1-0.6,22.9c-7.6,5.8-9.2,8.2-9.2,8.2s12.4,16.7,7,27.9
	c-5.4,11.1,11.3,24.9,7.6,34.6s16.3,32.3,15.7,38.7s30.4,22.4,31.2,27.4c0.8,5,26.1,8.9,26.1,8.9s16.8,19.1,18.7,21.8
	s20.7,14.7,19,18.7c-6.3,14.8,15.7,40.1,19,43.5c3.3,3.4,25.2,20.4,27.7,25.1c2.4,4.6,43.3,17.1,46.4,22.1s24.7-6.4,24.7-6.4
	l27.7,0.2l19.5,4.1l22.1-78.5l-5.9-83.3l-59.3,110.1"/>
<path class="st2" d="M406,353.3c0,0,58.5,14.5,75,29s84.5,106.4,84.5,106.4s-12.7,18.8-9.9,25.7s6,26.9,6,26.9l19.6-8.1l27.1,14.9
	c0,0,17.8,10.4,17.3,16.7c-0.6,6.3-5.5,21.9-8.4,23.6s-17.7,6.9-17.7,6.9l-18.9,0.9l-16.1-8.8l-22.4,0.5l-3-14.4l-15.6,4.2
	l-21.3-5.9l-20.5-11.2l-17.5,7l-12.8-7l-13.5-7.4l-9.8,4.6l-12.2-15"/>
<polyline class="st2" points="386,518 353.7,530.2 340.4,527.9 315.9,522.8 289.1,513.1 226.4,484.8 193.3,462.3 170.1,430.2 
	156.3,376.6 145.9,343.8 140.8,322.5 159.5,274 "/>
<polyline class="st2" points="320.7,320.8 248,350.7 212.6,351 148.3,351.4 95.3,379.2 "/>
<line class="st2" x1="167.1" y1="418.5" x2="248" y2="350.7"/>
<line class="st2" x1="304.3" y1="518.1" x2="326.6" y2="425.7"/>
<line class="st2" x1="363.9" y1="526.3" x2="374.6" y2="436.4"/>
<line class="st2" x1="150.5" y1="297.4" x2="250.9" y2="305"/>
<line class="st2" x1="454.5" y1="416.4" x2="458.2" y2="564.2"/>
<line class="st2" x1="495.9" y1="462.7" x2="498.6" y2="568"/>
<line class="st2" x1="561.7" y1="541.2" x2="564.1" y2="587.3"/>
<line class="st2" x1="581.5" y1="533.9" x2="599.6" y2="595.2"/>
<line class="st2" x1="232.1" y1="187" x2="107.5" y2="164.6"/>
<line class="st2" x1="353.7" y1="530.2" x2="349.3" y2="572.5"/>
<line class="st2" x1="325.8" y1="524.8" x2="295.5" y2="577.9"/>
<line class="st2" x1="304.3" y1="518.1" x2="264" y2="564"/>
<line class="st2" x1="338.1" y1="526.8" x2="325.6" y2="572.3"/>
<line class="st2" x1="272.7" y1="505.7" x2="236.6" y2="544"/>
<line class="st2" x1="167.3" y1="418.2" x2="140.1" y2="438.6"/>
<polyline class="st2" points="108.9,411.1 157.5,381.3 207.3,351 "/>
<polyline class="st2" points="84.6,341.4 140.8,322.5 239.2,311.5 267.5,295.7 "/>
<line class="st2" x1="82.7" y1="312.2" x2="150" y2="297.7"/>
<line class="st2" x1="88.4" y1="278.9" x2="142.7" y2="267.2"/>
<path class="st2" d="M184.4,469.9"/>
<path class="st2" d="M228.9,403.9"/>
<path class="st2" d="M189.6,475.3"/>
<line class="st2" x1="270.1" y1="167.3" x2="191.5" y2="129.8"/>
<line class="st2" x1="138.8" y1="107.6" x2="90.3" y2="100.8"/>
<line class="st2" x1="137.8" y1="78.9" x2="94.9" y2="73.6"/>
<line class="st2" x1="163.1" y1="72" x2="213.5" y2="115.3"/>
<line class="st2" x1="565.5" y1="488.7" x2="618.1" y2="553.9"/>
<path class="st2" d="M548.1,259.5l-22-0.4c-0.8-0.2-13,0.5-23.9,1.2c-10.7,0.7-21.1,3.3-30.5,7.8l-49,23.2"/>
<path class="st2" d="M411.2,282.5l10.7-70.9c1.6-10.9,1.5-22.5-1-33.3l-4.3-15.6"/>
<path class="st2" d="M184.9,469.3"/>
<path class="st1" d="M326,327c26.3-20.5,37.3-29.4,37.3-29.4l21.6-9.8c3.7-1.7,7.8-2.7,6.2-2.6l21.7-2.7l9.8,8.8l-1.6,10
	c-1.2,7.2-4.6,13.9-9.9,19.4l-12,12.3c0,0-15.3,13.9-36.1,31.7l0,0c-34,30.1-71.7,61.8-98.7,80.8c-18.1,12.8-44.3,17.1-46.5,18.7"/>
</svg>
