<?xml version="1.0" encoding="utf-8"?>
<!-- Generator: Adobe Illustrator 26.2.1, SVG Export Plug-In . SVG Version: 6.00 Build 0)  -->
<svg version="1.1" id="Calque_1" xmlns="http://www.w3.org/2000/svg" xmlns:xlink="http://www.w3.org/1999/xlink" x="0px" y="0px"
	 viewBox="0 0 1920 1080" style="enable-background:new 0 0 1920 1080;" xml:space="preserve">
<style type="text/css">
	.st0{fill:#FEFEFE;}
	.st1{fill:#7A7079;}
	.st2{fill:#706A70;}
	.st3{fill:#D0B1DC;}
	.st4{fill:#8F7593;}
	.st5{fill:#C9ABD3;}
	.st6{fill:#BEA3C9;}
	.st7{fill:#D6B7E2;}
	.st8{fill:#140719;}
	.st9{fill:#564250;}
	.st10{fill:#655163;}
	.st11{fill:#766D73;}
	.st12{fill:#3C2C35;}
	.st13{fill:#FED4CE;}
	.st14{fill:#867881;}
	.st15{fill:#907D86;}
</style>
<g id="HeEW4D_00000002357229958812525250000017216758931059160457_">
	<g>
		<g>
			<path class="st0" d="M931,220.1c167.8,0,335.5,0,503.3-0.1c3.6,0,4.7,0.6,4.7,4.5c-0.1,198.6-0.1,397.1,0,595.7
				c0,4.2-1,4.8-4.9,4.8c-317-0.1-634.1-0.1-951.1,0c-3.9,0-5-0.5-5-4.8c0.1-198.6,0.1-397.1,0-595.7c0-3.9,1.1-4.5,4.7-4.5
				c148.8,0.1,297.5,0.1,446.3,0.1c-0.1,2.2-1.7,1.3-2.8,1.3c-4.4-0.1-8.9-0.9-13.2,0.4c-2.4,0.3-4.9,0.3-7.2,0.8
				c-2.7,0.6-5.9,0.9-6.8,4.4l0.1,0c-0.8,0.1-1.7,0-2.1,1l0.1-0.1c-1.2,0.4-2.4,0.9-3.1,2.1c-2.2,1.5-4.6,1.9-7.4,1.8
				c-7.7-0.2-15.5-0.5-22.8,3c-2.7,0.2-3.3,3-5.4,4.2c-5.2,2.8-10.6,6.5-13.6,11.3c-7.6,12.3-13.3,25.5-17,39.6
				c-3.1,8.6-3,17.6-3.2,26.5c-0.1,2.3,0.4,4.7-3.5,4.3c-10.6-0.9-21.1-1.4-31.7-2c-7.1-0.5-14.1-1-21.2-1.6c-0.3,0-0.7,0-1-0.1
				c-0.7-0.1-1.2,0.1-1,0.9c0.1,0.6,0.2,1.3,0.2,1.9c-2.7,3.6-0.2,7.3-0.3,10.9c-1,0.6-2,1-3.2,1.1c-13.3,0.7-26.7,1.4-40,2.1
				c-1.6,0.1-3.4-0.4-4.7,1c-2.5,0.2-4.2,1.3-4.3,4.1c-2.6,10.2-3.4,20.6-4.7,30.9c-3.4,25.4-6.5,50.8-9.7,76.2
				c-1.2,9.9-2.1,19.8-3.2,29.7c-0.3,2.3-0.6,4.6-0.9,6.9c0,0.7-0.1,1.4-0.1,2.1c-2.4,11.9-2.5,24.1-3.9,36.2
				c-2,16.8-2.9,33.7-3.9,50.5c-0.2,4.3-2.2,8.7-0.2,13.1c0,0.4,0,0.8,0,1.1c-0.1,7.3-2.5,14.5-0.4,21.9c-1.7,8.2-0.3,16.6-1,24.9
				c-0.3,3.3,1.4,4.4,4.1,5c12.2,3,24.4,6.4,36.7,9.2c50.8,11.4,101.7,22.7,152.5,34c12.6,2.8,25.3,5.4,37.9,8.1
				c11.4,2.7,22.8,5.5,34.2,7.9c8.6,1.8,17,4.5,25.8,5.1l0.3,0.1c0,0,0.3,0,0.4,0c1.2,0.6,2.3,1.4,3.6,1.6c27.2,6,54.3,12,81.5,18
				c2.7,0.6,5,0.2,6.2-2.6c15.1-18.7,30.2-37.4,45.4-56.1c2.7-0.7,4.2-2.8,5.6-5c1.1-1.3,2.3-2.7,1.9-4.4c-1.1-4.3,0.3-8.5,0.2-12.8
				c-0.2-9.1-0.5-18.2,0.2-27.3c0.7-8.2,0.7-16.2,0.4-24.4c2.3-22,1.1-44.1,1.2-66.2c0-0.9,0.1-1.9,0.1-2.8c0-18.3,0-36.7,0-55
				c0-1,0-2,0-3c0.9-8.7,0-17.3-0.1-26c0-0.7,0-1.3,0-2c0.4-22.8-0.8-45.6-1.2-68.4c0-1.5,0.4-3.6-2.3-3.6c-0.2-0.3-0.4-0.6-0.5-1
				c-10-3.9-20.7-4.4-31-6.8c-20.7-4.9-41.9-7.7-63.1-8.8c-5.3-0.3-10.5-3-16-0.7c-3.8-0.6-1.4-4.1-2.7-5.8
				c0.7-6.6,0.9-13.2,0.4-19.8c0.3-11.7-1.4-23.3-2.7-35c-0.3-2.4-0.6-4.9-1-7.3c-1.2,0.5-0.6,1.8-1,2.2c-1.5,1.2-0.4-0.8-0.9-0.9
				c-1.5-8.8-7.3-16.2-8.3-25.2c-2.8-6.5-6.7-11.9-13.6-14.7c-1.1-1.6-2.2-3.1-4-4.2c-12.5-8-26.7-10.1-41-11.7
				C934,220.9,930.6,224,931,220.1z"/>
			<path class="st1" d="M913,221.7c4.4-1.3,8.8-0.5,13.2-0.4c1.1,0,2.7,1,2.8-1.3c0.7,0,1.3,0,2,0c-0.4,3.9,3,0.9,4,2.2
				c0,0.3,0,0.6,0,1c-3.6,0.5-7.3-1.2-10.8,0.8c-0.4,0-0.8,0-1.2,0.1c-4,0-7.9,0-12.2,0C911.8,223,912.4,222.4,913,221.7z"/>
			<path class="st2" d="M696.2,476c1.1-9.9,2-19.8,3.2-29.7c3.1-25.4,6.3-50.8,9.7-76.2c1.4-10.3,2.1-20.8,4.7-30.9
				c4.3-1.4,8.6-1.1,13.1-0.5c4.3,0.5,9,1.9,13.2-1c1.7,0.2,3.3,0.4,5,0.6c-1,0.5-2,0.9-4.2,2c3.3-0.4,5.2,0.5,7.3,1
				c0.1,1.5-1.8,3.2,0.3,4.5c4.5,2.8,9.5,3.9,14.6,3.6c5.1-0.3,8.1,2.2,10.5,6c2,3.1-0.5,5-2.4,6.6c-2.2,1.9-3.3,3.9-3,6.9
				c0.3,2.6-0.8,4.7-3.5,5.3c-4,0.9-5.2,3.9-5.4,7.4c-0.2,3.1-0.9,5.6-4.2,6.6c-1.3,0.4-2.5,1.7-1.7,2.4c3.1,3,1.7,7.7,4.1,10.6
				c2.1,2.5,1.1,2.8-1.1,3.5c-2,0.7-3.8,0.9-5.7-0.4c-1.8-1.3-3.7-1.9-4.7,1c-0.4,1.2-1.5,1.7-2.6,2c-2.1,0.6-3.9,1.6-2.9,4.2
				c1,2.6,3,2.7,5.3,1.7c1.3-0.6,2.7-1.2,4-2c2.6-1.7,5.4-0.4,5.8,1.6c0.8,3.6,0.2,7.4,4.4,9.5c0.4,0.2,0.4,2,0.1,2.8
				c-1.2,2.8-0.9,6.2-2.2,8.5c-1.9,3.5-1.5,8-4.4,10.6c-2.5,2.2-2.2,3.3-0.4,5.6c2.8,3.5,4.7,7.3,1.1,11.7c-1.7,2.1-1.1,4.7-0.4,7.2
				c0.7,2.6,1.1,5.3-1,7.5c-3.9,4.1-4.4,9.4-2.2,13.9c2.7,5.7-0.8,6.3-4.4,7.1c-1.6,0.4-2.6,0.7-3,2.5c-0.8,4-3.5,4.7-7.2,3.7
				c-1.1-0.3-2.6-1.8-3.5,0.1c-0.7,1.5-0.6,3.6,1.2,4.4c3.5,1.6,1.9,3.5,0.6,5.5c-4.8,0.3-9.5-0.2-14.2-1.1
				c-6.6-1.3-13.4-0.8-19.8-3c-5.4-3.2-5.7-7.8-4.4-13.4c0.8-3.4,1.3-7.1-0.4-10.5c0-0.7,0.1-1.4,0.1-2.1
				C698.3,481,697.3,478.5,696.2,476z"/>
			<path class="st3" d="M977.7,702.1l-0.3,0c0,0-0.3-0.1-0.3-0.1c0-2.3-1.7-3.3-3.5-3.7c-6.5-1.4-12.7-3.4-19.1-5.1
				c-9.1-2.4-18.1-4.3-27-7.7c-11.6-4.5-22.6-10.3-34.2-14.6c-2.7-1-3.5-3.7-6.6-4.6c-5.8-1.6-11.6-3.8-17-6.4
				c-9.2-4.4-17.4-10.8-27.5-13.6c-6.9-1.9-13.6-4.8-20.2-7.6c-8-3.4-16.4-5.1-25-5.5c-7.2-0.4-13.9-3-20.9-4
				c-12.2-1.7-24.9-0.4-35.8-8c-0.1-0.1-0.3-0.1-0.5-0.1c-10.5-1-17.5-9.3-26.8-12.9c-4.4-1.7-8.2-5.1-12.6-6.9
				c-3.4-1.4-5.3-3.9-5.9-6.8c-0.9-4.5-3.8-6.5-7.2-8.5c0-0.4,0-0.8,0-1.1c3.2-0.2,6.4-0.3,9.7-0.5c24.4,4.8,49,8.2,73.2,13.6
				c2,0.5,3.8,1.4,6,1.1c14.2,4,28.6,7.3,43,10.2c2.7,1.2,5.6,1.8,8.6,2c1.6,0.9,3.2,1.4,5,1.8c5,0.9,10.1,1.6,14.8,3.6
				c-0.7,0.5-1.5,0.9-1.9,1.5c-2,3-2.1,6.2-0.7,9.5c1.3,2.9,3.5,2.5,5.9,1.6c1.1-0.4,1.9,0.2,2.4,1.2c2.6,4.8,7.3,6.3,12.2,7.4
				c1.4,0.3,2.7,0.4,4,1.6c4.1,3.8,7.2,9.1,13.8,9.3c1.7,0,2.8,1.6,3,3.5c0.1,1.5,1.3,2.3,2.4,1.2c2.4-2.5,3.6-0.3,5.4,0.8
				c5,3,7.7,9,13.6,10.7c4.7,1.4,6.7,7.5,12.5,6.8c0.4,0,1,1.2,1.4,1.9c1.3,2.2,2.7,3.4,5.5,2.4c1.8-0.6,4.1-0.4,5.1,2
				c1.3,3.1,3.6,4.1,6.8,3.9c1.6-0.1,2.9,0.6,4,1.8c2.9,3.1,6.6,4.2,10.7,4.2c2,0,4.1-0.3,5.5,1.5c1.5,1.8,3.3,2.4,5.7,2.6
				c7,0.5,13.8,2.9,20.4,4.7c7.5,2,15.1-1.5,22,2.1c0.5,0.3,1.5,0.2,1.9-0.2c5.1-3.4,10.4-0.9,15.4-0.2c5.2,0.7,9.8,1.7,14.2-2
				c1.4-1.1,2.5,0,3.4,0.9c1.1,1.1,2.4,1.8,4,1.3c1.6-0.5,3.5-2,4.6-1.5c6.2,3,12.4-0.4,18.6,0.7c0.3,2.7,0,5.3-0.6,8
				c-2.6,3-6.4,1.5-9.6,2.4c-6.9,2.1-14.1,0.3-21-0.3c-6.1-0.5-12.3-2.6-18.5-2c-6.4,0.7-12.2-2.1-18.6-1.8
				c-6.2,0.2-12.5-0.7-18.4-3.2C980.9,700.4,979.2,701.3,977.7,702.1z"/>
			<path class="st4" d="M1124,462c0,1,0,2,0,3c-1.7,1.4-1,3.4-1,5.1c0,16.6,0,33.2,0,49.9c-13.3,3.4-26.5,6.7-39.8,10.1
				c2-26.4,4-52.7,5.9-79.1c1.9-0.1,3.5-1.3,3.5-2.9c0-4.3,3.2-7.2,4.3-11c0.4-1.4,1.1-2.8,1-4.3c-0.6-5.2,0.7-10.9,2.7-14.8
				c4.8-9.3,3.6-19.8,8-28.9c0.8-1.7,0.4-3.8-0.7-5.7c-5.3-9.4-5.2-11,1-18.4c2.3-0.3,4.6-0.7,7-1c3.2-0.3,5.1,0.2,5.1,4.4
				c0.1,20.2,0.6,40.5,0.9,60.7c0,1,0,2,0.1,3c0,1.2,0.8,1.7,1.9,1.9c0,0.7,0,1.3,0,2C1122.2,444.7,1122.5,453.4,1124,462z"/>
			<path class="st5" d="M687.2,586c3.3,2,6.3,4.1,7.2,8.5c0.6,2.9,2.5,5.4,5.9,6.8c4.4,1.8,8.2,5.1,12.6,6.9
				c9.3,3.6,16.3,11.9,26.8,12.9c0.2,0,0.4,0,0.5,0.1c10.8,7.6,23.6,6.3,35.8,8c7,1,13.7,3.6,20.9,4c8.6,0.4,17,2.1,25,5.5
				c6.6,2.8,13.3,5.7,20.2,7.6c10.1,2.8,18.3,9.2,27.5,13.6c5.4,2.6,11.2,4.8,17,6.4c3.1,0.9,3.9,3.6,6.6,4.6
				c11.7,4.2,22.7,10,34.2,14.6c8.9,3.5,17.9,5.3,27,7.7c6.4,1.7,12.6,3.7,19.1,5.1c1.8,0.4,3.4,1.4,3.5,3.7
				c-8.8-0.6-17.2-3.3-25.8-5.1c-11.5-2.4-22.8-5.3-34.2-7.9c0-1.7-1.3-2.6-2.5-2.6c-4.1-0.3-7.7-2.2-11.4-3.5
				c-13.9-4.8-27.9-9.3-41.5-15.1c-7.4-3.1-14.6-7-22.8-8.1c-4.4-0.6-9-1.3-13-3c-13.4-5.8-27.8-7.4-41.8-9.7
				c-8.7-1.4-17.4-3.2-26.1-4.7c-11.9-2-22.5-7.6-33.3-12.8c-12.9-6.2-26.7-10.7-36.9-21.4c-0.2-0.2-0.6-0.2-1-0.2
				C684.7,600.5,687.1,593.3,687.2,586z"/>
			<path class="st6" d="M686.8,607.9c0.3,0.1,0.8,0,1,0.2c10.2,10.7,24,15.2,36.9,21.4c10.8,5.2,21.4,10.8,33.3,12.8
				c8.7,1.5,17.4,3.3,26.1,4.7c14,2.3,28.4,4,41.8,9.7c4,1.7,8.6,2.4,13,3c8.2,1.2,15.4,5,22.8,8.1c13.6,5.7,27.6,10.3,41.5,15.1
				c3.7,1.3,7.3,3.2,11.4,3.5c1.3,0.1,2.5,1,2.5,2.6c-12.6-2.7-25.3-5.3-37.9-8c-50.9-11.3-101.7-22.5-152.5-34
				c-12.3-2.8-24.4-6.2-36.7-9.2c-2.7-0.7-4.3-1.8-4.1-5C686.4,624.4,685.1,616.1,686.8,607.9z"/>
			<path class="st7" d="M1123.9,522.8c-0.1,22.1,1.1,44.2-1.2,66.2c-3.9,1.5-7.6,3.8-12.1,3.3c0.5-1.2,1.4-1.7,2-2.4
				c0.9-1.1,3.3-0.5,3.2-2.6c-0.1-2.2-2.1-2.2-3.7-2.5c-0.6-0.1-1.1-0.6-1.7-0.9c-7.7-3.8-15.4-6.1-23.4-0.5
				c-2.5,1.8-4.9,4.2-8.5,3.6c-0.1-2-0.2-4-0.3-6.1c1.1-0.8,0.8-2,0.7-3.1c0-0.6-0.1-1.2-0.1-1.8c1-3.2,1.3-6.5,1.1-9.9
				c1.4-2.3,1.5-4.7,0.2-7c1.7-3.9,0.6-8.2,2-12.1c1.9-2.5,0.6-5.5,1-8.2c0-0.2-0.1-0.4,0-0.6c1.2-0.3,2.8,0.2,3.3-1.6
				c-0.9-1-2.2-0.4-3.2-0.6c0-1,0-1.9,0-2.9c0.3,0,0.6,0,0.9,0C1097.2,529.6,1110.5,526.2,1123.9,522.8z"/>
			<path class="st5" d="M1078.5,587c3.6,0.5,6-1.9,8.5-3.6c8-5.6,15.7-3.2,23.4,0.5c0.6,0.3,1.1,0.8,1.7,0.9
				c1.6,0.4,3.6,0.3,3.7,2.5c0.1,2.1-2.3,1.5-3.2,2.6c-0.6,0.7-1.4,1.2-2,2.4c4.5,0.5,8.2-1.7,12.1-3.3c0.3,8.1,0.3,16.2-0.4,24.4
				c-0.7,9-0.4,18.2-0.2,27.3c0.1,4.3-1.3,8.5-0.2,12.8c0.4,1.7-0.7,3.2-1.9,4.4c-0.9,0.2-1.6-0.1-2.1-0.8
				c-1.1-4.9-3.7-9.1-7.3-12.4c-1.7-1.6-2.8-3.2-3.3-5.3c-0.6-2.4-2.2-3.7-3.8-5.5c-4.5-4.9-8.7-10.2-12.4-15.7
				c-3.2-4.9-6.8-9.9-6.1-16.4c0-0.3,0.1-0.5,0.2-0.8c3.6-0.5,7-1.7,10-3.8c-3.6,0.6-7.4,0.9-10.3,3.5c-0.8,0.1-1.5,0.3-1.7,1.2
				c-1.3,1.2-2.4,2.5-4.5,1.9C1077.6,598.2,1077.8,592.6,1078.5,587z M1098.5,596.5c-0.1-0.1-0.2-0.3-0.3-0.3
				c-0.3,0.1-0.5,0.2-0.7,0.3c0.1,0.1,0.2,0.3,0.3,0.3C1098,596.7,1098.2,596.6,1098.5,596.5z M1100.5,595.3c0,0.1,0,0.3,0.1,0.3
				c0.1,0.1,0.3,0.1,0.4,0.1c0.4-0.2,0.3-0.4-0.1-0.5C1100.8,595.2,1100.7,595.3,1100.5,595.3z"/>
			<path class="st8" d="M1068.6,705.9c0.5-2.6,0.9-5.3,0.6-8c1.6-10.6,2.1-21.3,2.9-32c0-0.6,0.1-1.1,0.1-1.7
				c0.1-0.4,0.1-0.7,0.2-1.1c0.9-0.9,0.7-2.1,0.6-3.2c0.4-2.7,0.7-5.3,1.1-8c13.4,3.7,26.9,7.4,40.3,11
				c-15.1,18.7-30.2,37.4-45.4,56.1C1066.4,714.7,1069.4,710.3,1068.6,705.9z"/>
			<path class="st4" d="M1114.3,663c-13.4-3.7-26.9-7.4-40.3-11c-1.1-6.4-0.1-12.7,1-19c0.1-2.4,0.1-4.8,0.2-7.1
				c4.1,1,6.5,4.8,10.3,6.6c6,2.9,11.1,7.4,16.2,11.7c5.3,4.5,10.9,8.7,16.3,13c0.5,0.8,1.2,1,2.1,0.8
				C1118.5,660.1,1117,662.2,1114.3,663z"/>
			<path class="st5" d="M1068.6,705.9c0.8,4.4-2.2,8.8,0.4,13.1c-1.2,2.9-3.5,3.2-6.2,2.6c-27.2-6-54.3-12-81.5-18
				c-1.3-0.3-2.4-1.1-3.6-1.6c1.5-0.8,3.2-1.7,4.7-1c5.9,2.5,12.2,3.4,18.4,3.2c6.3-0.2,12.2,2.5,18.6,1.8c6.2-0.6,12.4,1.5,18.5,2
				c6.9,0.5,14.1,2.3,21,0.3C1062.1,707.4,1065.9,709,1068.6,705.9z"/>
			<path class="st9" d="M1009.8,344.7c5.4-2.4,10.7,0.4,15.9,0.7c21.3,1.2,42.4,3.9,63.1,8.8c10.3,2.4,21,2.9,31,6.8c0,0,0,0,0,0
				c-1,0-2.1-0.1-3.1-0.1c-3.3,0-6.6,0-9.9,0.1c-1.4-1.6-3.2-2.3-5.3-2c-3.5,0.5-6.9-0.3-10.2-1.4c-13.8-4.2-27.6-8.1-42.3-7.5
				c-0.5-0.8-1.2-1-2.1-1.1c-8.8-0.9-17.5-1.9-26.3-2.7c-1.2-0.1-1.7,0.8-1.8,1.9c-2.7,0-5.4-0.1-7.9-1.2
				C1011,344.7,1011,344.7,1009.8,344.7z"/>
			<path class="st10" d="M696.8,584.3c-3.2,0.2-6.4,0.3-9.7,0.5c-2-4.4-0.1-8.8,0.2-13.1c1-16.9,1.9-33.8,3.9-50.5
				c1.4-12.1,1.5-24.3,3.9-36.2c1.8,3.4,1.2,7.1,0.4,10.5c-1.3,5.5-0.9,10.2,4.4,13.4c-1.6,0.4-3.9-1-4.8,1.3
				c-0.5,1.2,0.7,1.7,1.7,1.9c-0.1,3.5-4.3,5-4,8.8c0.3,3.6-0.6,7.4-0.6,10.9c-0.2,10.4-0.7,20.8-2.2,31.1c-0.1,3.3,0.3,6.5-0.9,9.7
				c-1.4,3.5,1.4,6.4,1.8,9.7c0.2,1.4,3.3,0.2,5,0.8C696.3,583.4,696.6,584,696.8,584.3z"/>
			<path class="st11" d="M923,224.1c0.4,0,0.8,0,1.2-0.1c1.6,0.3,3.5-0.6,4.8,1.1c-0.7,1.3-3.2,0.8-3,3c-8.6,0.5-17.5-0.9-25.9,4.1
				c3.5,1.7,7.3,0.4,10.1,2.8c-5.5,0.7-10.8-0.9-16.2-1.4c-6.5-0.6-12.8-0.2-19.2,0.5c10.2-0.2,20.3,0.6,30.3,2.6
				c0,0.6-0.1,1.1-0.1,1.7c-12.2-2-24.5-2.3-36.8-1.1c-1-1.7-3-1.3-4.4-2.4c7.3-3.5,15.1-3.2,22.8-3c2.8,0.1,5.1-0.3,7.4-1.8
				c1.5,0,2.6-0.6,3.1-2.1c0,0-0.1,0.1-0.1,0.1c0.9,0,1.7,0,2.1-1c0,0-0.1,0-0.1,0c6.7,0.3,13.1-2.7,19.9-1.2
				C919.5,226,922.7,227,923,224.1z"/>
			<path class="st9" d="M768.1,317.2c7.1,0.5,14.1,1.1,21.2,1.6c10.6,0.7,21.2,1.2,31.7,2c3.9,0.3,3.4-2.1,3.5-4.3
				c0.2-8.9,0.1-17.9,3.2-26.5c0.9-0.6,1.7-1.2,2.6-1.8c-0.6,2.6-1.3,5.1-1.7,7.8c-1.2,7.3-3,14.6-0.4,22c-2,2.9-0.7,6.1-1.2,9.2
				c-0.7,0-1.3,0-2,0c-0.4-2.1,0.5-4.8-3.2-4.9c-5.9-0.2-11.8-0.6-17.7-0.9c-2-0.6-4-1.4-6.2-0.8c-9.2,0.2-18.4-1.7-27.6-1.1
				C769.1,319.1,768,318.8,768.1,317.2z"/>
			<path class="st12" d="M1007.5,319.2c0.5,6.6,0.3,13.2-0.4,19.8c-1.9,1.8-0.7,4.1-1.1,6.1c-0.2,1.1,0.2,2.6-1.4,2.8
				c-1.2,0.2-2.3-0.3-3.6-0.9c-3.6-1.8,0.6-4.2-0.9-5.9c0-0.6,0.1-1.3,0.1-1.9c2.7,0,3.8-1.4,3.8-4c-0.1-4,0-8,0-11.9
				c-0.2,0-0.5,0-0.7,0c-0.5,2.6-1,5.2-1.7,8.3c-0.5-1.4-0.8-2.4-1.2-3.4c0-2,0-4,0-6.1c1-1.2,0.4-2.6,0.5-3.9
				c-0.1-1.7,0.7-3.7-1-5.1c-0.3-2.7-0.5-5.3-0.8-8c1.4-1.6-0.4-3-0.4-4.5c-0.1-0.5-0.1-0.9-0.2-1.4c0.5,0,1-0.1,1.5-0.1
				c1.2,3.1,0.7,6.9,3.9,9.1c0.1,0.7,0.3,1.4,0.4,2.2c0.5,1.6,0.1,3.4,1.6,4.6C1006.3,316.4,1005.6,318.3,1007.5,319.2z"/>
			<path class="st10" d="M1000.1,341c1.5,1.7-2.7,4.2,0.9,5.9c1.3,0.6,2.3,1.1,3.6,0.9c1.6-0.3,1.2-1.7,1.4-2.8
				c0.4-2-0.8-4.4,1.1-6.1c1.3,1.7-1.1,5.2,2.7,5.8c1.2,0,1.2,0,1.2,2.2c-2.6,0.3-0.8,1.9-0.9,2.9c-0.8,0.1-1.5,0.2-2.3,0.4
				c-0.2,0-0.5,0-0.7,0c-2.3,0.1-5.6-1.5-6.6,1c-0.9,2.3-1.8,5.7,1.2,7.9c0.3,1.6,0.2,3.5,1,4.7c2,2.8,1.4,5-0.9,7.2
				c-0.6-0.4-1.1-0.8-1.7-1.1c0-1.5,0.2-3.1-0.2-4.4c-1.1-3.4,0.4-7.4-2.5-10.3c0.4-3.5,0.7-7-4.6-6.7c0.8-0.7,1.6-1.4,2.3-2.1
				c-2.9-1.5-5.6-1.2-8.5-0.7c-2.1,0.4-4.5,0.7-6.6-0.7c-0.2-3.5-3.8-0.8-4.9-2.6c4.5-0.7,8.7-1.2,13.4,0.1
				C992.2,343.6,996.6,344.5,1000.1,341z"/>
			<path class="st10" d="M830.3,288.1c-0.9,0.6-1.7,1.2-2.6,1.8c3.7-14,9.5-27.3,17-39.6c3-4.9,8.3-8.5,13.6-11.3
				c2.1-1.2,2.7-4,5.4-4.2c1.3,1.1,3.4,0.7,4.4,2.4c-5.9,1.7-11.2,4.5-15.8,8.7c-4,3.6-6.1,8.4-8.5,13c-1.9,0.8-2.5,2.4-2.5,4.3
				c-0.5,1.3-0.9,2.6-1.4,3.9c-1.3,1.3-0.8,2.9-0.8,4.5c-3.1,0.6-3.8,2.6-3.2,5.4c-0.3,0.4-0.5,0.7-0.8,1.1
				C831.9,280.7,832.5,285,830.3,288.1z"/>
			<path class="st13" d="M993.6,252.9c1,9,6.8,16.4,8.3,25.2c-1.2,0.8-1,1.9-0.9,3.1c-0.4-0.2-0.9-0.4-1.3-0.6
				c-3.4-10.9-7.2-21.6-14.3-30.9c-8.3-10.9-19.4-16.7-32.3-19.8c2.7-1.8,5.3,1.1,8,0.1c1.3,0.1,2.5,0.6,3.8,1
				c5.6,1.8,9,6.9,14.3,9.1c3.4,3.7,7.1,7.1,10,11.1C990.6,253.1,991.9,252.9,993.6,252.9z"/>
			<path class="st14" d="M1123.9,434c-1.1-0.2-1.8-0.7-1.9-1.9c0-1,0-2-0.1-3c-0.3-20.2-0.8-40.4-0.9-60.7c0-4.2-1.9-4.7-5.1-4.4
				c0-0.3,0-0.6,0-0.9c0.4,0,0.7-0.1,1.1-0.1c1.2-0.3,2.3-0.6,3.5-0.9c0,0,0,0,0,0c2.6,0,2.2,2,2.3,3.6
				C1123.1,388.4,1124.3,411.2,1123.9,434z"/>
			<path class="st6" d="M718.1,335.1c1.3-1.4,3.1-0.9,4.7-1c13.3-0.7,26.7-1.5,40-2.1c1.2-0.1,2.2-0.5,3.2-1.1
				c2.3,2.7,4.7-0.6,7.1,0.1c1,0.4,2.3-0.2,3,1c-11.2,2.9-22.5,3.3-34,3.1c-4.7,0-9.4,0-14,0c-1.3,0-2.2,0.6-2.9,1.7
				C722.8,336.2,720.4,335.7,718.1,335.1z"/>
			<path class="st2" d="M1123.9,522.8c-13.3,3.4-26.6,6.8-39.9,10.2c-0.3-0.4-0.6-0.7-0.9-1.1c0.1-0.6,0.1-1.3,0.2-1.9
				c13.3-3.4,26.5-6.7,39.8-10.1c0.3,0,0.7,0,1,0C1123.9,520.9,1123.9,521.9,1123.9,522.8z"/>
			<path class="st10" d="M1004.4,310.3c-0.1-0.7-0.3-1.4-0.4-2.2c1.5-1,0.8-2.3,0.5-3.6c-1.2-5.5-2.3-11-3.5-16.5
				c0-1.1,0.1-2.3,0.1-3.4c1.2-0.2,2.5-0.3,3.7-0.5c1.3,11.6,3,23.2,2.7,35c-1.9-0.9-1.2-2.8-1.5-4.2
				C1005.3,313.4,1007.2,311,1004.4,310.3z"/>
			<path class="st4" d="M979.2,240.1c-5.3-2.2-8.7-7.3-14.3-9.1c-1.3-0.4-2.4-0.9-3.8-1c-3.6-4-8.4-3.8-13.1-3.9l0,0
				c-4-2.5-8.9-1-13-2.9c0-0.3,0-0.6,0-1c14.3,1.6,28.5,3.7,41,11.7c1.8,1.1,2.9,2.6,4,4.2C980.4,239.1,981.2,240.2,979.2,240.1z"/>
			<path class="st12" d="M776.1,332c-0.7-1.2-2-0.6-3-1c-1.3-4.3-3.7-7.9-6.8-11.1c-0.1-0.6-0.2-1.3-0.2-1.9c0.3-0.3,0.6-0.6,1-0.9
				c0.3,0,0.7,0,1,0.1c-0.1,1.6,1,2,2.2,2.1c3.6,3.3,7.2,6.7,10.8,10c0.9,0.8,1.1,1.6,0.7,2.6c-0.5,1.2-1.4,1.2-2.4,0.9
				C778.3,332.5,777.2,332.3,776.1,332z"/>
			<path class="st10" d="M979.2,240.1c2,0.1,1.2-1,0.9-1.9c6.8,2.8,10.7,8.3,13.6,14.7c-1.7,0-3,0.2-4.4-1.7
				C986.2,247.2,982.6,243.8,979.2,240.1z"/>
			<path class="st9" d="M923,224.1c-0.4,2.9-3.5,1.9-4.2,1.8c-6.8-1.5-13.3,1.5-19.9,1.2c0.9-3.5,4.1-3.8,6.8-4.4
				c2.3-0.5,4.8-0.6,7.2-0.8c-0.6,0.7-1.2,1.3-2.2,2.3C915.1,224.1,919.1,224.1,923,224.1z"/>
			<path class="st3" d="M766.3,320c3.1,3.2,5.4,6.8,6.8,11.1c-2.4-0.7-4.8,2.6-7.1-0.1C766.1,327.3,763.6,323.5,766.3,320z"/>
			<path class="st1" d="M1124,520c-0.3,0-0.7,0-1,0c0-16.6,0-33.2,0-49.9c0-1.7-0.7-3.7,1-5.1C1124,483.3,1124,501.7,1124,520z"/>
			<path class="st9" d="M718.1,335.1c2.4,0.5,4.7,1.1,7.1,1.6c2.6,0.7,5.2,0.2,7.9,0c0.5,1.3,1.6,1.4,2.7,1.2
				c1.2-0.2,0.6-1.1,0.5-1.8c0.7,0,1.3,0,2,0c0.6,0.5,1.3,0.9,1.9,1.4c-4.2,2.9-8.9,1.5-13.2,1c-4.5-0.5-8.8-0.9-13.1,0.5
				C713.8,336.4,715.5,335.3,718.1,335.1z"/>
			<path class="st14" d="M1124,462c-1.5-8.7-1.7-17.3-0.1-26C1124,444.7,1124.9,453.4,1124,462z"/>
			<path class="st6" d="M1004.8,284.2c-1.2,0.2-2.5,0.3-3.7,0.5c0-1.2,0-2.3-0.1-3.5c0-1.1-0.3-2.3,0.9-3.1c0.5,0.1-0.6,2.1,0.9,0.9
				c0.4-0.3-0.1-1.6,1-2.2C1004.2,279.3,1004.5,281.8,1004.8,284.2z"/>
			<path class="st10" d="M696.2,476c1.2,2.5,2.1,5-0.9,6.9C695.6,480.7,695.9,478.4,696.2,476z"/>
			<path class="st9" d="M897,228c-0.5,1.5-1.6,2-3.1,2.1C894.6,228.9,895.8,228.4,897,228z"/>
			<path class="st9" d="M899,227c-0.3,1.1-1.2,1.1-2.1,1C897.3,227,898.2,227.1,899,227z"/>
			<path class="st9" d="M1120.5,362C1120.5,362,1120.5,362,1120.5,362c-0.1-0.3-0.3-0.7-0.5-1c0,0,0,0,0,0
				C1120.1,361.4,1120.3,361.7,1120.5,362z"/>
			<path class="st9" d="M767.1,317.1c-0.3,0.3-0.6,0.6-1,0.9C765.9,317.2,766.3,317,767.1,317.1z"/>
			<path class="st6" d="M935,223.2c4.1,1.8,9,0.3,13,2.9c-1.3,0.1-2.7,0.2-4.9,0.3c2.3,0.9,3.7,1,4.9-0.3c4.7,0.1,9.5-0.1,13.1,3.9
				c-2.7,1-5.3-1.9-8-0.1c-4.3,0.4-8.2-2.3-12.5-2c-0.6,0-1.5-0.7-0.8-1.2c3.3-2.3-0.3-1.6-0.7-1.5c-3.4,1.5-6.7,0.4-10.1-0.1
				c-1.3-1.7-3.2-0.7-4.8-1.1C927.7,222,931.4,223.7,935,223.2z"/>
			<path class="st9" d="M748.1,341.1c-2-0.5-3.9-1.4-7.3-1c2.2-1,3.2-1.5,4.2-2c3.8-0.8,7.4,1.2,11.1,1c0.3,2.2,2.1,1.6,3.5,1.8
				c5.2,0.6,10.4,1.3,15.6,1.9c6.3,0.7,12.7,1.4,19,2.1c9.5-0.6,18.7,1.4,27.9,3c-1.9,1.9-4,0.6-6,0.2c-1.3-0.2-2.8-0.5-2.4,1.8
				c1,6.7,1.5,13.4,1.6,20.2c0.1,4.1,1.2,8.1,1.9,12.2c0.2,1.3,0.8,2.2,2.2,2.4c1.4,0.2,2.2-0.7,2.7-1.8c1.4-2.9,2.2-5.8,2.1-9.1
				c0-1.8-1.1-4.2,1.8-5c0.1,4.7,0.1,9.4,0.2,14.1c-1.4,1.3-1.4,2.7,0,4c0.1,1.1-0.2,2.3,0.9,3c0,0.7,0,1.4,0,2c0,0.3,0,0.6,0,0.9
				c0,1.3,0,2.7,0,4c-0.7,4.5,2.8,6.5,5.6,8.7c4.7,3.8,6.3,8.7,5.5,14.5c-1.3,9.2-2.7,18.3-4.1,27.4c-1.8,11.9-1.9,24.1-5.1,35.8
				c-1.8,6.5-0.2,13-2.5,19.6c-1.6,4.4-4.4,8-5.7,12.4c-2,6.7-0.9,11,4.4,12.6c2,0.6,4,1.3,6,1.9c2,0.4,4,0.7,6,1.1
				c9.2,2.6,18.6,4.4,28,5.9c1.8,1.3,3.9,1.1,6,1.1c5.8,2.1,12.1,2.3,18,3.9c2.6,0.4,6-0.4,5.9,4c-8-0.5-15.6-2.9-23.4-4.4
				c-23.8-4.5-47.6-9.3-71.4-13.9c-4.8-2.3-10.2-2.1-15.1-3.5c-2.9-1.5-6.7-0.4-9.2-3.1c0.9-0.4,1.1-1.1,1.2-2c0.6,0,1.3,0,1.9,0
				c4,1.1,6.9-1,6.9-5.9c0-10.4,1.8-20.8,1.1-31.3c-0.1-2.1,0.4-4.3,0.5-6.4c0.7-10,1.4-20.1,2.1-30.1c0.4-6.8,0.7-13.7,1.1-20.5
				c0.2-2.9,2.3-6.6-1.7-8.9c0-1,0-2,0-3c1.6-0.1,2.5-1.3,2.6-2.6c0.3-6.1,1.4-12.3-0.6-18.4c0-8.3,0-16.6,0-24.9
				c3.3-3.4,2.7-11.7-1-15.1c-1.8-3.8-5.3-4.7-9-5c-0.7-0.3-1.4-0.8-2.2-1C768.8,343.5,758.3,342.9,748.1,341.1z"/>
			<path class="st11" d="M748.1,341.1c10.2,1.8,20.7,2.3,30.8,4.9c0.8,0.2,1.4,0.7,2.2,1c-0.1,2.3,2.3,3.2,3,5
				c-0.5,0.3-1.4,0.4-1.5,0.8c-0.2,1.1,0.8,1.1,1.5,1.2c2,2.5,0.6,5.3,1,8c-5.2,3.1-10.3,6.3-10.3,13.4c0,0.3-0.3,0.6-0.5,0.8
				c-4.8,6.5-8.4,13.3-5.4,21.8c0.4,1-0.8,1.9-0.9,2.7c-0.3,6.7-5.2,13.1-1.2,20.1c0.6,1,0,2.2-0.4,3.3c-3,7.5-3.8,15.6-6.2,23.2
				c-0.2,0.7-0.1,1.9,0.4,2.4c2.9,2.9,2.8,6.8,3.1,10.3c0.6,6.5,0.8,13.3-4.9,18.3c-1.9,1.6-1.7,3.5-0.8,5.9c1.9,4.4,2,9.4,0.4,13.6
				c-3.2,8.1-3,15.1,3.6,21.2c-0.3,0-0.7,0-1,0c-7.4-1.3-14.7-2.7-22.1-4c-1.8-0.3-3.6-0.5-4.9-2c1.3-2,2.9-3.8-0.6-5.5
				c-1.8-0.8-1.9-2.9-1.2-4.4c0.8-1.9,2.4-0.4,3.5-0.1c3.6,1,6.3,0.4,7.2-3.7c0.4-1.9,1.4-2.2,3-2.5c3.6-0.8,7.2-1.4,4.4-7.1
				c-2.1-4.5-1.7-9.8,2.2-13.9c2.2-2.3,1.7-5,1-7.5c-0.7-2.5-1.2-5.1,0.4-7.2c3.6-4.4,1.7-8.2-1.1-11.7c-1.9-2.3-2.1-3.4,0.4-5.6
				c2.9-2.6,2.6-7.1,4.4-10.6c1.2-2.3,1-5.7,2.2-8.5c0.4-0.8,0.3-2.6-0.1-2.8c-4.2-2-3.6-5.9-4.4-9.5c-0.4-2-3.2-3.3-5.8-1.6
				c-1.2,0.8-2.6,1.4-4,2c-2.3,1.1-4.3,1-5.3-1.7c-1-2.6,0.8-3.6,2.9-4.2c1.2-0.3,2.2-0.8,2.6-2c1-2.9,2.8-2.3,4.7-1
				c1.9,1.3,3.7,1.1,5.7,0.4c2.1-0.7,3.2-1.1,1.1-3.5c-2.4-2.9-0.9-7.6-4.1-10.6c-0.8-0.7,0.4-2,1.7-2.4c3.3-1,4-3.4,4.2-6.6
				c0.2-3.5,1.4-6.5,5.4-7.4c2.7-0.6,3.8-2.6,3.5-5.3c-0.4-2.9,0.8-5,3-6.9c1.9-1.7,4.5-3.5,2.4-6.6c-2.4-3.8-5.4-6.3-10.5-6
				c-5.1,0.3-10.1-0.8-14.6-3.6C746.3,344.3,748.1,342.6,748.1,341.1z"/>
			<path class="st8" d="M756.1,339.2c-3.8,0.1-7.3-1.8-11.1-1c-1.6-0.2-3.3-0.4-5-0.6c-0.6-0.5-1.3-0.9-1.9-1.4
				c1.3-0.5,3,0.5,3.9-1.1c11.4,0.2,22.8-0.2,34-3.1c1.1,0.2,2.2,0.4,3.3,0.7c1,0.3,2,0.3,2.4-0.9c0.4-1,0.2-1.8-0.7-2.6
				c-3.6-3.3-7.2-6.6-10.8-10c9.2-0.6,18.4,1.3,27.6,1.1c1.8,2.1,3.9,2.4,6.2,0.9c5.9,0.3,11.8,0.8,17.7,0.9
				c3.7,0.1,2.8,2.8,3.2,4.9c-2,0.8-3.6,1.7-2.4,4.4c2,4.7,0.7,9.9,1.9,14.7c0.6,2.4-1.3,1.7-2.5,1.9c-9.2-1.6-18.4-3.7-27.9-3
				c-0.1-2.2-1.7-2-3.2-2.1c-5.3-0.4-10.6-0.9-15.9-1.3C768.8,340.1,762.4,339.8,756.1,339.2z M811.5,339.2c2.8,0.8,4.4,1.4,6.1,1.7
				c1.3,0.2,2.6-0.4,2.1-1.9c-1-2.8-0.2-6-2-8.6c-0.6-0.9-0.9-2.5-2.4-2.1c-1.9,0.6-0.3,1.9-0.4,2.9
				C814.6,334,817.6,337.7,811.5,339.2z M812.3,326.1c0-1,2.5,0.9,1.3-0.8c-0.7-1,0.7-3.6-2-3.2c-1.3,0.2-2.2,0.8-2.3,2.1
				C809.1,326.3,810.9,325.9,812.3,326.1z"/>
			<path class="st15" d="M734.1,513c1.3,1.4,3,1.7,4.9,2c7.4,1.2,14.8,2.6,22.1,4c0,1.3-0.7,2-2,2c-5.2,1.1-9.8-2.8-15-2
				c-3-0.3-5.9-0.8-8.9-1c-6.3-0.5-12.5-2.1-18.9-2.8c-6.4-0.8-12.6-3.7-19.3-3c-1.1-0.2-2.2-0.7-1.7-1.9c0.9-2.3,3.1-0.9,4.8-1.3
				c6.4,2.2,13.2,1.7,19.8,3C724.5,512.8,729.3,513.3,734.1,513z"/>
			<path class="st7" d="M1072,665.9c-0.7,10.7-1.3,21.4-2.9,32c-6.1-1.1-12.4,2.3-18.6-0.7c-1-0.5-3,1.1-4.6,1.5
				c-1.6,0.5-2.9-0.2-4-1.3c-1-0.9-2.1-2.1-3.4-0.9c-4.4,3.7-9,2.7-14.2,2c-4.9-0.7-10.3-3.2-15.4,0.2c-0.5,0.3-1.4,0.4-1.9,0.2
				c-7-3.6-14.5-0.1-22-2.1c-6.6-1.7-13.4-4.2-20.4-4.7c-2.3-0.2-4.2-0.8-5.7-2.6c-1.5-1.8-3.5-1.5-5.5-1.5c-4.1,0-7.8-1.1-10.7-4.2
				c-1.1-1.1-2.4-1.8-4-1.8c-3.1,0.1-5.5-0.9-6.8-3.9c-1-2.4-3.3-2.6-5.1-2c-2.9,0.9-4.3-0.3-5.5-2.4c-0.4-0.7-1-2-1.4-1.9
				c-5.8,0.6-7.8-5.5-12.5-6.8c-5.9-1.7-8.6-7.7-13.6-10.7c-1.8-1.1-3-3.3-5.4-0.8c-1.1,1.1-2.3,0.3-2.4-1.2c-0.2-2-1.3-3.5-3-3.5
				c-6.6-0.2-9.7-5.5-13.8-9.3c-1.3-1.2-2.5-1.2-4-1.6c-4.9-1.1-9.5-2.6-12.2-7.4c-0.5-1-1.3-1.6-2.4-1.2c-2.4,0.9-4.6,1.3-5.9-1.6
				c-1.5-3.3-1.3-6.5,0.7-9.5c0.4-0.6,1.3-1,1.9-1.5c3.5,0.7,7.1,1.4,10.6,2.1c18.9,4.2,37.8,8.4,56.8,11.8c6.3,1.3,12.6,2.8,18.9,4
				c10.7,2.1,21.4,4.1,32.2,6.1c2.4,1.6,5.3,1.4,8,2c3.2,1.1,6.5,2.2,10,2.2c8.3,3.2,17.1,4.9,25.7,6.8c7.7,1.6,15.4,3.8,23.3,4.2
				C1046,659.3,1059,662.6,1072,665.9z"/>
			<path class="st1" d="M914.9,630.6c-19-3.5-37.9-7.6-56.8-11.8c-3.5-0.8-7.1-1.4-10.6-2.1c-4.7-2-9.8-2.6-14.8-3.6
				c-1.8-0.3-3.5-0.9-5-1.8c1.1-0.7,1-2,1.5-3c3.9-7.3,1.3-16.4,6.9-23.2c2.7-3.2,1-7.7,2.9-11.2c2.9,0.3,4.9,2,6.5,4.2
				c1,1.4,2,2.3,3.6,1c1.4-1.1,2.5-2.4,1.2-4.2c-0.7-1.1-1.8-2.2-0.2-3.4c1.4-1.1,2.3,0,3.5,0.8c0.7,0.5,1.9,0.4,2.8,0.6
				c3.2,0.7,5.9,1.7,6.7,5.5c0.7,3.1,2.5,4.1,5.4,1.8c1.3-1,4.1-2.1,4.4-0.9c1.5,5,5.6,2.8,8.5,3.9c1.8,0.7,2.9,0,3.8-1.3
				c1-1.5,1.3-3.3,0-4.6c-1.6-1.5-3.1-2.6-1.2-4.9c1.6-1.9,3.3-3.2,6-1.6c2.4,1.5,3.7,0.6,4-2.1c0.1-1.2,0.7-1.9,2-1.5
				c1.6,0.5,5.7,9,5.4,10.9c-0.9,5.9,5.8,11.8,11.5,10.3c5.3-1.4,9.8-6.2,16-3.8c0.6,0.2,1.5-0.5,2.3-0.9c0.9-0.4,2-1.1,2.8-0.3
				c4.4,4.4,10.6,2.3,15.7,4.5c3.1,1.3,6,1,9.1-0.4c3.6-1.6,7.4-2.6,11.2,0.5c2.2,1.9,4.7,0.8,6.6-1.4c1.7-2,3.3-2.4,5.5-0.4
				c2.7,2.6,4.3,1.6,5-1.9c0.2-1.3,0.9-2.5,1.5-3.7c0.9-1.7,2.5-3.5,4.2-2.3c2.1,1.5,6.1,0.9,5.8,5.3c-0.2,3.2,0.6,7.9,3.4,8.4
				c4.3,0.9,9.8-0.2,13.3-2.2c3.7-2.1,8.1-6.7,5.1-13c-0.6-1.2-0.2-2.9-0.3-4.4c8.6,1.7,17.3,3.4,25.9,5.1c8.8,3.5,18.2,3.9,27.3,6
				c2.2,0.5,2.8-1.1,2.9-3c0.2,0,0.4,0,0.6,0.1c0.5,0,1-0.1,1.5-0.1c0.1,2,0.2,4,0.3,6.1c-0.7,5.6-0.9,11.3,0.2,16.9
				c-1.9,0.3-1.5,1.9-1.7,3.1c-4-0.2-1.8,3.9-3.6,5.5c-0.9,0.8,1,2.3,2.7,2.5c-1,2.9,0.8,6.2-0.9,9c-0.4,0-0.7,0-1.1,0
				c0-0.7,0-1.3,0-2c1.2-4.8-4.7-6.4-4.8-10.6c0-0.1-0.6-0.3-0.9-0.2c-5.2,0.9-10.6,1.3-15.6,2.8c-3.9,1.2-7.5,1.5-11.1,0.1
				c-3.8-1.4-7.5-2.7-11.4-0.7c-1.3,0.7-2.4,0.3-3.7-0.4c-4.6-2.7-9.6-2.6-14.5-1.4c-5.9,1.5-11.9,1.9-17.8,1.2
				c-3.7-0.5-6.7,0.2-9,2.7c-3.2,3.4-6.8,3.2-10.5,1.7c-2.1-0.8-3.6-1-5.3,0.8c-1.5,1.5-3.5,2.6-5.1,3.9c-2.6,2.1-4.8,2.3-8,0.5
				c-5.2-2.9-10.9-5.6-17.2-2.6c-1.2,0.6-2.4-0.4-2.7-1.6c-0.9-4.9-4.7-4.9-8.4-5.2c-3-0.2-6,0.5-8.9-0.5
				c-7.8-2.8-15.6-6.1-23.9-6.8c-6-0.5-11.7-5.9-18-1c-0.1,0.1-0.4,0.1-0.5,0c-3-3.6-7.4-2.9-11.3-3.7c-4.8-1-8-4.4-11.9-6.7
				c-1.6-0.9-2.7-1.1-3.1,0.5c-1.1,4.4-5.2,5.8-8.2,8.1c-2,1.5-2.4,3.2-1.9,5.2c0.6,2.1,1.6,3.7,4.4,4.1c3.8,0.5,7.8,0.6,11.3,1.4
				c6.2,1.4,12.3,3.3,18.6,4.3c6.3,1,12.7,1.9,18.7,4c3.8,1.3,7.7,1.6,11.4,2.6C908.3,625.4,913.3,625.6,914.9,630.6z"/>
			<path class="st1" d="M744,519c5.2-0.8,9.8,3.1,15,2c0.4,2.4,2.3,1.9,3.8,2c2.4,0.1,4.9-0.4,7.2,1c-0.1,11.6,0.5,23.3-0.3,34.9
				c-1,13.1-3.4,26.1,0.3,39.1c-24.2-5.4-48.9-8.8-73.2-13.6c-0.3-0.4-0.5-0.9-0.9-1.1c-1.7-0.7-4.8,0.6-5-0.8
				c-0.4-3.3-3.2-6.2-1.8-9.7c1.2-3.2,0.8-6.5,0.9-9.7c3.5-0.7,5.4,1.9,7.7,3.8c0.9,0.7,1.9,2.6,2.5,1.8c3.2-4.3,9.7,4,11.9-3.3
				c0.2-0.5,1.4,0.3,2.2,0.6c3.7,1.6,7.1,2.7,11.1,0.1c3.4-2.3,6.5-1.6,10.1,1c0.5,0.4,1.1,0.7,1.7,0.9c6.8,2.5,11.9-0.9,12.6-9.1
				c0.4-5.3,1.2-10.2,5-14.1c0.9-1,1.3-2,0.1-3C747.7,535.8,746.1,527.3,744,519z"/>
			<path class="st10" d="M819.1,609.3c-14.5-2.9-28.8-6.2-43-10.2c1.2-3.2-2.7-4.3-2.9-6.9c-0.6-7.9-0.7-15.8,0.3-23.6
				c1.9-14.5,3.4-29,4.6-43.6c1.1,0,2.3-0.2,3,0.9c-0.6,6.8-1,13.6-1.8,20.4c-1.5,12.4-2,25-3.2,37.5c-0.7,7.4,1.7,12.1,7.1,13
				c7.8,2.6,15.8,4.6,23.9,6c3.9,1.3,7.4,2.6,6.4-4.2c-0.3-2,1-4.5,2.7-6.3c5.9-6.5,4.3-14.8,4.5-22.3c0.2-7.6,0.2-15.2,0-22.8
				c-0.1-4.6,3.7-7.8,3.4-12.2c3.9,0.2,7.5,1.5,11,3c0.1,2.2-0.5,4.2-1,6.3c-1.7,6.2-4,12.4-3.7,18.8c0.2,4.3,0.7,8.4-0.1,12.7
				c-0.8,3.7,4.2,8.3-1.7,11.5c-0.2,0.1,0.1,1.5,0.3,2.3c0.3,1.3,0.7,3-0.3,3.8c-3.2,2.9-2.6,7-3.4,10.6c-0.6,2.8-0.9,4.6-4.3,3
				c-0.7-0.3-2.3-1-2.9,0.6C817.9,608.1,818.7,608.7,819.1,609.3z"/>
			<path class="st2" d="M819.1,609.3c-0.4-0.5-1.2-1.2-1-1.6c0.5-1.6,2.2-0.9,2.9-0.6c3.4,1.6,3.7-0.2,4.3-3
				c0.8-3.6,0.2-7.7,3.4-10.6c1-0.9,0.5-2.5,0.3-3.8c-0.2-0.8-0.5-2.2-0.3-2.3c5.9-3.1,0.9-7.7,1.7-11.5c0.9-4.3,0.3-8.4,0.1-12.7
				c-0.3-6.4,2-12.6,3.7-18.8c0.6-2.1,1.1-4.1,1-6.3c3.3-0.6,6.2,0.6,9.1,1.7c-1,2.9-1.9,5.9-3.1,8.8c-1.3,3.3,0.3,6.5-0.2,9.8
				c-0.8,5.2-1.2,10.5-1.8,15.7c-1.9,3.5-0.2,8-2.9,11.2c-5.6,6.7-3.1,15.9-6.9,23.2c-0.5,1-0.4,2.3-1.5,3
				C824.7,611,821.8,610.5,819.1,609.3z"/>
			<path class="st2" d="M778,525c-1.2,14.6-2.8,29.1-4.6,43.6c-1,7.8-0.9,15.7-0.3,23.6c0.2,2.6,4.1,3.7,2.9,6.9
				c-2.1,0.3-4-0.6-6-1.1c-3.7-13-1.3-26-0.3-39.1c0.8-11.6,0.3-23.2,0.3-34.9C772.7,524.1,775.5,523.4,778,525z"/>
			<path class="st14" d="M1109,365c-6.2,7.4-6.3,9-1,18.4c1.1,1.9,1.6,4,0.7,5.7c-4.4,9.1-3.3,19.6-8,28.9c-2,3.9-3.2,9.6-2.7,14.8
				c0.2,1.5-0.5,2.9-1,4.3c-1.1,3.8-4.3,6.7-4.3,11c0,1.6-1.7,2.8-3.5,2.9c-0.7-2.5,0.6-4.9,0.8-7.4c1-18.2,2.1-36.5,3.2-54.7
				c0.1-1,0.9-2.4-1-2.7c2.1-5.7,0.3-11.5,0-17.2c0-0.3,0-0.6,0.1-0.9C1098,368.1,1103.1,364.4,1109,365z"/>
			<path class="st13" d="M1092.1,386.3c1.9,0.3,1.1,1.6,1,2.7c-1.1,18.2-2.2,36.5-3.2,54.7c-0.1,2.5-1.5,4.8-0.8,7.4
				c-2,26.4-4,52.7-5.9,79.1c-0.1,0.6-0.1,1.3-0.2,1.9c0,0.4,0,0.7-0.1,1.1c0,1,0,1.9,0,2.9c0,0.7,0,1.5-0.1,2.2c0,0.2,0,0.4,0,0.6
				c-1.9,2.5-0.6,5.5-1,8.2c-1.4,3.9-0.3,8.2-2,12.1c-0.2-0.7-0.5-1.3-0.7-2c0.1-2.1,0.3-4.2,0.4-6.3c0-0.3,0.1-0.6,0.1-0.9
				c0.1-2,0-4,0.2-5.9c1-13.6,2.1-27.3,3.1-40.9c0.7-0.6,0.7-1.3,0.5-2.1c0.2-3.6,0.3-7.3,0.5-10.9c1.8-10.6,2-21.4,2.6-32.1
				c0.5-9,1-18,1.5-27c0.9-5.6,1.3-11.2,1.2-16.8c0.3-3.6,0.5-7.3,0.8-10.9c1.3-3.3,0.8-6.8,0.7-10.2c0-1,0-2,0-3
				C1091,388.7,1091.2,387.4,1092.1,386.3z"/>
			<path class="st10" d="M1109,365c-5.9-0.6-11,3-16.8,3.1c0,0-0.2-0.2-0.2-0.2c0.6-1.1,0.6-2-1-1.9c0-0.4,0-0.8-0.1-1.2
				c8.3-1.2,16.6-2.2,25-1.7c0,0.3,0,0.6,0,0.9C1113.6,364.4,1111.3,364.7,1109,365z"/>
			<path class="st2" d="M1084.1,490.1c-0.2,3.6-0.3,7.3-0.5,10.9c-1.5,0.4-2.1,1-0.5,2.1c-1,13.6-2.1,27.3-3.1,40.9
				c-0.1,2-0.1,4-0.2,5.9c-0.1,0.1-0.3,0.2-0.3,0.3c0,0.2,0.1,0.4,0.1,0.7c-0.1,2.1-0.3,4.2-0.4,6.3c-0.9,3.1-1.3,6.1,0.6,9
				c0.2,3.4-0.1,6.6-1.1,9.9c-1.4,0-2.7,0.1-2.8,2c0.2,1,0.5,2,0.7,3.1c-0.2,0-0.4-0.1-0.6-0.1c-10-2.1-19.9-4.8-30.1-5.9
				c-8.8-1.2-17.3-3.8-25.9-6c-8-2-16-4.1-24-6.1c0.6-2.4-1.8-4.9,0.2-7.2c1.9-2.2,1.7-4.9,1.9-7.5c0.5-6.9-2.4-14.1,2.7-20.5
				c1-1.2,1.8-3.9-0.2-6c-1.3-1.4,0-2.7,1-3.9c4.7-5.5,4.5-8.4-0.9-13.8c-3.4-3.4-3.6-6.4-0.1-9.7c1.3-1.2,1.9-2.6,1.4-3.9
				c-2-5.2-0.1-10.8-2.4-16.1c-1.6-3.8-0.3-8.7,1.5-12.4c2-4.1,3.2-8.2,4-12.6c1.4-7.5,0.7-15.1,2.8-22.6c1.8-6.4,6.5-11.3,4.9-19.8
				c-1.9-9.8-3.5-20.6-0.7-30.9c7.5,0.5,14.8,2,22,4.1c0,1.3-0.6,2.2-1.5,3c-3.6,3.5-5.7,7.2-4.7,12.7c0.9,4.7,0.6,9.7-1,14.3
				c-1,3-1.5,6.7-6.6,6.5c-3.1-0.1-3,3-1.2,4.7c6.8,6.8,7,14.7,5.4,23.6c-0.9,5-1.1,10.2,1.5,15.5c4.6,9.5,7.2,19.5-0.1,29.4
				c-1.6,2.2-3.4,5-2,7.8c2.6,5.4,1.2,10.6-0.4,15.8c-0.7,2.2-0.2,6.3-4.7,3.2c-0.6-0.4-1.2,0-1.6,0.7c-1.5,2.6,0.5,7.8,3.5,8.8
				c1.2,0.4,2.3,1.1,2.2,2.4c-0.8,5.4,2.4,10.4,1.3,15.9c-0.4,2.1,0.5,4.5,2.8,5.3c2.2,0.7,3.1-1.4,4.2-2.7c1.2-1.3,2.1-3.2,3.1-4.2
				c3.1-2.8,2.8-8.2,5.7-9.7c6.4-3.3,7.7-10.8,13.4-14.4c1.2-0.7,2.8-2.5,2.2-4.7c-1.1-3.7,0.4-7.4,0.1-11.1
				c-0.5-5.6,0.6-11.6-1.1-16.7c-1.4-4.1-0.7-7,0.7-10.2c1.1-2.6,2.2-5.5,4.2-7.3c2.8-2.6,2.4-5.5,1.5-8.1c-1.7-5.1,1.1-6.7,5.1-7.5
				c1.5-0.3,3.2-0.2,3.1-2.4c-0.3-4.6,2.4-8.1,4-12.1c1-2.4,1.7-4.4,4.9-2.9c1,0.5,2,0,2.6-0.9c0.6-1-0.3-1.4-0.8-2
				c-2.6-3.9-1.5-7.4,3-9.4c0.5,3.5,1.2,7,5.6,7.6c-0.5,9-1,18-1.5,27c-5.7,2.3-5.9,8.2-6.3,12.5
				C1079.7,477,1081.7,483.7,1084.1,490.1z"/>
			<path class="st5" d="M1079.9,566.1c-1.9-2.9-1.5-5.9-0.6-9c0.2,0.7,0.5,1.3,0.7,2C1081.3,561.4,1081.3,563.8,1079.9,566.1z"/>
			<path class="st6" d="M1082,547c0.3-2.7-0.9-5.6,1-8.2C1082.6,541.5,1083.9,544.4,1082,547z"/>
			<path class="st5" d="M1076.7,581c-0.2-1-0.5-2-0.7-3.1c1-0.1,1.9-0.1,2.9-0.2c0.1,1.1,0.4,2.3-0.7,3.1
				C1077.7,580.9,1077.2,581,1076.7,581z"/>
			<path class="st6" d="M1082.9,538.1c0-0.7,0-1.5,0.1-2.2c1.1,0.2,2.3-0.4,3.2,0.6C1085.7,538.3,1084.1,537.9,1082.9,538.1z"/>
			<path class="st1" d="M1078.9,577.8c-1,0.1-1.9,0.1-2.9,0.2c0-1.9,1.4-2,2.8-2C1078.8,576.6,1078.8,577.2,1078.9,577.8z"/>
			<path class="st6" d="M1083,533.1c0-0.4,0-0.7,0.1-1.1c0.3,0.4,0.6,0.7,0.9,1.1C1083.6,533,1083.3,533.1,1083,533.1z"/>
			<path class="st6" d="M1075.1,624c1.7-2.9-0.1-6.1,0.9-9c0.3-2.7,0.7-5.3,1-8c0.2-1.2-0.2-2.8,1.7-3.1c2,0.6,3.2-0.7,4.4-1.9
				c0.6,0,1.2-0.1,1.8-0.1c-0.7,6.5,2.9,11.5,6.1,16.4c3.7,5.6,7.9,10.8,12.4,15.7c1.6,1.7,3.2,3.1,3.8,5.5c0.5,2.1,1.7,3.7,3.3,5.3
				c3.6,3.4,6.2,7.5,7.3,12.4c-5.4-4.3-11-8.5-16.3-13c-5.1-4.3-10.2-8.8-16.2-11.7c-3.8-1.8-6.1-5.6-10.3-6.6
				C1075.1,625.2,1075.1,624.6,1075.1,624z"/>
			<path class="st4" d="M1084.8,600.8c2.9-2.7,6.6-3,10.3-3.5c-3,2.1-6.4,3.3-10,3.8C1085,601,1084.8,600.8,1084.8,600.8z"/>
			<path class="st4" d="M1084.9,601.8c-0.6,0-1.2,0.1-1.8,0.1c0.3-0.9,1-1.1,1.7-1.2c0,0,0.2,0.3,0.2,0.3
				C1085,601.3,1084.9,601.6,1084.9,601.8z"/>
			<path class="st4" d="M1098.5,596.5c-0.2,0.1-0.5,0.2-0.7,0.3c-0.1,0-0.2-0.2-0.3-0.3c0.2-0.1,0.5-0.2,0.7-0.3
				C1098.2,596.2,1098.4,596.4,1098.5,596.5z"/>
			<path class="st4" d="M1100.5,595.3c0.1,0,0.3-0.2,0.4-0.1c0.4,0.1,0.5,0.3,0.1,0.5c-0.1,0.1-0.3,0-0.4-0.1
				C1100.6,595.6,1100.6,595.5,1100.5,595.3z"/>
			<path class="st15" d="M1074,622c0,0.7,0,1.3,0,2c0.4,3-1,6.1,0.9,9c-1.1,6.3-2.1,12.6-1,19c-0.4,2.7-0.7,5.3-1.1,8
				c-7.8,0.5-15.8-1-22.5-4c-5.4-2.4-10.6-0.3-15.5-2.7c-1.5-0.8-1.7,1.4-1.8,2.8c-7.9-0.4-15.6-2.6-23.3-4.2
				c-8.7-1.8-17.4-3.5-25.7-6.8c1.6-2.2,4.4-0.1,6.7-2.1c-4.4-2-8.7-2.9-12.9-4c-3.4-0.9-5.9-6.8-3.4-8c3.7-1.9,6.9-5.2,11.7-4.9
				c8.6,0.5,17.2,1,25.9,0.2c8.4-0.8,16.9-0.2,25.4-0.1c3.1,0,6.6-1.1,9.3,0.9c4,2.9,9,1.5,13.1,3.9c1.2,0.7,3,0.2,4-1.3
				c0.7-1.1,1.6-1.8,2.9-1.5c3.4,0.6,4.8-1.3,5.4-4.3C1072.1,622.6,1072.9,622.1,1074,622z"/>
			<path class="st1" d="M1033,655.9c0.1-1.3,0.3-3.5,1.8-2.8c4.9,2.4,10.2,0.3,15.5,2.7c6.7,3,14.7,4.5,22.5,4
				c0.1,1.1,0.3,2.2-0.6,3.2c-0.7-0.6-1.6-1.7-2.1-0.3c-0.4,1.2,1,1.3,1.9,1.3c0,0.6-0.1,1.1-0.1,1.7
				C1059,662.6,1046,659.3,1033,655.9z"/>
			<path class="st7" d="M1072.2,664.2c-1,0-2.3-0.2-1.9-1.3c0.5-1.5,1.4-0.3,2.1,0.3C1072.3,663.5,1072.2,663.8,1072.2,664.2z"/>
			<path class="st14" d="M1074.9,632.9c-1.9-2.8-0.5-6-0.9-9c0.4,0,0.7,0,1.1,0c0,0.6,0,1.2,0,1.8
				C1075,628.2,1075,630.5,1074.9,632.9z"/>
			<path class="st8" d="M1049.1,350.1c14.7-0.7,28.5,3.3,42.3,7.5c3.4,1,6.7,1.9,10.2,1.4c2.1-0.3,3.9,0.5,5.3,2
				c-0.9,0.8-2,1.1-3.2,1.1c-8,0-15.8,1.1-23.7,2c-6,0.3-11.9,0.7-17.9,1c-1.9-0.5-4.4,1.9-5.8-1.2c-1.2,4.9-2.2,9.7-0.3,14.5
				c-1.7-0.2-3.3-0.4-5-0.6c0-4.3,1.8-8.3,2.6-12.4c0.4-1.9,1.1-4.2-0.7-5.5c-2.4-1.8-1.7,3-3.9,2.2
				C1048.6,358.1,1045.6,354.1,1049.1,350.1z M1079.3,362.5c-3.1-1.4-5.2-4.3-8.2-5.8c-1.2-0.6-2.7-1.2-3.5,0.1
				c-0.8,1.3,0.9,1.8,1.7,2.5C1072.2,361.6,1075.6,362.5,1079.3,362.5z"/>
			<path class="st10" d="M1049.1,350.1c-3.5,4-0.4,8,0,12c-0.2,1.3,0.9,2.1,1.3,3.1c1.5,3.5-0.1,9.4-3,10.7c0-0.6,0-1.3,0-1.9
				c1.2-5.5-0.7-7.6-6.1-7.1c-1.8,0.1-3.4,1.5-5.3,0.6c-0.2-1.4,0.4-2.5,1.4-3.5c3.7-3.6,2.1-7-0.4-10.4c0-0.5,0-1,0-1.5
				c2.2-1.4,5.3,2.6,7.1-1.3c0.2-1.9,1.7-1.8,3.1-1.9C1047.8,349.1,1048.6,349.3,1049.1,350.1z"/>
			<path class="st4" d="M1043.9,350.9c-1.7,3.8-4.9-0.2-7.1,1.3c-2.3-0.2-4.5-0.3-6.8-0.5c-1.6-1-3.4-0.6-5.2-0.6
				c-3.6-0.3-7.3,0.2-10.8-0.9c-0.7,0-1.5-0.1-2.2-0.1c-0.6,0-1.3-0.1-1.9-0.1l0.1-0.2c0.2-1-1.6-2.7,0.9-2.9
				c2.5,1.1,5.2,1.3,7.9,1.2C1027.2,349.1,1035.6,350,1043.9,350.9z"/>
			<path class="st12" d="M1043.9,350.9c-8.3-0.9-16.7-1.9-25-2.8c0.1-1.1,0.5-2,1.8-1.9c8.8,0.9,17.5,1.8,26.3,2.7
				C1045.6,349.1,1044.1,349,1043.9,350.9z"/>
			<path class="st6" d="M1080,364.1c7.9-0.9,15.8-2,23.7-2c1.2,0,2.3-0.3,3.2-1.1c3.3,0,6.6,0,9.9-0.1c0.1,0.7,0.1,1.4,0.2,2
				c-0.4,0-0.7,0.1-1.1,0.1c-8.4-0.4-16.7,0.6-25,1.7c-3.7,0.2-7.3,0.4-11,0.6C1079.9,364.9,1080,364.5,1080,364.1z"/>
			<path class="st0" d="M1117,363c-0.1-0.7-0.1-1.4-0.2-2c1,0,2.1,0.1,3.1,0.1c0.2,0.3,0.4,0.7,0.5,1
				C1119.4,362.3,1118.2,362.6,1117,363z"/>
			<path class="st2" d="M744,519c2.1,8.3,3.7,16.8,10.9,22.6c1.2,1,0.9,2-0.1,3c-3.8,4-4.6,8.8-5,14.1c-0.7,8.2-5.7,11.6-12.6,9.1
				c-0.6-0.2-1.2-0.5-1.7-0.9c-3.6-2.6-6.7-3.3-10.1-1c-4,2.7-7.4,1.6-11.1-0.1c-0.8-0.3-2.1-1.1-2.2-0.6c-2.2,7.3-8.7-1-11.9,3.3
				c-0.6,0.8-1.7-1.1-2.5-1.8c-2.3-1.8-4.2-4.5-7.7-3.8c1.5-10.3,2-20.7,2.2-31.1c0.1-3.6,0.9-7.3,0.6-10.9c-0.3-3.8,3.9-5.3,4-8.8
				c6.7-0.6,12.9,2.3,19.3,3.1c6.3,0.7,12.5,2.3,18.9,2.8C738.1,518.3,741.1,518.7,744,519z"/>
			<path class="st0" d="M1000.1,341c-3.5,3.5-7.9,2.6-11.6,1.6c-4.6-1.3-8.9-0.8-13.4-0.1c-1.3-0.1-2.7-0.3-4-0.4
				c-0.1-10.6,0-21.3-0.2-31.9c-0.1-3.4,0.1-7-1.7-10.1c2.3-2.8-0.7-5.4,0.2-9.4c-1.2,2.7-1.5,2.9-2.4,2.6c-0.5-2.1-1.6-3.9-1.8-6.1
				c-0.8-7.4-6.9-13.2-6.5-21.1c-3.1-4.4-5.4-9.4-10.3-12.2l0,0.1c0.1-0.8-0.5-1.2-1.1-1.5c-1.2-2.3-3.4-3.6-5.5-4.9
				c-0.8-1-1.6-1.9-3.1-1.7c-0.4-0.4-0.7-0.8-1.1-1.2c-0.7-1.2-1.9-1.6-3.2-1.8c-1-1.4-2.5-1.7-4-2c-5.9-3.6-12.4-5.2-19.2-6.2
				c-0.3,0.1-0.6,0.2-1,0.3c0,0,0.1,0,0.1,0c-2.8-2.4-6.5-1.1-10.1-2.8c8.4-5.1,17.3-3.6,25.9-4.1c2.5,0.3,4.9,0.9,7.4,1
				c9.1,0.4,18,2.6,26.5,5.5c19.3,6.6,29.8,21.3,34.3,40.7c0.7,3,0.4,6.4,2.9,8.8c0,0.3,0.1,0.7,0.1,1c-0.7,1.3-1.6,2.6-0.2,4
				c-0.3,3.5-0.2,6.9,1.6,10.1c0.1,0.5,0.1,0.9,0.2,1.4c-0.6,1.6-0.3,3.1,0.4,4.5c0.3,2.7,0.5,5.3,0.8,8c-0.4,1.7-0.2,3.4,0.2,5
				c-0.3,1.4-0.3,2.7,0.3,4c0,2,0,4,0,6.1c-0.7,3.7-0.7,7.4-0.3,11C1000.2,339.8,1000.1,340.4,1000.1,341z"/>
			<path class="st4" d="M997.1,284c-2.5-2.4-2.2-5.8-2.9-8.8c-4.5-19.4-15-34.1-34.3-40.7c-8.5-2.9-17.4-5-26.5-5.5
				c-2.5-0.1-4.9-0.7-7.4-1c-0.1-2.1,2.3-1.7,3-3c3.3,0.5,6.7,1.6,10.1,0.1c0.4-0.2,4-0.9,0.7,1.5c-0.7,0.5,0.2,1.3,0.8,1.2
				c4.3-0.3,8.2,2.4,12.5,2c12.9,3.1,24,8.9,32.3,19.8c7.1,9.3,10.9,19.9,14.3,30.9c-0.3,0.2-0.5,0.3-0.7,0.6
				C998.3,282.1,997.7,283.1,997.1,284z"/>
			<path class="st6" d="M843.7,258.9c2.5-4.6,4.6-9.3,8.5-13c4.6-4.2,9.9-7,15.8-8.7c12.3-1.2,24.6-0.9,36.8,1.1
				c3.3,1,6.6,1.9,9.9,2.9c-0.3,0.6-0.5,1.2-0.8,1.8c-6.8-1.1-13.5-2.2-20.3-3.4c-0.2-2.1-1.8-1.6-2.9-1.6c-4.6,0-9.1,0.1-13.7,0.1
				c-2.1,0.3-4.2,0.4-6.3,1c-5.3,1.4-10.9,2.3-14.8,6.9c0,0.4,0.1,0.7,0.1,1.1c-4-0.2-4.5,3.4-6.3,5.6c-2.8,2.8-3.5,6.7-5.8,9.8
				C843.9,261.4,843.8,260.1,843.7,258.9z"/>
			<path class="st10" d="M914.8,241.2c-3.3-1-6.6-1.9-9.9-2.9c0-0.6,0.1-1.1,0.1-1.7c1,0.1,2.1,0.2,3.1,0.2c1.8,0.4,3.6,0.7,5.3,1.3
				c8.2,3,17.2,4.3,23.7,10.9c-2.5,0.7-4.5-0.6-6.6-1.7C925.4,244.9,920.5,242,914.8,241.2z"/>
			<path class="st6" d="M908.1,236.8c-1-0.1-2.1-0.1-3.1-0.2c-10-1.9-20.1-2.7-30.3-2.6c6.4-0.7,12.8-1.2,19.2-0.5
				c5.4,0.5,10.7,2.1,16.2,1.4c0,0-0.1,0-0.1,0c0,0.4-0.1,0.7-0.1,1.1C909.3,236.3,908.7,236.6,908.1,236.8z"/>
			<path class="st12" d="M822,348.1c1.1-0.3,3,0.5,2.5-1.9c-1.1-4.8,0.2-10-1.9-14.7c-1.2-2.7,0.4-3.6,2.4-4.4c0.7,0,1.3,0,2,0
				c0.3,4,0.7,8,1,12c-0.2,1-1.4,2.1,0.2,2.9c0,1.3-0.1,2.7-0.1,4c0,0.7-0.1,1.4-0.1,2.1c-1.2,0.3-2.7,0.4-1.1,2.1
				c0.6,2.4-0.6,4.6-0.8,7c-0.1,3.9-0.2,7.9-0.3,11.8c-2.8,0.9-1.8,3.3-1.8,5c0.1,3.3-0.7,6.2-2.1,9.1c-0.5,1.1-1.3,2-2.7,1.8
				c-1.3-0.2-2-1.1-2.2-2.4c-0.7-4.1-1.8-8.1-1.9-12.2c-0.1-6.8-0.7-13.5-1.6-20.2c-0.3-2.3,1.1-2,2.4-1.8
				C818.1,348.7,820.1,350,822,348.1z"/>
			<path class="st13" d="M830.3,288.1c2.2-3.1,1.6-7.5,4.7-10.1c0.1,0.7,0.2,1.4,0.3,2.1c-0.1,0.3-0.1,0.5,0,0.8
				c-0.1,0.7-0.2,1.4-0.3,2c-3.8,11.3-4.7,23.1-6.1,34.8c-0.2,0-0.5,0-0.7,0.1c-2.6-7.4-0.8-14.7,0.4-22
				C829,293.3,829.7,290.7,830.3,288.1z"/>
			<path class="st1" d="M828.2,317.9c0.2-0.1,0.5-0.1,0.7-0.1c0.7,6.2-0.8,12.4,1,18.5c0.4,1.4-0.1,2.6-1.9,2.7c-0.3-4-0.7-8-1-12
				C827.4,324,826.2,320.8,828.2,317.9z"/>
			<path class="st12" d="M804.1,321.2c-2.3,1.5-4.4,1.3-6.2-0.9C800.1,319.8,802.1,320.6,804.1,321.2z"/>
			<path class="st15" d="M1000.9,288.1c1.1,5.5,2.3,11,3.5,16.5c0.3,1.3,1,2.5-0.5,3.6c-3.2-2.2-2.7-6-3.9-9.1
				c-0.4-3.3-0.8-6.5-1.2-9.8C999.3,288.4,1000,288.1,1000.9,288.1z"/>
			<path class="st10" d="M1000.2,339.1c-0.4-3.7-0.4-7.4,0.3-11c0.3,1,0.7,2,1.2,3.4c0.6-3.1,1.1-5.7,1.7-8.3c0.2,0,0.5,0,0.7,0
				c0,4,0,8,0,11.9C1004,337.8,1002.9,339.1,1000.2,339.1z"/>
			<path class="st9" d="M998.9,289.3c0.4,3.3,0.8,6.5,1.2,9.8c-0.5,0-1,0.1-1.5,0.1c-1.8-3.2-1.9-6.6-1.6-10.1
				C997.6,289.1,998.2,289.2,998.9,289.3z"/>
			<path class="st9" d="M1000.1,318c-0.4-1.7-0.6-3.3-0.2-5c1.7,1.4,0.9,3.3,1,5.1C1000.6,318.1,1000.4,318,1000.1,318z"/>
			<path class="st15" d="M1004.4,310.3c2.8,0.7,1,3.1,1.6,4.6C1004.5,313.7,1004.9,311.9,1004.4,310.3z"/>
			<path class="st9" d="M999.1,305c-0.7-1.5-0.9-3-0.4-4.5C998.8,302,1000.6,303.4,999.1,305z"/>
			<path class="st10" d="M1000.1,318c0.3,0,0.5,0,0.8,0.1c-0.1,1.3,0.6,2.7-0.5,3.9C999.8,320.7,999.8,319.4,1000.1,318z"/>
			<path class="st4" d="M980,345.2c2.1,1.4,4.5,1.1,6.6,0.7c2.9-0.6,5.6-0.8,8.5,0.7c-0.7,0.6-1.5,1.4-2.3,2.1
				c-1.9,1.3-1.1,3.3-1.1,5c-0.2,5.6,3,10.7,2.4,16.4c-1.7,0.4-2.6-1.6-4.1-1.3c-7.8,1.5-15.4-1.4-23.1-0.7c0-0.5,0-1,0-1.4
				c1.7-4.9,3.2-9.9,1.9-15.2c0-0.8,0.1-1.5,0.1-2.3c2.1,0,3.8,1,5.5,2c7.4,4.5,8.6,4.3,14.8-2c0.7-0.6,0.4-0.9-0.4-1
				c-6.2-0.5-12.5-0.9-18.7-1.4c-0.1-0.9,0.3-1.6,1-2.1C974.1,344.8,977.1,345,980,345.2z"/>
			<path class="st14" d="M966.9,368c7.7-0.7,15.3,2.2,23.1,0.7c1.5-0.3,2.4,1.7,4.1,1.3c0.9,0,1.9,0,2.8,0.1
				c1.1,1.6,2.2,0.3,3.3-0.1c0.6,0.4,1.1,0.8,1.7,1.1c0.4,0.4,0.8,0.7,1.2,1.1c0,0.2,0,0.4,0,0.6c-0.4,0.4-0.8,0.8-1.2,1.2
				c-1.1,0-2.2-0.2-2.9,1c-0.3,0-0.7,0-1,0c-1.1-0.7-1.6-2.3-3.3-1.8c-0.7-0.1-1.4-0.3-2.1-0.4c-0.1-0.2-0.4-0.3-0.6-0.3
				c-0.6-0.1-1.2-0.3-1.8-0.4c-4.1-0.6-8.1-1.5-12.2-1.7c-6-0.3-12-2.7-18.1-0.7c0-0.7-0.1-1.4-0.9-1.8c0.1-0.7,0.2-1.3,0.2-2
				c0.9,0.7,1.8,1,2.7,0C962.6,369,965,367.9,966.9,368z"/>
			<path class="st8" d="M1003,372.2c-0.4-0.4-0.8-0.7-1.2-1.1c2.3-2.2,2.8-4.4,0.9-7.2c-0.8-1.2-0.7-3.1-1-4.7
				c0.6-2.4,1.1-4.8,1.7-7.2c1.2,0.8,0.2,3.6,2.1,3.4c2.2-0.3,1.3-2.6,1.6-4.1c0.1-0.3,0.1-0.7,0.1-1c0.2,0,0.5-0.1,0.7,0
				c0.1,3.6,0.2,7.1,0.4,10.7c-0.3,2.8-0.7,5.6-1,8.4C1006.9,371.8,1003.9,370.6,1003,372.2z"/>
			<path class="st12" d="M996.9,370.1c-0.9,0-1.9,0-2.8-0.1c0.6-5.7-2.6-10.8-2.4-16.4c0.1-1.7-0.7-3.7,1.1-5
				c5.2-0.3,4.9,3.2,4.6,6.7C997.2,360.2,997.1,365.1,996.9,370.1z"/>
			<path class="st12" d="M1007.1,350.3c0,0.3,0,0.7-0.1,1c-0.3,1.5,0.7,3.8-1.6,4.1c-1.9,0.2-0.9-2.5-2.1-3.4
				c-0.6,2.4-1.1,4.8-1.7,7.2c-3-2.2-2.1-5.7-1.2-7.9C1001.5,348.7,1004.8,350.4,1007.1,350.3z"/>
			<path class="st4" d="M996.9,370.1c0.2-4.9,0.4-9.9,0.5-14.8c3,2.9,1.5,6.9,2.5,10.3c0.4,1.4,0.1,2.9,0.2,4.4
				C999.1,370.3,998,371.7,996.9,370.1z"/>
			<path class="st8" d="M980,345.2c-2.9-0.2-5.8-0.4-8.8-0.5c-0.1-0.8-0.1-1.7-0.2-2.5c1.3,0.1,2.7,0.3,4,0.4
				C976.2,344.3,979.7,341.7,980,345.2z"/>
			<path class="st9" d="M1008.1,360.9c-0.1-3.6-0.2-7.1-0.4-10.7c0.8-0.1,1.5-0.2,2.3-0.4c0,0-0.1,0.2-0.1,0.2
				C1009.8,353.7,1010.2,357.5,1008.1,360.9z"/>
			<path class="st1" d="M835.3,280.2c-0.1-0.7-0.2-1.4-0.3-2.1c0.3-0.4,0.5-0.7,0.8-1.1c0.9,0.3,1.8,2.6,2.8-0.1
				c0.7-1.8,0.4-3.6,0.4-5.4c0-1.5-0.5-3.2,0.8-4.5c0,0,0.3-0.1,0.3-0.1c0,0.9-0.5,2.2,0.7,2.5c1.2,0.3,1.1-0.9,1.2-1.6
				c0.7-1.6,1.4-3.2,2-4.9c0.1-0.2,0.1-0.3,0-0.5c2.2-3.1,3-7,5.8-9.8c0.3,0.4,0.6,0.8,0.9,1.2c-5.1,11.1-10.3,22-14.2,33.6
				c-0.7-1.5,0.1-3.4-1.5-4.6c0.1-0.7,0.2-1.4,0.3-2c0.1-0.1,0.3-0.2,0.3-0.2C835.5,280.6,835.4,280.4,835.3,280.2z"/>
			<path class="st4" d="M839,271.6c0.1,1.8,0.3,3.6-0.4,5.4c-1,2.6-1.8,0.3-2.8,0.1C835.2,274.2,835.9,272.2,839,271.6z"/>
			<path class="st6" d="M844,263.1c-0.7,1.6-1.4,3.2-2,4.9c-0.6-0.3-1.3-0.6-1.9-0.9c0,0-0.3,0.1-0.3,0.1c0.5-1.3,0.9-2.6,1.4-3.9
				C842.1,263.2,843.1,263.1,844,263.1z"/>
			<path class="st4" d="M844,263.1c-0.9,0-1.9,0.1-2.8,0.1c0-1.9,0.6-3.5,2.5-4.3c0.1,1.2,0.2,2.4,0.3,3.7
				C844.1,262.8,844.1,262.9,844,263.1z"/>
			<path class="st4" d="M998.9,289.3c-0.6-0.1-1.3-0.1-1.9-0.2c-1.4-1.4-0.5-2.7,0.2-4c2.5-0.5,1.6-2.4,1.7-3.9
				c0.2-0.2,0.4-0.4,0.7-0.6c0.5,0.2,0.9,0.4,1.4,0.6c0,1.2,0,2.4,0.1,3.5c0,1.1-0.1,2.3-0.1,3.4
				C1000,288.1,999.3,288.4,998.9,289.3z"/>
			<path class="st7" d="M742.1,335.1c-0.9,1.7-2.7,0.6-3.9,1.1c-0.7,0-1.3,0-2,0c-1.1-0.2-2.2-0.3-3.1,0.6c-2.6,0.2-5.2,0.6-7.9,0
				c0.7-1.1,1.6-1.7,2.9-1.7C732.7,335.1,737.4,335.1,742.1,335.1z"/>
			<path class="st2" d="M733,336.8c0.9-0.9,2-0.7,3.1-0.6c0.1,0.7,0.8,1.6-0.5,1.8C734.6,338.2,733.5,338.1,733,336.8z"/>
			<path class="st4" d="M948,226.1c-1.2,1.3-2.5,1.2-4.9,0.3C945.3,226.2,946.7,226.2,948,226.1C948,226.1,948,226.1,948,226.1z"/>
			<path class="st11" d="M895,545.9c0-4.4-3.3-3.6-5.9-4c0.1-1,0.1-2,0.2-3c0.1-5.4,2.6-11-1.6-16.1c-1.2-1.5-0.2-2.7,1.1-3.8
				c1.7-1.3,1.7-2.5-0.6-3c-1-0.3-2.1-0.4-1.6-1.8c0.4-1.2,0.9-3.1,2.4-2.8c4.3,0.8,2.7-1.5,2.3-3.6c-0.3-1.8-0.5-3.6-1.4-5.3
				c-1.2-2.1-0.8-3.5,1.9-3.6c2.1,0,2.5-1.5,2.2-3.1c-0.5-2-0.3-3.9,0-5.8c0.4-2,0.3-4-2.8-4.1c-2.7-0.1-2.7-2.1-1-3.3
				c7.9-5.4,6.4-14.4,8.8-21.9c1.2-3.8-1.6-7.9-0.3-11.3c1.9-4.9,1-9.3,0.5-14c-0.6-6.3-4-12.4-1.4-18.9c0.6-1.4-0.1-2.6-0.8-3.8
				c-2.1-3.5,1.8-6,1.5-9.4c-0.2-2.1,2.7-1,4.2-1.5c3-0.9,5-3.6,4.2-6c-2.4-6.6,1.2-10.4,5.8-13.2c3.4-2.1,1.3-3.3,0.3-4.9
				c-1.5-2.4-3.6-2.7-5.3-0.6c-2.3,2.7-3.7,1.6-4.8-0.7c-1.9-4.1-5.5-4.2-8.9-3.4c-3.3,0.8-5.3,4.7-9.3,4.5c-0.2,0-0.5,0.8-0.5,1.3
				c-0.6,6.2-2.8,12.2,0.1,18.5c1.5,3.2,1.2,6.6-0.6,10c-1.6,3-4.1,6-3.4,9.7c0.8,4.7,1.6,9.2-0.6,13.8c-0.6,1.2,0.2,4,1.3,5
				c3.2,2.9,1.5,5.1-0.2,7.8c-1.5,2.2-4.1,4.3-2.9,7.4c2.5,6.5-0.2,13.5,2.1,20c0.4,1.1-0.7,2.5-0.8,3.8c-0.1,1.6-0.8,4.1,0.6,4.7
				c4.4,2.1,1.4,6.7,3.8,9.4c0.6,0.7,0.1,1.7-0.9,1.8c-2.7,0.4-3.2,3.6-5.8,4.4c-2,0.6-1.7,1.6,0.2,2.9c4,2.6,3.9,5.1,0.1,7.5
				c-1,0.7-1.6,0.9-1.6,2.4c0,2.8-0.8,5.5-1.1,8.3c-0.4,3.2,3.3,8.5,6.2,8.1c2.2-0.3,3.3,0.1,3.4,2.2c0.1,2.6-2,2.3-3.6,2.2
				c-4.1-0.2-6.6,1.4-7.4,5.6c-0.2,1.2-1.2,2.3-1.9,3.4c-2.1,0-4.2,0.2-6-1.1c0.1-1.5-0.8-2.8-0.8-4.3c0.1-5.8,0.3-11.7-0.2-17.5
				c-0.6-6.7-1.9-14,3.8-18.5c5.2-4,5.7-8.6,5.1-14c-0.4-3.4-1.4-6.8-3.5-9.6c-1.5-2.1-1.7-3.6-0.2-5.8c2.7-3.7-0.8-8.7,2.5-12.3
				c-4.9-4.1-0.8-7.5,0.8-11.1c0.7-1.5,0.6-3-0.5-4.2c-1.6-1.5-1.1-3.4-1.5-5.2c-1-4.4-1.2-8.2,2-11.7c0.3-0.3,0-1.3-0.3-1.8
				c-2.4-4.1-0.9-6.8,2.8-9c3.1-1.8,5-4.9,4.5-8.2c-0.6-4.1-0.4-8.5-1.3-12c-2-7.4,0.9-12.6,3.8-18.6c1.7-3.7,4.7-7.3,3.9-12
				c1.3,0,2.7,0.1,4,0.1c0.3,2.1-1,5.4,2.2,5.6c3.2,0.2,7.3,0.7,8.8-3.8c5.3,0.3,10.5,0.5,15.8,0.8c3.9,1.6,8.1,1.2,12.1,1.7
				c10.2,1.3,20.3,3.3,30.3,5.8c0,11-1.2,21.9-2.5,32.8c-1.3,0.3-2.3,0.7-0.7,2c-0.1,1-0.2,2-0.3,3c-3-0.4-2.9,2.2-3.5,3.9
				c-0.9,2.5-2.8,3.4-5,2.9c-2-0.5-3.6-1.9-2.8-4.4c0.9-3-1.1-5.2-2.6-7.2c-1.8-2.4-3.2-4.6-2.8-7.6c0.1-1.2-0.1-2.4-1.4-3
				c-1.4-0.6-2.2,0.4-2.9,1.4c-1,1.6-2.3,2.1-4.2,2.1c-6.6,0.2-12.6,1.2-16.5,8c-1.9,3.3-2.3,7.1-4.5,10.3c-1.3,2,1.9,3.1,2.8,4.7
				c0.5,0.9,0.9,2.1,0.4,2.8c-2.2,2.6-0.4,5.8-1.4,8.5c-0.5,1.2-0.4,2,1.5,2.2c3.8,0.2,4.6,2.4,3.7,6.2c-0.9,3.8-1.1,7.9-1.2,11.8
				c0,3.6,2.9,7.1-0.2,10.8c-0.7,0.9,0.3,2.1,0.8,3.2c2.5,5.7,5.8,11.5,2.1,17.8c-1.4,2.5-1.8,4.8-1.1,7.4
				c1.7,6.8,1.7,13.4-1.7,19.7c-0.7,1.3-1,2.8-1.2,4.3c-0.2,1.4,0.4,2.7,2,2.9c1.7,0.2,1.8-1.1,1.9-2.3c0.1-0.9,0-2.2,1.5-2
				c1.1,0.2,1.4,1.3,1.5,2.4c0.2,1.8-1,3-1.7,4.5c-1.3,2.8-4.5,6,1.2,8.2c2.1,0.8,2.4,3.7,2.1,6.1c-0.6,3.8-1.1,7.5-1.6,11.3
				c-1.6,2.8-5.3,0.9-7.1,3.3C907.6,548.1,901.3,547,895,545.9z M873.3,471.4c-0.2,0.3-0.9,0.9-0.8,1.4c0.1,1.4,1.4,1.7,2.5,1.8
				c0.8,0,1-0.8,0.6-1.4C875.1,472.3,874.9,471.2,873.3,471.4z"/>
			<path class="st1" d="M886,361c0.8,4.7-2.2,8.3-3.9,12c-2.9,6-5.8,11.2-3.8,18.6c1,3.6,0.7,8,1.3,12c0.5,3.4-1.4,6.4-4.5,8.2
				c-3.7,2.2-5.2,4.9-2.8,9c0.3,0.5,0.5,1.5,0.3,1.8c-3.2,3.5-3,7.2-2,11.7c0.4,1.8-0.1,3.7,1.5,5.2c1.2,1.2,1.2,2.6,0.5,4.2
				c-1.6,3.6-5.6,7.1-0.8,11.1c-3.3,3.6,0.1,8.7-2.5,12.3c-1.6,2.1-1.4,3.7,0.2,5.8c2.1,2.8,3.1,6.2,3.5,9.6c0.6,5.4,0,10-5.1,14
				c-5.8,4.5-4.4,11.8-3.8,18.5c0.5,5.8,0.4,11.7,0.2,17.5c0,1.6,0.9,2.9,0.8,4.3c-9.4-1.5-18.8-3.3-28-5.9
				c-1.5-5.4-4-10.8-2.8-16.3c1.3-6,2.6-11.9,3.5-17.9c1-6.7,3.5-13.2,4.1-19.8c1.3-13.2,5.7-25.7,8.9-38.4
				c1.8-7.2,4.6-14.4,5.9-21.8c0.3-1.9,1-3.9-0.6-5.6c0-0.7,0-1.3,0-2c0.9-0.4,1.7-1.1,1.9-2.2c1.6-9.1,2-18.4,3.7-27.6
				c1.5-8.2,5.4-12.1,12.4-14.3c1.9-0.6,3.3-1.5,3-3.8C880,361.1,883,361.1,886,361z"/>
			<path class="st2" d="M871,538c0.6-1.1,1.7-2.2,1.9-3.4c0.8-4.3,3.4-5.8,7.4-5.6c1.6,0.1,3.7,0.4,3.6-2.2
				c-0.1-2.1-1.2-2.5-3.4-2.2c-2.8,0.4-6.6-4.9-6.2-8.1c0.4-2.8,1.2-5.5,1.1-8.3c0-1.6,0.6-1.8,1.6-2.4c3.8-2.5,3.9-4.9-0.1-7.5
				c-2-1.3-2.3-2.3-0.2-2.9c2.6-0.8,3.1-4,5.8-4.4c1-0.1,1.5-1.1,0.9-1.8c-2.3-2.7,0.6-7.3-3.8-9.4c-1.4-0.7-0.7-3.1-0.6-4.7
				c0.1-1.3,1.1-2.8,0.8-3.8c-2.3-6.5,0.4-13.5-2.1-20c-1.2-3.2,1.4-5.2,2.9-7.4c1.7-2.6,3.3-4.8,0.2-7.8c-1.1-1-1.9-3.8-1.3-5
				c2.2-4.6,1.5-9.1,0.6-13.8c-0.7-3.6,1.8-6.7,3.4-9.7c1.9-3.4,2.2-6.8,0.6-10c-2.9-6.2-0.7-12.3-0.1-18.5c0-0.5,0.4-1.3,0.5-1.3
				c4,0.2,6-3.7,9.3-4.5c3.3-0.8,7-0.8,8.9,3.4c1.1,2.4,2.5,3.5,4.8,0.7c1.7-2.1,3.9-1.8,5.3,0.6c1,1.6,3,2.8-0.3,4.9
				c-4.6,2.8-8.2,6.6-5.8,13.2c0.8,2.4-1.2,5-4.2,6c-1.5,0.5-4.3-0.6-4.2,1.5c0.3,3.4-3.6,5.9-1.5,9.4c0.7,1.1,1.4,2.3,0.8,3.8
				c-2.6,6.5,0.8,12.6,1.4,18.9c0.5,4.8,1.4,9.2-0.5,14c-1.3,3.4,1.5,7.5,0.3,11.3c-2.4,7.5-0.9,16.5-8.8,21.9
				c-1.8,1.2-1.7,3.1,1,3.3c3.1,0.2,3.1,2.1,2.8,4.1c-0.4,2-0.5,3.8,0,5.8c0.4,1.6,0,3.1-2.2,3.1c-2.8,0-3.1,1.4-1.9,3.6
				c0.9,1.7,1,3.5,1.4,5.3c0.4,2.1,2,4.4-2.3,3.6c-1.5-0.3-2,1.6-2.4,2.8c-0.5,1.4,0.6,1.5,1.6,1.8c2.3,0.6,2.3,1.7,0.6,3
				c-1.3,1-2.3,2.3-1.1,3.8c4.1,5.1,1.7,10.7,1.6,16.1c0,1-0.1,2-0.2,3C883.1,540.4,876.8,540.1,871,538z M899.6,384.9
				c1.8-0.7,1.8-2.6,2.2-4c0.4-1.5-0.6-2.7-2.2-2.6c-1.8,0.1-2.5,1.7-2.2,3.2C897.7,382.7,897.6,384.5,899.6,384.9z"/>
			<path class="st10" d="M825,528c-5.2-1.5-6.4-5.9-4.4-12.6c1.3-4.4,4.2-8,5.7-12.4c2.3-6.5,0.8-13.1,2.5-19.6
				c3.2-11.6,3.3-23.9,5.1-35.8c1.4-9.1,2.8-18.3,4.1-27.4c0.8-5.8-0.8-10.6-5.5-14.5c-2.7-2.2-6.2-4.2-5.6-8.7c0.7,0,1.3,0,2,0
				c0.6,3.2,2,5.5,5.6,4.5c2.4-0.6,2.9-3.7,4.6-4.8c3.6-2.4-1.1-4.1-0.4-5.9c3.1-0.8,3.9,3.6,6.7,2.6c4-1.5,7.7,0.7,7.2,4.9
				c-0.5,4.3-1.4,8.8-4.5,12.2c-1,1.1-1.7,2.3-1.1,3.5c1.2,2.6,0.1,4.9-0.7,7.2c-2.1,5.8-4,11.7-5.5,17.8c-3,12.7-3.9,25.6-6,38.4
				c-1.4,8.3-2.7,16.5-4.8,24.7C828.1,510.5,824.7,518.9,825,528z"/>
			<path class="st2" d="M825,528c-0.4-9.1,3-17.5,5.2-26.1c2-8.2,3.4-16.4,4.8-24.7c2.1-12.8,3-25.7,6-38.4
				c1.5-6.1,3.4-11.9,5.5-17.8c0.8-2.3,2-4.5,0.7-7.2c-0.6-1.3,0.2-2.4,1.1-3.5c3.1-3.4,3.9-7.9,4.5-12.2c0.5-4.1-3.2-6.3-7.2-4.9
				c-2.8,1-3.6-3.3-6.7-2.6c-0.8,1.9,4,3.6,0.4,5.9c-1.7,1.1-2.2,4.2-4.6,4.8c-3.6,1-5.1-1.3-5.6-4.5c2.2-0.1,4.1,3.5,6.2,1.4
				c1.8-1.8,0.7-4.7,0.6-7.1c0-0.8-0.6-1.5-0.9-2.3c0,0,0,0,0,0c5.3-1.6,8-5.9,11-10c6.5,1.4,8.8,4.3,9.1,10.6
				c0.3,6.5-1.3,13,0.9,19.4c0,0.7,0,1.3,0,2c-2.9,6.7-3.4,14-6.7,20.7c-3.1,6.2-3.9,13.6-5.9,20.4c-1,3.5-3.4,7.1-3.1,10.4
				c0.9,8.2-3.2,15.5-3.6,23.4c-0.3,5.6-1.2,11.5-2.7,16.8c-2.5,9-5,17.7-3.1,27.1C829,529.3,827,528.6,825,528z"/>
			<path class="st11" d="M825.9,369c0.1-3.9,0.2-7.9,0.3-11.8c2.6-1.7,3.1-6.8,7.9-5.1c2,1.8,5.1,0.9,7,3c0.3,1.7,0.7,3.3,1,5
				c-1.1,10-2.8,19.8-7,29c0,0,0,0,0,0c-2.4,2.3-5.2,1.8-8.1,1c-1.1-0.8-0.9-1.9-0.9-3c3-1.4,0.6-2.7,0-4
				C826,378.3,825.9,373.6,825.9,369z"/>
			<path class="st2" d="M779,519.1c-0.6,0-1.3,0-1.9,0c-1.1-0.1-2.3,0.1-3.1-1c2.1-10.8,3.9-21.5,4.6-32.5c0.6-10.3,1.2-20.7,3.1-31
				c2.1-11.6,1.6-23.7,3.3-35.4c0.3-2.4-0.3-5.2,3-6c0.4,0,0.7,0,1.1,0c0,1,0,2,0,3c-2.2,3.6-1.9,7.9-1.8,11.5
				c0.4,18-4.6,35.7-3.3,53.7c0.1,1.3-0.4,2.6-0.5,3.9c-0.4,4.8-1.2,9.5-1,14.3C782.7,506.3,782.6,512.9,779,519.1z"/>
			<path class="st6" d="M895,545.9c6.3,1.1,12.6,2.3,19,3.4c1.5,1.2,3.3,0.6,5,0.9c4.9,1.7,9.9,2.8,15.1,2.8
				c1.9,1.4,4.4,1.2,6.4,2.1c1.7,0.8-0.2,0.8-0.5,1.2c-9.4-0.7-18.8-2.3-28.1-3.9c-10.9-1.9-21.9-3.6-32.8-5.4c-2-0.4-4-0.7-6-1.1
				c-1-0.3-2-0.5-3-0.8c-8.6-1.8-17.3-3.5-25.9-5.3c-2.9-1.1-5.9-2.3-9.1-1.7c-3.6-1.4-7.1-2.7-11-3c-2.3-0.6-4.6-1.3-7-1.1
				c-6.3-1.7-12.7-3.3-19-5c0.4-1.1,1.4-1.2,2.2-1.5c23.8,4.7,47.6,9.4,71.4,13.9C879.4,542.9,887,545.4,895,545.9z"/>
			<path class="st11" d="M831,529.9c-1.9-9.4,0.6-18.1,3.1-27.1c1.5-5.3,2.4-11.2,2.7-16.8c0.4-8,4.4-15.2,3.6-23.4
				c-0.3-3.3,2.1-6.9,3.1-10.4c1.9-6.8,2.8-14.2,5.9-20.4c3.3-6.7,3.8-14,6.7-20.7c1.7,1.7,1,3.7,0.6,5.6
				c-1.3,7.5-4.1,14.6-5.9,21.8c-3.2,12.7-7.7,25.2-8.9,38.4c-0.6,6.7-3.2,13.2-4.1,19.8c-0.9,6.1-2.2,12-3.5,17.9
				c-1.2,5.6,1.3,11,2.8,16.3C835,530.6,833,530.3,831,529.9z"/>
			<path class="st10" d="M779,519.1c3.5-6.1,3.6-12.8,3.4-19.6c-0.2-4.7,0.6-9.5,1-14.3c0.1-1.3,0.6-2.6,0.5-3.9
				c-1.2-18,3.8-35.7,3.3-53.7c-0.1-3.6-0.4-7.9,1.8-11.5c4,2.3,1.8,6,1.7,8.9c-0.4,6.9-0.7,13.7-1.1,20.5
				c-0.6,10-1.4,20.1-2.1,30.1c-0.1,2.1-0.7,4.3-0.5,6.4c0.7,10.5-1.1,20.8-1.1,31.3C786,518,783,520.2,779,519.1z"/>
			<path class="st2" d="M784,352c-0.7-1.8-3.1-2.7-3-5c3.8,0.3,7.2,1.1,9,5c1.6,4.9,0.7,10.1,1,15.1c0,8.3,0,16.6,0,24.9
				c-3.1,2.1,0.3,5.8-2.1,8c-1.3-1-1-2.4-1-3.6c0-5.9,0.6-11.9-0.2-17.7c-0.7-5.5,0.8-11.6-2.8-16.6c-0.4-2.7,1-5.5-1-8
				C784,353.4,784,352.7,784,352z"/>
			<path class="st14" d="M778,525c-2.5-1.6-5.3-0.9-8-1c-2.2-1.4-4.8-0.9-7.2-1c-1.6-0.1-3.5,0.4-3.8-2c1.3-0.1,2-0.7,2-2
				c0.3,0,0.7,0,1,0c1.8,1.8,4,0.7,6,1c1,0.3,2,0.6,3,0.9c1.6-0.4,3.2-0.3,4.8,0.1c2.5,2.7,6.3,1.6,9.2,3.1c0,0.9,0,1.8,0,2.7
				c-1.3-0.3-2.7-0.6-4-0.9C780.3,524.8,779.1,525,778,525z"/>
			<path class="st1" d="M827,390.1c2.8,0.8,5.6,1.3,8.1-1c0.3,0.8,0.9,1.5,0.9,2.3c0,2.4,1.1,5.3-0.6,7.1c-2.1,2.1-4-1.5-6.2-1.4
				c-0.7,0-1.3,0-2,0c0-1.3,0-2.7,0-4c0.7-0.3,0.7-0.6,0-0.9C827,391.4,827,390.7,827,390.1z"/>
			<path class="st10" d="M789,400c2.4-2.2-1-5.9,2.1-8c2,6.1,0.8,12.3,0.6,18.4c-0.1,1.2-0.9,2.5-2.6,2.6c-0.4,0-0.7,0-1.1,0
				c0-0.7,0-1.3,0-2c2-2.5,0.6-5.3,1-8C789,402,789,401,789,400z"/>
			<path class="st4" d="M785.1,526.8c0-0.9,0-1.8,0-2.7c5,1.4,10.4,1.1,15.1,3.5c-0.8,0.4-1.9,0.5-2.2,1.5c-3.8,0.2-7.2-1.5-10.9-2
				C786.4,527,785.8,526.9,785.1,526.8z"/>
			<path class="st1" d="M775,341.6c5.3,0.4,10.6,0.9,15.9,1.3c1.5,0.1,3.1-0.1,3.2,2.1c-6.3-0.7-12.7-1.4-19-2.1
				C775.1,342.5,775.1,342.1,775,341.6z"/>
			<path class="st10" d="M775,341.6c0,0.4,0.1,0.9,0.1,1.3c-5.2-0.6-10.4-1.3-15.6-1.9c-1.4-0.2-3.1,0.4-3.5-1.8
				C762.4,339.8,768.8,340.1,775,341.6z"/>
			<path class="st10" d="M791.1,367.1c-0.3-5,0.6-10.1-1-15.1C793.9,355.4,794.4,363.7,791.1,367.1z"/>
			<path class="st10" d="M775.9,521c-1.6-0.5-3.2-0.5-4.8-0.1c0-1,0-1.9,0-2.9c1,0,2,0,3,0c0.8,1.1,2,0.9,3.1,1
				C777,519.9,776.8,520.7,775.9,521z"/>
			<path class="st10" d="M826,383c0.6,1.3,3,2.7,0,4C824.6,385.7,824.6,384.4,826,383z"/>
			<path class="st10" d="M827,392.1c0.7,0.3,0.7,0.6,0,0.9C827,392.7,827,392.4,827,392.1z"/>
			<path class="st1" d="M774,518.1c-1,0-2,0-3,0c-1.5,0-2.9-0.1-3,2c-2-0.3-4.3,0.8-6-1c-6.6-6.2-6.8-13.1-3.6-21.2
				c1.6-4.2,1.5-9.2-0.4-13.6c-1-2.3-1.1-4.2,0.8-5.9c5.7-5,5.5-11.8,4.9-18.3c-0.3-3.4-0.2-7.4-3.1-10.3c-0.5-0.5-0.6-1.7-0.4-2.4
				c2.4-7.7,3.2-15.7,6.2-23.2c0.5-1.1,1-2.3,0.4-3.3c-4-7,0.9-13.4,1.2-20.1c0-0.8,1.2-1.7,0.9-2.7c-3-8.5,0.6-15.3,5.4-21.8
				c0.2-0.3,0.5-0.6,0.5-0.8c0.1-7.1,5.1-10.3,10.3-13.4c3.6,5.1,2.1,11.1,2.8,16.6c0.8,5.8,0.2,11.8,0.2,17.7c0,1.3-0.3,2.7,1,3.6
				c0,1,0,2,0,3c-2.6,2.4-4,4.9-1,8c0,0.7,0,1.3,0,2c-3.3,0.9-2.7,3.6-3,6c-1.7,11.8-1.3,23.8-3.3,35.4c-1.8,10.3-2.4,20.7-3.1,31
				C777.9,496.5,776.1,507.3,774,518.1z"/>
			<path class="st1" d="M784,352c0,0.7,0,1.3,0,2c-0.7-0.1-1.7-0.1-1.5-1.2C782.6,352.5,783.5,352.3,784,352z"/>
			<path class="st12" d="M811.5,339.2c6.1-1.5,3-5.2,3.4-7.9c0.1-1-1.5-2.3,0.4-2.9c1.5-0.4,1.7,1.2,2.4,2.1c1.8,2.6,1,5.8,2,8.6
				c0.5,1.5-0.8,2.1-2.1,1.9C815.9,340.6,814.3,340,811.5,339.2z"/>
			<path class="st12" d="M812.3,326.1c-1.4-0.2-3.2,0.3-3-1.8c0.1-1.3,1-1.9,2.3-2.1c2.7-0.4,1.3,2.2,2,3.2
				C814.7,327,812.3,325,812.3,326.1z"/>
			<path class="st14" d="M1074,622c-1.1,0.1-1.8,0.6-2.1,1.8c-0.6,2.9-1.9,4.9-5.4,4.3c-1.3-0.2-2.2,0.5-2.9,1.5c-1,1.5-2.8,2-4,1.3
				c-4.1-2.4-9.2-1-13.1-3.9c-2.7-2-6.1-0.8-9.3-0.9c-8.5-0.1-17-0.6-25.4,0.1c-8.7,0.8-17.3,0.3-25.9-0.2
				c-4.8-0.3-7.9,3.1-11.7,4.9c-2.5,1.2,0,7.1,3.4,8c4.2,1.1,8.5,2,12.9,4c-2.3,2-5.1-0.1-6.7,2.1c-3.5,0-6.7-1.2-10-2.2
				c-2.2-2.4-4.5-4.5-8-2c-10.7-2-21.5-4-32.2-6.1c-6.3-1.2-12.6-2.7-18.9-4c-1.6-5.1-6.6-5.2-10.4-6.3c-3.7-1-7.6-1.3-11.4-2.6
				c-6-2.1-12.4-3-18.7-4c-6.3-1-12.4-2.8-18.6-4.3c-3.5-0.8-7.5-0.9-11.3-1.4c-2.7-0.3-3.8-1.9-4.4-4.1c-0.5-2-0.1-3.7,1.9-5.2
				c3-2.3,7.1-3.7,8.2-8.1c0.4-1.5,1.5-1.4,3.1-0.5c3.9,2.3,7.2,5.7,11.9,6.7c3.8,0.8,8.3,0.1,11.3,3.7c0.1,0.1,0.4,0.1,0.5,0
				c6.2-4.9,12,0.5,18,1c8.3,0.7,16.1,4,23.9,6.8c2.9,1,5.9,0.3,8.9,0.5c3.7,0.3,7.4,0.3,8.4,5.2c0.2,1.2,1.5,2.2,2.7,1.6
				c6.4-3,12-0.3,17.2,2.6c3.2,1.8,5.4,1.6,8-0.5c1.7-1.3,3.7-2.4,5.1-3.9c1.7-1.8,3.1-1.7,5.3-0.8c3.7,1.4,7.3,1.6,10.5-1.7
				c2.3-2.5,5.3-3.1,9-2.7c5.9,0.7,11.9,0.3,17.8-1.2c4.9-1.2,9.9-1.3,14.5,1.4c1.3,0.8,2.4,1.1,3.7,0.4c4-2,7.6-0.7,11.4,0.7
				c3.6,1.3,7.2,1,11.1-0.1c5-1.5,10.4-2,15.6-2.8c0.3,0,0.9,0.1,0.9,0.2C1069.3,615.6,1075.2,617.2,1074,622z"/>
			<path class="st15" d="M966,640.7c3.5-2.5,5.8-0.4,8,2C971.3,642.1,968.4,642.4,966,640.7z"/>
			<path class="st11" d="M873,545.9c2,0.4,4,0.7,6,1.1c0.5,5.5,6.1,6.7,8.8,10.3c1.6,2.2,3.3,3.7,5-0.3c1.2-2.7,4.4-2.4,6.7-1.7
				c4.8,1.4,10.3-1.8,14.6,2.6c0.3,0.3,1.8-0.5,2.7-0.7c3.3-0.9,8.6-0.4,9.4,0.6c2.6,2.9,5.4,3.4,8.6,3.9c3,0.4,4.1,2.5,4.7,5
				c0.6,2.4,1.8,3.3,3.8,1.4c3-2.8,5.8-2.4,9-0.3c3.3,2.2,7.4,2.2,10.6,0.8c2.5-1,7.4-0.3,7-5.4c9,1.7,18.1,2.6,27,4.9
				c2.1,3.8,4.1,4.1,7,1c5.1,0.8,9.8,3.5,15.1,2.9c0.3,0.3,0.6,0.6,1,0.9c0.1,1.5-0.3,3.2,0.3,4.4c3,6.2-1.4,10.9-5.1,13
				c-3.5,1.9-9,3.1-13.3,2.2c-2.8-0.6-3.5-5.2-3.4-8.4c0.2-4.4-3.8-3.9-5.8-5.3c-1.7-1.2-3.3,0.6-4.2,2.3c-0.6,1.2-1.2,2.4-1.5,3.7
				c-0.7,3.5-2.3,4.5-5,1.9c-2.1-2-3.8-1.6-5.5,0.4c-1.9,2.1-4.4,3.2-6.6,1.4c-3.8-3.2-7.5-2.1-11.2-0.5c-3.1,1.3-6,1.7-9.1,0.4
				c-5-2.2-11.2-0.1-15.7-4.5c-0.8-0.8-1.9-0.2-2.8,0.3c-0.7,0.4-1.7,1.1-2.3,0.9c-6.2-2.4-10.7,2.4-16,3.8
				c-5.8,1.5-12.5-4.4-11.5-10.3c0.3-1.9-3.8-10.4-5.4-10.9c-1.2-0.4-1.8,0.4-2,1.5c-0.3,2.7-1.7,3.6-4,2.1c-2.6-1.7-4.3-0.4-6,1.6
				c-1.9,2.2-0.3,3.4,1.2,4.9c1.3,1.3,1,3.1,0,4.6c-0.9,1.4-2,2-3.8,1.3c-2.9-1.1-7,1.1-8.5-3.9c-0.4-1.3-3.2-0.1-4.4,0.9
				c-2.9,2.3-4.7,1.3-5.4-1.8c-0.8-3.8-3.5-4.8-6.7-5.5c-1-0.2-2.1-0.1-2.8-0.6c-1.1-0.8-2-1.9-3.5-0.8c-1.6,1.2-0.5,2.3,0.2,3.4
				c1.2,1.9,0.1,3.1-1.2,4.2c-1.6,1.3-2.6,0.3-3.6-1c-1.6-2.2-3.6-3.9-6.5-4.2c0.6-5.2,1-10.5,1.8-15.7c0.5-3.3-1.1-6.5,0.2-9.8
				c1.1-2.9,2.1-5.9,3.1-8.8c8.6,1.8,17.3,3.5,25.9,5.3c0.1,1.2,0.4,2.4,1.8,2.5C872.9,547.7,872.9,546.6,873,545.9z M852.8,564.4
				c-0.1,0.3-0.4,0.6-0.3,0.8c0.1,0.2,0.5,0.3,0.8,0.4c0.1-0.3,0.4-0.6,0.3-0.8C853.5,564.5,853,564.5,852.8,564.4z"/>
			<path class="st15" d="M1045.9,575c10.2,1.2,20.1,3.8,30.1,5.9c0,1.9-0.6,3.5-2.9,3c-9.1-2.1-18.5-2.5-27.3-6
				C1045.9,576.9,1045.9,576,1045.9,575z"/>
			<path class="st6" d="M1045.9,575c0,1,0,1.9,0,2.9c-8.6-1.7-17.3-3.4-25.9-5.1c-0.3-0.3-0.6-0.6-1-0.9c0.3-1,0.6-1.9,0.9-2.9
				C1028.6,571.3,1037.1,573.8,1045.9,575z"/>
			<path class="st14" d="M1076.9,607c-0.3,2.7-0.7,5.3-1,8c-1.6-0.2-3.6-1.7-2.7-2.5C1075.2,610.9,1072.9,606.8,1076.9,607z"/>
			<path class="st12" d="M787.1,527.1c3.7,0.5,7.1,2.2,10.9,2c6.3,1.7,12.7,3.3,19,5c-2.5,8.8-3.7,17.9-2.9,27
				c0.9,9.5-2.9,18.4-3.2,27.7c0,1.1-0.8,2.2-1.5,3.1c-2.6,3.3-3.9,6.8-2.4,11c-8.1-1.4-16.1-3.5-23.9-6c-1.9-9.6,0.3-19.2,0.6-28.8
				C784.2,554.4,787,540.9,787.1,527.1z"/>
			<path class="st9" d="M807,602.9c-1.5-4.2-0.2-7.7,2.4-11c0.7-0.9,1.4-2.1,1.5-3.1c0.3-9.3,4.1-18.2,3.2-27.7
				c-0.8-9.2,0.4-18.2,2.9-27c2.4-0.3,4.7,0.4,7,1.1c0.4,4.5-3.5,7.6-3.4,12.2c0.2,7.6,0.2,15.3,0,22.8c-0.2,7.5,1.3,15.8-4.5,22.3
				c-1.6,1.8-2.9,4.3-2.7,6.3C814.4,605.5,810.9,604.2,807,602.9z"/>
			<path class="st9" d="M787.1,527.1c-0.1,13.8-2.9,27.3-3.4,41c-0.3,9.6-2.5,19.2-0.6,28.8c-5.4-0.9-7.7-5.6-7.1-13.1
				c1.1-12.5,1.6-25,3.2-37.5c0.8-6.8,1.3-13.6,1.8-20.4c1.3,0.3,2.7,0.6,4,0.9C785.8,526.9,786.4,527,787.1,527.1z"/>
			<path class="st11" d="M1088.2,431c-4.4-0.6-5.1-4-5.6-7.6c-4.5,1.9-5.6,5.4-3,9.4c0.4,0.7,1.3,1.1,0.8,2c-0.6,1-1.6,1.4-2.6,0.9
				c-3.2-1.5-3.9,0.5-4.9,2.9c-1.6,4-4.2,7.5-4,12.1c0.1,2.1-1.5,2-3.1,2.4c-4,0.9-6.8,2.5-5.1,7.5c0.9,2.6,1.3,5.5-1.5,8.1
				c-2,1.8-3,4.7-4.2,7.3c-1.4,3.3-2.1,6.2-0.7,10.2c1.7,5.1,0.5,11.1,1.1,16.7c0.4,3.7-1.2,7.4-0.1,11.1c0.7,2.2-1,3.9-2.2,4.7
				c-5.7,3.6-7,11.1-13.4,14.4c-2.9,1.5-2.6,6.9-5.7,9.7c-1,0.9-2,2.8-3.1,4.2c-1.2,1.4-2.1,3.5-4.2,2.7c-2.3-0.8-3.2-3.2-2.8-5.3
				c1.1-5.5-2.1-10.5-1.3-15.9c0.2-1.3-0.9-1.9-2.2-2.4c-3-1.1-5-6.2-3.5-8.8c0.4-0.7,1-1.1,1.6-0.7c4.5,3,3.9-1,4.7-3.2
				c1.7-5.2,3-10.4,0.4-15.8c-1.4-2.9,0.4-5.7,2-7.8c7.3-9.8,4.7-19.8,0.1-29.4c-2.6-5.3-2.4-10.4-1.5-15.5
				c1.6-8.8,1.4-16.8-5.4-23.6c-1.7-1.7-1.8-4.8,1.2-4.7c5.1,0.2,5.6-3.5,6.6-6.5c1.6-4.6,1.8-9.6,1-14.3c-1-5.5,1.1-9.2,4.7-12.7
				c0.9-0.8,1.5-1.8,1.5-3c6.4,0.5,12.7,2,19.2,2.2c6.2,0.2,12.4,1.8,18.7,2.2c5.9,0.4,11.8,2.9,17.9,0.7c-0.7-0.1-1.3-0.2-2-0.2
				c-0.3-3.6-4.4-2.8-5.9-5.2c0.5-6.3,6-7.9,10.2-10.7c0.3,5.7,2.1,11.5,0,17.2c-0.9,1.1-1.1,2.4-1.2,3.8c-6.3,3.6-4.6,10-4.6,15.3
				c0,2.8-1.2,7.1,3.1,8.9C1089.4,419.8,1089,425.4,1088.2,431z"/>
			<path class="st9" d="M1092.1,369c-4.2,2.8-9.7,4.4-10.2,10.7c-1.8-1.2-3.7-2.3-5.5-3.5c2.7,0,4-2.1,5.6-3.7c2.8-2.8,6-4.5,10-4.5
				c0,0,0.2,0.2,0.2,0.2C1092.1,368.4,1092.1,368.7,1092.1,369z"/>
			<path class="st1" d="M1084.1,490.1c-2.4-6.3-4.4-13.1-3.7-19.6c0.5-4.2,0.6-10.2,6.3-12.5
				C1086.1,468.7,1085.9,479.4,1084.1,490.1z"/>
			<path class="st10" d="M1089.4,414.2c-4.3-1.8-3.1-6.1-3.1-8.9c0-5.3-1.6-11.7,4.6-15.3c0,1,0,2,0,3c-2.6,1.6-3.8,3.5-1.7,6.5
				c0.7,1,0.7,2.5,1,3.7C1089.9,406.9,1089.6,410.5,1089.4,414.2z"/>
			<path class="st14" d="M1090.2,403.3c-0.3-1.3-0.3-2.7-1-3.7c-2-3-0.9-4.9,1.7-6.5C1091,396.5,1091.4,399.9,1090.2,403.3z"/>
			<path class="st1" d="M1083.1,503.1c-1.6-1.1-1-1.7,0.5-2.1C1083.8,501.8,1083.8,502.5,1083.1,503.1z"/>
			<path class="st5" d="M1079.7,550.9c0-0.2-0.1-0.4-0.1-0.7c0-0.1,0.2-0.2,0.3-0.3C1079.8,550.2,1079.7,550.5,1079.7,550.9z"/>
			<path class="st2" d="M1092,368c-4,0-7.2,1.8-10,4.5c-1.6,1.6-2.9,3.7-5.6,3.7c-4.2-2.3-8.4-4.6-12.6-7c9-1.1,18.1-2.1,27.1-3.2
				C1092.6,366,1092.5,366.8,1092,368z"/>
			<path class="st9" d="M1091,366c-9,1.1-18.1,2.1-27.1,3.2c-0.9-0.4-1.7-0.9-2-2l0.1-0.2c6.1,0.1,12-0.8,18-1.7
				c3.7-0.2,7.3-0.4,11-0.6C1090.9,365.2,1090.9,365.6,1091,366z"/>
			<path class="st11" d="M999,375c0.7-1.2,1.8-1,2.9-1c3.5-0.2,7,0.2,10.2,1.9c-2.8,10.3-1.2,21.1,0.7,30.9
				c1.6,8.5-3.1,13.4-4.9,19.8c-2.1,7.5-1.4,15.1-2.8,22.6c-0.8,4.4-2,8.5-4,12.6c-1.8,3.7-3.2,8.6-1.5,12.4
				c2.3,5.3,0.4,11,2.4,16.1c0.5,1.3-0.1,2.7-1.4,3.9c-3.4,3.3-3.3,6.3,0.1,9.7c5.4,5.4,5.6,8.3,0.9,13.8c-1,1.2-2.3,2.5-1,3.9
				c2,2.1,1.1,4.7,0.2,6c-5.1,6.4-2.2,13.7-2.7,20.5c-0.2,2.7,0.1,5.3-1.9,7.5c-2,2.3,0.4,4.8-0.2,7.2c-3.3-0.4-6.7-0.7-10-1.1
				c-0.4-4.4,0.9-9-1.6-13.2c-0.8-1.4,0.2-2.4,0.9-3.6c5.2-9.2,8.1-19.1,8.7-29.6c0.2-3.1,2.2-6.4,0.8-9.3c-2.1-4-1.9-8-2.6-12.2
				c-1.3-8.3,0.8-16.1,1.4-24.1c0.6-8.7,2.1-17.3,3.2-25.9c1.5-11.7-0.1-23.5,4.8-35.1C1006.1,397.9,1003.4,386.1,999,375z"/>
			<path class="st15" d="M986,561.8c3.3,0.4,6.7,0.7,10,1.1c8,2,16,4.1,24,6.1c-0.3,1-0.6,1.9-0.9,2.9c-5.3,0.6-10-2.1-15.1-2.9
				c-2.2-1.4-4.6-1-7-1c-8.9-2.3-18-3.3-27-4.9c-2.6-0.4-4.8-2.1-7.5-2.2c-6.7-0.3-13.1-2.8-19.9-2.9c-1.3,0-2.3-0.3-2.6-1.7
				c0.3-0.4,2.2-0.4,0.5-1.2c-2-0.9-4.5-0.7-6.4-2.1c0,0,0,0,0,0c12.8,0.8,25.3,4.1,38,5.4C976.2,561.6,981.5,560.3,986,561.8z"/>
			<path class="st9" d="M1012,375.9c-3.2-1.6-6.6-2-10.2-1.9c0.4-0.4,0.8-0.8,1.2-1.2c2.6,0.1,5.2,0.2,7.8,0.3
				c0.4,0.2,0.7,0.4,1.1,0.7c2,0.1,4,0.2,6,0.4c0.6,0.3,1.2,0.7,1.8,0.8c11.1,1.7,22.2,3.4,33.3,5c11.1,1.6,22.2,3.1,33.3,4.7
				c0.5,0.1,1,0.2,1.5,0.2c0.7,0.1,1.3,0.2,2,0.2c-6,2.1-11.9-0.3-17.9-0.7c-6.3-0.4-12.4-2-18.7-2.2c-6.5-0.2-12.8-1.7-19.2-2.2
				C1026.8,378,1019.5,376.4,1012,375.9z"/>
			<path class="st2" d="M1086.3,384.6c-11.1-1.6-22.2-3.1-33.3-4.7c-11.1-1.6-22.2-3.3-33.3-5c-0.6-0.1-1.2-0.5-1.8-0.8
				c0-0.3,0-0.6,0-1c1-0.1,2-0.2,3-0.3c0.3,0,0.7,0.1,1,0.1c2.4,0.6,4.8,1.1,7.2,1.7c5.6,0.8,11.2,1.6,16.8,2.4
				c1.6,1.3,3.4,0.7,5.1,0.6c1.7,0.2,3.3,0.4,5,0.6c1.2,1,2.6,0.6,3.9,0.7c7.7,1.9,15.6,3,23.4,4
				C1084.8,382.8,1085.4,383.9,1086.3,384.6z"/>
			<path class="st12" d="M1059.9,379.1c-1.3-0.1-2.7,0.3-3.9-0.7c-1.9-4.8-0.9-9.6,0.3-14.5c1.4,3.1,3.8,0.7,5.8,1.2
				c-0.1,0.6-0.1,1.3-0.2,1.9c0,0-0.1,0.2-0.1,0.2c-0.9-0.2-1.8-0.2-2.5,0.5C1057.4,371.6,1059.1,375.3,1059.9,379.1z"/>
			<path class="st12" d="M1051.1,377.8c-1.7,0-3.5,0.7-5.1-0.6c0.5-0.4,1-0.8,1.4-1.2c2.8-1.4,4.5-7.2,3-10.7
				c-0.5-1-1.5-1.8-1.3-3.1c2.2,0.7,1.5-4,3.9-2.2c1.8,1.3,1.1,3.6,0.7,5.5C1052.9,369.6,1051.1,373.5,1051.1,377.8z"/>
			<path class="st12" d="M1079.3,362.5c-3.7,0-7.1-0.9-10-3.2c-0.9-0.7-2.5-1.2-1.7-2.5c0.8-1.4,2.3-0.7,3.5-0.1
				C1074.1,358.2,1076.2,361.1,1079.3,362.5z"/>
			<path class="st4" d="M1061.9,367c0.1-0.6,0.1-1.3,0.2-1.9c6-0.3,11.9-0.7,17.9-1c0,0.4-0.1,0.8-0.1,1.2
				C1073.9,366.2,1068,367.1,1061.9,367z"/>
			<path class="st8" d="M1022,373.1c-0.3,0-0.7-0.1-1-0.1c0-0.3,0-0.5,0-0.8c3.3-4.3,3.7-9.7,5.1-14.7c0.7-2.3,0.8-5.1,3.9-5.7
				c2.3,0.2,4.5,0.3,6.8,0.5c0,0.5,0,1,0,1.6c-4.6,1.5-7.4,7.5-6.6,14.2C1028.3,370.9,1024.5,370.9,1022,373.1z"/>
			<path class="st4" d="M1030.2,367.9c-0.8-6.7,2-12.7,6.6-14.2c2.5,3.3,4.2,6.7,0.4,10.4c-1,0.9-1.6,2-1.4,3.5
				C1034,367.7,1032.2,369.5,1030.2,367.9z"/>
			<path class="st12" d="M1030.2,367.9c2,1.6,3.8-0.2,5.7-0.4c1.9,1,3.5-0.4,5.3-0.6c5.4-0.4,7.3,1.7,6.1,7.1
				c-1.7-4.3-4.7-4.7-8.9-3.6c-3.4,0.9-6.2,2.8-9.3,4.3c-2.4-0.6-4.8-1.1-7.2-1.7C1024.5,370.9,1028.3,370.9,1030.2,367.9z"/>
			<path class="st8" d="M1029.2,374.8c3-1.5,5.8-3.4,9.3-4.3c4.2-1.1,7.2-0.8,8.9,3.6c0,0.6,0,1.3,0,1.9c-0.5,0.4-0.9,0.8-1.4,1.2
				C1040.3,376.4,1034.8,375.6,1029.2,374.8z"/>
			<path class="st8" d="M1014.1,350.2c3.5,1.1,7.2,0.7,10.8,0.9c-1,7-1.4,14.3-8,19c-1.3,0.7-2.7,1.4-4,2c-0.2-0.3-0.3-0.6-0.5-0.9
				C1013.5,364.3,1012.7,357.1,1014.1,350.2z"/>
			<path class="st9" d="M1016.9,370.1c6.6-4.7,7-11.9,8-19c1.7,0,3.5-0.4,5.2,0.6c-3.1,0.6-3.3,3.4-3.9,5.7
				c-1.4,5-1.8,10.4-5.1,14.7C1019.5,371.8,1017.3,372.7,1016.9,370.1z"/>
			<path class="st12" d="M1008.1,360.9c2-3.4,1.7-7.2,1.9-10.9c0.6,0,1.3,0.1,1.9,0.1c-1,4-0.8,8.1-1,12.1c-0.1,3,0.5,6.1-0.6,9
				c-3,2.4-1.8-2-3.2-2C1007.5,366.5,1007.8,363.7,1008.1,360.9z"/>
			<path class="st10" d="M1010.4,371.2c1.2-2.9,0.5-6,0.6-9c0.2-4.1,0-8.1,1-12.1c0.7,0,1.5,0.1,2.2,0.1c-1.4,6.9-0.6,14.1-1.7,21
				C1011.8,371.2,1011.1,371.2,1010.4,371.2z"/>
			<path class="st9" d="M971,342.1c0.1,0.8,0.1,1.7,0.2,2.5c-0.7,0.5-1.1,1.2-1,2.1c-0.9,0.5-1.2,1.4-1.2,2.4c0,0.8-0.1,1.5-0.1,2.3
				c-0.6,0.2-1.2,0.5-1.8,0.7c0-1.7-0.1-3.3-0.1-5c-0.2-8,1.2-16,0.2-24.2c-0.8-7-0.3-14.1-0.4-21.1c0.4-0.6,0.8-1.2,1.3-1.8l0.5,0
				l0.5-0.1c1.8,3.2,1.7,6.7,1.7,10.1C971,320.8,971,331.4,971,342.1z"/>
			<path class="st13" d="M968.1,300.1c-0.4,0.6-0.8,1.2-1.3,1.8c-0.3-0.3-0.6-0.5-0.9-0.8c-1.5-3.6-1.6-7.7-3.9-11
				c-0.6-1.8-1.2-3.5-1.8-5.3c0.1-2.2-0.9-4.1-1.8-6.1c-3.3-7-7.5-13.5-12.3-19.5c4.6-0.1,5.6,4.2,7.9,6.7c1.9,2.1,2.8,2,4.4,0.2
				c-0.3,7.8,5.8,13.6,6.5,21.1c0.2,2.2,1.4,4,1.8,6.1C965,296,967,298,968.1,300.1z"/>
			<path class="st10" d="M958.4,266.1c-1.6,1.8-2.5,1.9-4.4-0.2c-2.3-2.5-3.3-6.8-7.9-6.7c-1.6-1-0.8-2.7-1.2-4.1
				c1.9,2.1,3.1,2.2,3.2-1.1C953,256.7,955.3,261.7,958.4,266.1z"/>
			<path class="st1" d="M911,234.7c6.7,1,13.3,2.6,19.2,6.2c-0.2,0.3-0.4,0.5-0.6,0.8c-6.1-2.3-12.3-4.2-18.6-5.6
				C911,235.6,911,235.1,911,234.7z"/>
			<path class="st4" d="M948.1,253.9c0,3.3-1.2,3.2-3.2,1.1c-1.3-0.8-2.6-1.6-2.7-3.4c0.4,0,0.8-0.1,1.2-0.1
				c-0.1-0.9-0.7-1.2-1.5-1.5c0,0,0,0,0,0c-0.4-0.6-0.8-1.2-1.2-1.8c0.2-0.2,0.4-0.5,0.7-0.7c2.1,1.3,4.3,2.6,5.5,4.9
				c0.1,0.7,0.3,1.3,1.1,1.5L948.1,253.9z"/>
			<path class="st4" d="M968.1,300.1c-1.1-2.2-3.1-4.2-1.3-6.9c0.9,0.4,1.3,0.1,2.4-2.6c-0.9,4,2.1,6.6-0.2,9.4c0,0-0.5,0.1-0.5,0.1
				L968.1,300.1z"/>
			<path class="st1" d="M930.2,240.9c1.5,0.3,3,0.6,4,2c0,0-0.3,0.4-0.3,0.4c-1.7,0.3-3-0.7-4.3-1.6
				C929.8,241.4,930,241.1,930.2,240.9z"/>
			<path class="st15" d="M998.9,281.1c-0.1,1.5,0.7,3.5-1.7,3.9c0-0.3-0.1-0.7-0.1-1C997.7,283.1,998.3,282.1,998.9,281.1z"/>
			<path class="st1" d="M934.2,242.9c1.3,0.2,2.5,0.6,3.2,1.8c-0.2,0.2-0.4,0.4-0.6,0.6c-1.2-0.3-2.4-0.7-2.9-2.1L934.2,242.9z"/>
			<path class="st4" d="M938.4,245.9c1.5-0.2,2.3,0.7,3.1,1.7c-0.2,0.2-0.4,0.5-0.7,0.7c-1.2-0.4-2.4-0.9-2.8-2.2L938.4,245.9z"/>
			<path class="st1" d="M937.4,244.7c0.4,0.4,0.7,0.8,1.1,1.2c0,0-0.4,0.2-0.4,0.2c-0.4-0.2-0.8-0.5-1.2-0.7
				C937,245.1,937.2,244.9,937.4,244.7z"/>
			<path class="st11" d="M911,234.7c0,0.4,0,0.9,0,1.3c-0.3,0-0.7,0-1,0.1c0-0.4,0.1-0.7,0.1-1.1C910.4,234.9,910.7,234.8,911,234.7
				z"/>
			<path class="st10" d="M948.1,254c-0.8-0.2-1-0.8-1.1-1.5C947.6,252.8,948.2,253.2,948.1,254z"/>
			<path class="st0" d="M893.8,239.7c6.8,1.1,13.5,2.2,20.3,3.4c11.7,3.4,21.9,9.1,30,18.4c6.1,7,10,15.2,13.5,23.6
				c2.5,9.5,3.3,19.3,4.5,29c-0.1,8.3-0.2,16.6-0.2,24.9c-1.5,1-3.8-0.1-5.1,1.8c-0.7-0.7-1.4-0.8-2.3-0.4c-2.4-1.1-4.7-3.2-7.3-0.5
				c-1.1-0.5-2.2-0.9-3.3-1.4c-4.9-1.8-9.9-1.8-15-1.9c-0.5,0-1,0-1.5-0.1c-2.5-2.3-5.9,0.9-8.4-1.4c-0.8-0.2-1.7-0.3-2.5-0.5
				c-0.5-0.1-1-0.2-1.6-0.3c-1.7-0.3-3.3-1.2-5.1-0.7c-0.6-0.1-1.3-0.1-1.9-0.2c-1.2-0.8-2.6-1.2-4.1-0.8c-0.6-0.1-1.3-0.2-1.9-0.3
				c-1-0.6-2-1-3.1-0.7c-0.6-0.1-1.3-0.2-1.9-0.3c-5.9-2.3-12.3-2.4-18.3-4.1c-1.2-8.4-2.4-16.7-3.6-25.1c0.2-6.5,0.8-12.9,0.4-19.4
				c-0.8-15.7,4.1-29.4,13.4-41.7c0.4-0.3,0.7-0.7,1.1-1C891.2,239.9,892.5,239.8,893.8,239.7z"/>
			<path class="st11" d="M888.9,241c-9.4,12.3-14.3,26-13.4,41.7c0.3,6.4-0.3,12.9-0.4,19.4c-3-2.6-1.7-6.2-2-9.3
				c-0.8-12.7,1.6-25,4.9-37.2c0,0,0-0.2,0-0.2c0-0.7,0-1.3-0.1-2c1-0.9,1.2-2,1.2-3.3c0.3-0.3,0.7-0.7,1-1c0.1-0.2,0.2-0.4,0.4-0.6
				c-0.2,0.1-0.4,0.3-0.5,0.4c-0.3,0.3-0.7,0.7-1,1c-0.3,0-0.6,0.1-0.8,0.1c-0.7-1.3-1.6,0-2.4-0.2c2.2-3.5,6-6.1,7.2-10.8
				c-2.3,0.2-4,0.3-5.8,0.4c0-0.4,0-0.9,0-1.3c4.6,0,9.1-0.1,13.7-0.1c1.2,0,2.8-0.5,2.9,1.6c-1.3,0.1-2.5,0.2-3.8,0.3
				C889.6,240.3,889.3,240.7,888.9,241z M882.9,245.3c-0.2-0.3-0.4-0.5-0.6-0.7c-0.3,0.3-0.8,0.6-1,1c-0.2,0.5,0,1,0.7,0.7
				C882.4,246.2,882.6,245.7,882.9,245.3z M884.5,241.6c-0.1,0.2-0.3,0.4-0.3,0.7c0,0.1,0.2,0.2,0.3,0.3c0.1-0.2,0.3-0.4,0.3-0.7
				C884.8,241.8,884.6,241.7,884.5,241.6z"/>
			<path class="st15" d="M957.6,285.1c-3.6-8.4-7.4-16.6-13.5-23.6c-8.1-9.3-18.4-15-30-18.4c0.3-0.6,0.5-1.2,0.8-1.8
				c5.7,0.8,10.6,3.7,15.7,6.1c2.1,1,4.1,2.3,6.6,1.7c0,0-0.1,0-0.1,0c0.5,1.1,1.6,1,2.6,1c0.8,0,1.6,0,2.5,0c0,0,0,0,0,0
				c0.1,0.5,0.2,1,0.3,1.6c0.1,1.8,1.3,2.6,2.7,3.4c0.3,1.4-0.5,3.1,1.2,4.1c4.9,6,9,12.5,12.3,19.5c0.9,1.9,1.9,3.8,1.8,6.1
				C959.4,284.9,958.5,285,957.6,285.1z M942.8,256.1c-0.1-0.1-0.1-0.3-0.2-0.3c-0.1,0-0.2,0.1-0.3,0.2c0.1,0.2,0.2,0.3,0.4,0.5
				C942.7,256.3,942.7,256.2,942.8,256.1z"/>
			<path class="st4" d="M877.1,238.2c0,0.4,0,0.9,0,1.3c-7.1,1.4-14.1,3-20.1,7.3c-0.3-0.3-0.6-0.5-0.9-0.8
				c3.9-4.6,9.5-5.5,14.8-6.9C872.9,238.7,875,238.5,877.1,238.2z"/>
			<path class="st2" d="M850.7,254c-0.3-0.4-0.6-0.8-0.9-1.2c1.8-2.3,2.3-5.9,6.3-5.6c0,0,0,0,0,0
				C854.2,249.4,853.1,252.2,850.7,254z"/>
			<path class="st2" d="M856,246.1c0.3,0.3,0.6,0.5,0.9,0.8c-0.3,0.2-0.5,0.3-0.9,0.3c0,0,0,0,0,0C856.1,246.8,856,246.4,856,246.1z
				"/>
			<path class="st5" d="M942,250.1c-0.8,0-1.6,0-2.5,0c-0.6-1-1.6-1-2.6-1c0,0,0.1,0,0.1,0c-6.5-6.6-15.5-7.9-23.7-10.9
				c-1.7-0.6-3.5-0.9-5.3-1.3c0.6-0.2,1.2-0.5,1.9-0.7c0.3,0,0.7,0,1-0.1c6.3,1.5,12.5,3.3,18.6,5.6c1.3,0.9,2.6,1.9,4.3,1.6
				c0.5,1.3,1.7,1.7,2.9,2.1c0.4,0.3,0.8,0.5,1.2,0.7c0.5,1.3,1.6,1.9,2.8,2.2C941.2,248.9,941.6,249.5,942,250.1z"/>
			<path class="st10" d="M835,283c1.6,1.2,0.8,3.1,1.5,4.6c-0.3,0.8-0.6,1.7-0.9,2.5c-0.1,0.5-0.2,0.9-0.3,1.4
				c-0.4,1.9-0.8,3.7-1.2,5.6c-0.1,0.1-0.4,0.2-0.4,0.2c0,0.3,0.2,0.5,0.3,0.8c-0.1,1.1-0.3,2.2-0.4,3.3c-0.3,0.1-0.6,0.1-0.9,0.2
				c0.2,0.2,0.5,0.3,0.7,0.5c-0.2,5.3-0.4,10.6-0.6,15.9c0,1.7,0,3.2,2.5,3.4c11.3,0.8,22.4,2.6,33.5,4.5c2.6,0.5,2.7-0.9,2.8-2.7
				c1,1.5,0.4,3.2,0.4,4.8c-6.2-0.9-12.3-1.8-18.6-2.4c-5.3-0.4-10.5-1.7-15.7-2.5c-2.6-0.4-4,0.5-3.9,3.5
				c0.1,5.1,0.3,10.2-0.8,15.3c-0.6,2.6-0.9,5.7,1.2,8.1c-1,0-2,0-3.1,0.1c0-2.1,0-4.2-0.1-6.3c-0.1-1.6-0.7-3-2.7-1.8
				c-1.6-0.9-0.5-1.9-0.2-2.9c1.8,0,2.3-1.3,1.9-2.7c-1.8-6.1-0.3-12.4-1-18.5C830.3,306.1,831.2,294.3,835,283z"/>
			<path class="st1" d="M828.2,342c2.1-1.2,2.6,0.2,2.7,1.8c0.1,2.1,0.1,4.2,0.1,6.3c-1.4,0-2.7,0.1-4.1,0.1
				c-1.6-1.7-0.2-1.9,1.1-2.1c0.7-0.1,1.7-0.1,1.5-1.2c-0.1-0.4-0.9-0.6-1.4-0.9C828.2,344.7,828.2,343.3,828.2,342z"/>
			<path class="st9" d="M827,350.2c1.4,0,2.7-0.1,4.1-0.1c1,0,2,0,3.1-0.1c0,0-0.1,0-0.1,0c0,0.7,0,1.3,0,2l0,0
				c-4.8-1.7-5.3,3.4-7.9,5.1C826.3,354.8,827.5,352.6,827,350.2z"/>
			<path class="st10" d="M828.2,346c0.5,0.3,1.3,0.5,1.4,0.9c0.2,1-0.8,1-1.5,1.2C828.1,347.4,828.1,346.7,828.2,346z"/>
			<path class="st10" d="M835.3,280.2c0.1,0.2,0.2,0.4,0.2,0.6c0,0.1-0.2,0.2-0.3,0.2C835.2,280.7,835.2,280.4,835.3,280.2z"/>
			<path class="st12" d="M969,349.1c0-1,0.3-1.9,1.2-2.4c6.2,0.5,12.5,0.9,18.7,1.4c0.1,0.3,0.2,0.7,0.4,1c-6.1,6.4-7.4,6.6-14.8,2
				C972.8,350.1,971.1,349.1,969,349.1z"/>
			<path class="st5" d="M966.9,368c-1.9-0.1-4.3,1-5-2.1c1.1-4.9,0.5-10,2.2-14.8c0.7,0.3,1.3,0.6,2,0.9c0.8,4.8-1.9,9.8,0.9,14.5
				C966.9,367,966.9,367.5,966.9,368z"/>
			<path class="st12" d="M967,366.6c-2.7-4.7,0-9.7-0.9-14.5c0.3,0,0.7,0,1,0.1c0.6-0.2,1.2-0.5,1.8-0.7
				C970.1,356.7,968.6,361.6,967,366.6z"/>
			<path class="st10" d="M989.3,349.1c-0.1-0.3-0.2-0.7-0.4-1C989.7,348.2,990,348.5,989.3,349.1z"/>
			<path class="st13" d="M956.8,404c1.3-10.9,2.5-21.8,2.5-32.8c0.2-0.5,0.4-1,0.6-1.5c6.1-2,12.1,0.4,18.1,0.7
				c4.1,0.2,8.1,1.1,12.2,1.7c0.5,0.7,1.1,0.8,1.8,0.4c0.3,0,0.5,0.1,0.6,0.3c0.2,5.1-2.6,10-0.6,15.2c-0.1,1-0.2,2-0.3,3
				c-2.4,2.6-3.4,5.5-1.7,8.9c0,0.7-0.1,1.4-0.1,2.1c-2.7,1.3-2.4,3-0.6,4.9c-0.1,1.4-0.3,2.7-0.4,4.1c-2.6,0.8-2.1,2.3-0.8,3.9
				c0,1.3,0.1,2.7,0.1,4c-0.4,7-0.9,14-1.3,21c-2.1,0.3-1.9,1.6-1.5,3.1c-0.3,1.9-0.5,3.8-0.8,5.7c-1.2,0.2-1.6,1-1.8,2.1
				c-2.6,0.7-3.1,3.1-3.5,5c-1.5,7.3-3.6,14.4-3.1,22c0,0.7,0,1.4-0.1,2.1c-1.2,5.2-2.6,10.4-1.1,15.9c0,0.7-0.1,1.4-0.1,2.1
				c-3.1,2-2.1,4.5-0.9,7c0,1.6-0.1,3.3-0.1,4.9c-2,0.2-2,2.1-2.4,3.4c-1.6,5.6-3.1,11.1-4.4,16.8c-1.3,5.9-4.3,8.8-9.6,9
				c-5,0.2-9.5-2.4-10.1-6.8c-0.7-5.9-1.3-11.9-0.7-18c0.9-7.9,0.8-15.9,0.6-23.8c-0.1-5.7,0.2-11.5,0.4-17.1
				c0.5-12.1,2.6-24.2,4.1-36.3c0.3-1.8,0.7-3.5,0.8-5.3c0.4-6.4,4.4-12.1,3.1-18.8c0-1.3,0-2.6,0-3.9c0.1-1,0.2-2,0.3-3
				C956.9,405.6,957,404.9,956.8,404z"/>
			<path class="st15" d="M989.9,402.1c0-0.7,0.1-1.4,0.1-2.1c1.5-2.8,1.6-5.9,1.7-8.9c0.1-1,0.2-2,0.3-3c2.4-4.6,2.3-9.7,2.7-14.7
				c1.7-0.5,2.3,1.1,3.3,1.8c-3.2,19.3-5.5,38.8-6.3,58.4c-0.1,3.5,0.1,7.4-1.1,10.8c-2.5,7.1-2.7,14.5-3.6,21.8
				c-1.2,9.5,0.1,19.2-2.4,28.5c-3.4,13-3.7,26.5-5.6,39.7c-0.5,3.7-1,8-4.2,9.6c-6,2.9-5,6.7-2.8,11.2c-15.3-5.1-30.9-7.3-46.9-6.2
				c0.3-2.5,2.3-1.8,3.9-2c6.7-1,7.5-2.6,5.4-8.8c-2.1-6-5.2-12-4.1-18.5c1.5-9.4,1.8-19,2.8-28.5c0.3-2.7,1.1-5.6-0.9-8.2
				c0-0.7,0-1.3,0-2c1.4-0.1,2.3-1,1.9-2.3c-1.4-5.7,0.6-11,0.9-16.5c0.7-10.2,2.8-20.1,6.2-29.7c1-2.8,2.7-5.2,5.5-6.8
				c2.3-1.3,4.6-2.7,5.3-5.6c0.1-1.3,0.7-2,2-2c-1.8,6-3.5,12-5.6,17.9c-1.8,5.3-3.4,10.6-3.6,16.4c-0.3,6.9-0.5,13.8-1.2,20.6
				c-2.3,20.6-3.6,41.2-3.7,61.9c0,4.5,2.5,6.2,6.1,7.1c5.7,1.5,11.5,1.3,17.3,0.9c3.1-0.2,6.9-0.3,7.5-4.9c0.1-1,0.2-1.9,0.3-2.9
				c3.5-6.7,4.1-13.8,2.9-21.1c0.3-1.3,0.5-2.7,0.8-4c1.7-1.6,1.6-3.3,0.2-5.1c0-0.6,0.1-1.2,0.1-1.8c2.9-1.5,2.3-4.5,2.7-6.9
				c1.4-8.6,3.1-17.2,3.6-25.9c0.5-7.3,3.1-14.2,3.1-21.4c0.3-1.9,0.5-3.8,0.8-5.7c1-0.8,1.8-1.7,1.5-3.1c0.4-7,0.9-14,1.3-21
				c2.5-0.9,2.1-2.4,0.8-4.1c0-1.3,0-2.6-0.1-3.9c0.1-1.4,0.3-2.7,0.4-4.1C990.6,405.5,990,403.8,989.9,402.1z"/>
			<path class="st1" d="M971.9,555.1c-2.2-4.5-3.1-8.3,2.8-11.2c3.3-1.6,3.7-5.9,4.2-9.6c1.8-13.2,2.1-26.7,5.6-39.7
				c2.4-9.3,1.2-19,2.4-28.5c0.9-7.3,1.2-14.7,3.6-21.8c1.2-3.4,0.9-7.3,1.1-10.8c0.8-19.6,3.1-39,6.3-58.4c0.3,0,0.7,0,1,0
				c4.5,11,7.2,22.9,2.5,33.8c-4.9,11.6-3.3,23.4-4.8,35.1c-1.1,8.6-2.6,17.2-3.2,25.9c-0.6,8-2.6,15.8-1.4,24.1
				c0.6,4.1,0.5,8.2,2.6,12.2c1.5,2.9-0.6,6.2-0.8,9.3c-0.6,10.5-3.5,20.4-8.7,29.6c-0.7,1.2-1.7,2.3-0.9,3.6
				c2.6,4.2,1.2,8.8,1.6,13.2c-4.6-1.6-9.8-0.3-14-3.4c0.7-0.1,1.4-0.2,2-0.2c0.7,0.8,1.9,1.2,2.3,0.2c0.7-1.8-1.2-1.2-2-1.5
				C973.3,556.6,972.5,556,971.9,555.1z"/>
			<path class="st4" d="M959.2,365.9c-0.1,0.7-0.2,1.3-0.2,2c-12.6-1.7-25.3-3.4-37.9-5.1c0-0.5,0-1,0-1.6c0.6-0.1,1.3-0.1,1.9-0.2
				c2.8,1.6,6.2,1.7,9.1,1.6c3.3-0.1,7.5,3.9,10.2-1.3c0.5-0.9,0.7,0.2,0.7,0.4c0.7,3.5,3.7,2.6,6,3.1c3.2,0.8,4.5-0.9,4.9-3.7
				c0.5-2.9,1-5.8,1.2-8.7c0.2-3.3,1.9-4.7,5.1-4.6c1.4,1.5,0.9,3.4,0.7,5.1C960.4,357.3,959.8,361.6,959.2,365.9z"/>
			<path class="st12" d="M959.2,365.9c0.5-4.3,1.2-8.7,1.6-13c0.2-1.7,0.7-3.6-0.7-5.1c0-0.6-0.1-1.1-0.1-1.7c1.5-0.5,2.8-1.1,0.3-2
				c-1.4-0.5-3.2,0.5-4.5-0.9c-0.2-1-0.7-2.1,1.1-2c1.8-0.5,4.9,2,5-2.2c0.1-8.3,0.2-16.6,0.2-24.9c0.6,0,1.2,0,1.7,0
				c0.1,12.3,0.1,24.7,0.2,37c-1.7,4.8-1.1,9.9-2.2,14.8C961,367,960.1,366.7,959.2,365.9z"/>
			<path class="st9" d="M921.1,362.9c12.6,1.7,25.3,3.4,37.9,5.1c0.8,0.4,0.9,1,0.9,1.8c-0.2,0.5-0.4,1-0.6,1.5
				c-10-2.5-20.1-4.5-30.3-5.8c-4.1-0.5-8.2-0.1-12.1-1.7c0-0.2,0.1-0.4,0.1-0.6C918.3,363,919.7,363,921.1,362.9z"/>
			<path class="st5" d="M994.7,373.2c-0.3,5-0.2,10.1-2.7,14.7c-2-5.1,0.8-10.1,0.6-15.2C993.3,372.9,994,373.1,994.7,373.2z"/>
			<path class="st4" d="M1010.4,371.2c0.7,0,1.4,0,2.1,0c0.2,0.3,0.3,0.6,0.5,0.9c1.4,1.6,3.4,0.6,5,1.1c0,0.3,0,0.6,0,1
				c-2-0.1-4-0.2-6-0.4c-0.4-0.2-0.7-0.4-1.1-0.7c-2.6-0.1-5.2-0.2-7.8-0.3c0-0.2,0-0.4,0-0.6c0.9-1.7,3.9-0.4,4.1-3
				C1008.6,369.3,1007.4,373.6,1010.4,371.2z"/>
			<path class="st5" d="M992,372.5c-0.7,0.4-1.3,0.3-1.8-0.4C990.8,372.3,991.4,372.4,992,372.5z"/>
			<path class="st0" d="M834.1,297.1c0.4-1.9,0.8-3.7,1.2-5.6c0.1-0.5,0.2-0.9,0.3-1.4c0.3-0.8,0.6-1.7,0.9-2.5
				c3.9-11.6,9.1-22.5,14.2-33.6c2.4-1.8,3.5-4.7,5.4-6.9c0.3,0,0.6-0.1,0.9-0.3c6-4.3,13-6,20.1-7.3c1.8-0.1,3.6-0.3,5.8-0.4
				c-1.2,4.7-5,7.3-7.2,10.8c-7.5,13.9-8.3,28.9-7.8,44.2c-0.4,9.9,1.6,19.5,3.7,29c-0.1,1.7-0.2,3.1-2.8,2.7
				c-11.1-2-22.3-3.7-33.5-4.5c-2.5-0.2-2.5-1.7-2.5-3.4c0.2-5.3,0.4-10.6,0.5-15.9c0.3-0.2,0.3-0.4,0.2-0.7
				c0.1-1.1,0.3-2.2,0.4-3.3C834,297.7,834,297.4,834.1,297.1z"/>
			<path class="st4" d="M840.1,267c0.6,0.3,1.3,0.6,1.9,0.9c-0.1,0.8,0,2-1.2,1.6C839.6,269.2,840.1,268,840.1,267z"/>
			<path class="st1" d="M932,481c0,0.7,0,1.3,0,2c-1.9,8.8-7.4,16.8-5.1,26.5c0.6,2.6,0,5.5-0.5,8.3c-0.9,5.1-1.6,10.3,0.7,15.5
				c1.5,3.4-2.6,11.5-6,12.7c0.5-3.8,1.1-7.5,1.6-11.3c0.4-2.4,0-5.4-2.1-6.1c-5.7-2.2-2.5-5.4-1.2-8.2c0.7-1.5,1.9-2.7,1.7-4.5
				c-0.1-1-0.4-2.1-1.5-2.4c-1.5-0.3-1.4,1-1.5,2c-0.1,1.2-0.2,2.5-1.9,2.3c-1.6-0.2-2.2-1.5-2-2.9c0.2-1.5,0.5-3,1.2-4.3
				c3.4-6.4,3.4-13,1.7-19.7c-0.7-2.6-0.3-4.9,1.1-7.4c3.6-6.3,0.3-12.1-2.1-17.8c-0.5-1.1-1.5-2.3-0.8-3.2
				c3.1-3.6,0.2-7.2,0.2-10.8c0-3.9,0.3-8,1.2-11.8c0.9-3.8,0.1-6-3.7-6.2c-1.9-0.1-2-0.9-1.5-2.2c1-2.8-0.7-5.9,1.4-8.5
				c0.6-0.7,0.1-1.9-0.4-2.8c-0.9-1.7-4.2-2.7-2.8-4.7c2.2-3.2,2.6-6.9,4.5-10.3c3.9-6.8,9.9-7.8,16.5-8c1.9-0.1,3.1-0.6,4.2-2.1
				c0.6-0.9,1.5-2,2.9-1.4c1.2,0.5,1.5,1.8,1.4,3c-0.3,3,1.1,5.3,2.8,7.6c1.5,2,3.5,4.2,2.6,7.2c-0.8,2.5,0.7,4,2.8,4.4
				c2.3,0.5,4.1-0.3,5-2.9c0.6-1.7,0.6-4.3,3.5-3.9c0,1.3,0,2.6,0,3.9c-2.5,1-1.2,3.4-1.7,5.1c-1.3,0-1.9,0.7-2,2
				c-8.9,0.7-16.9,9.6-18,19.8c-0.8,7.2-2.3,14.3-2.7,21.5C930.9,467.8,930,474.5,932,481z"/>
			<path class="st14" d="M921,546c3.5-1.2,7.6-9.3,6-12.7c-2.3-5.1-1.6-10.3-0.7-15.5c0.5-2.8,1.2-5.7,0.5-8.3
				c-2.2-9.7,3.2-17.7,5.1-26.5c2,2.5,1.1,5.5,0.9,8.2c-1,9.5-1.2,19-2.8,28.5c-1.1,6.6,2,12.5,4.1,18.5c2.2,6.2,1.3,7.7-5.4,8.8
				c-1.5,0.2-3.5-0.5-3.9,2c-0.3,0.1-0.6,0.2-0.9,0.1c-1.8,0.2-3.8-0.8-5.2,1.1c-1.7-0.3-3.5,0.3-5-0.9
				C915.7,546.9,919.5,548.8,921,546z"/>
			<path class="st12" d="M917,363.1c0,0.2-0.1,0.4-0.1,0.6c-5.3-0.3-10.6-0.5-15.8-0.8c-3.7-0.7-7.2-2-11-1.8c-1.3,0-2.7-0.1-4-0.1
				c-3,0-6,0-9,0.1c-0.3-0.1-0.6-0.2-0.9-0.2c-0.7-1.3-1.4-2.5-2-3.8c1.6,0,3.3-0.1,4.9-0.1c0.6,0.1,1.3,0.3,1.9,0.4
				c5.4,0.9,10.7,1.7,16.1,2.6C903.6,361.2,910.5,361.1,917,363.1z"/>
			<path class="st2" d="M890,361.1c3.8-0.2,7.4,1.1,11,1.8c-1.5,4.4-5.6,4-8.8,3.8C889,366.5,890.3,363.2,890,361.1z"/>
			<path class="st1" d="M873.3,471.4c1.6-0.2,1.9,0.9,2.3,1.7c0.3,0.7,0.2,1.5-0.6,1.4c-1.1,0-2.4-0.4-2.5-1.8
				C872.4,472.3,873,471.8,873.3,471.4z"/>
			<path class="st1" d="M956.8,404c0.2,0.8,0.1,1.6-0.7,2C954.5,404.7,955.4,404.3,956.8,404z"/>
			<path class="st11" d="M876.1,360.9c0.3,0,0.6,0.1,0.9,0.2c0.3,2.3-1.2,3.2-3,3.8c-7.1,2.3-11,6.1-12.4,14.3
				c-1.6,9.2-2.1,18.5-3.7,27.6c-0.2,1.1-0.9,1.7-1.9,2.2c-2.2-6.4-0.6-12.9-0.9-19.4c-0.3-6.3-2.5-9.2-9.1-10.6
				c0.3-2.9,0.7-5.8,4-7c0.8,1.1,1.6,0.4,2.6,0.3c5.1-0.5,7.6-5,11.6-7.2c2-1.1,5.2-0.7,5.8-3.9C872.1,361.1,874.1,361,876.1,360.9z
				"/>
			<path class="st11" d="M899.6,384.9c-2-0.4-1.9-2.2-2.2-3.5c-0.3-1.4,0.4-3.1,2.2-3.2c1.5-0.1,2.5,1.1,2.2,2.6
				C901.4,382.3,901.5,384.2,899.6,384.9z"/>
			<path class="st1" d="M850,372c-3.3,1.2-3.7,4.1-4,7c-3,4.1-5.7,8.4-11,10c4.2-9.2,5.9-19,7-29c2.8-0.2,6.9,1.3,6.1,3
				C846.3,367.1,849.8,369,850,372z"/>
			<path class="st2" d="M850,372c-0.2-3-3.7-4.9-1.9-9c0.8-1.8-3.3-3.2-6.1-3c-0.3-1.7-0.7-3.3-1-5c9,5,18.7,7,29,6.1
				c-0.6,3.2-3.8,2.8-5.8,3.9c-4,2.2-6.5,6.7-11.6,7.2C851.7,372.4,850.8,373.1,850,372z"/>
			<path class="st9" d="M870,361.2c-10.3,0.9-20-1.2-29-6.1c-1.9-2.1-5-1.2-7-3c0,0,0,0,0,0c13.5,0.2,26.7,3.3,40,5.1
				c0.7,1.3,1.4,2.5,2,3.8C874.1,361,872.1,361.1,870,361.2z"/>
			<path class="st1" d="M939.9,556.3c0.3,1.4,1.4,1.7,2.6,1.7c6.8,0,13.2,2.6,19.9,2.9c2.8,0.1,4.9,1.8,7.5,2.2
				c0.4,5.2-4.5,4.4-7,5.4c-3.2,1.3-7.3,1.4-10.6-0.8c-3.2-2.1-6-2.5-9,0.3c-2,1.8-3.2,1-3.8-1.4c-0.6-2.6-1.7-4.6-4.7-5
				c-3.2-0.4-6.1-0.9-8.6-3.9c-0.9-1-6.1-1.5-9.4-0.6c-0.9,0.2-2.4,1-2.7,0.7c-4.3-4.3-9.8-1.2-14.6-2.6c-2.3-0.7-5.5-1-6.7,1.7
				c-1.8,4-3.4,2.5-5,0.3c-2.7-3.6-8.3-4.8-8.8-10.3c11,1.8,21.9,3.5,32.8,5.4C921.2,554,930.5,555.5,939.9,556.3z"/>
			<path class="st15" d="M918.9,550.1c1.4-1.9,3.4-1,5.2-1.1c2.3,3.8,7,1.6,9.9,4c0,0,0,0,0,0C928.8,552.9,923.8,551.9,918.9,550.1z
				"/>
			<path class="st1" d="M873,545.9c-0.1,0.8-0.1,1.8-1.2,1.7c-1.4-0.2-1.7-1.3-1.8-2.5C871,545.3,872,545.6,873,545.9z"/>
			<path class="st2" d="M768.1,520c0.1-2.1,1.6-2,3-2c0,1,0,1.9,0,2.9C770.1,520.6,769.1,520.3,768.1,520z"/>
			<path class="st2" d="M788,411c-3.1-3.1-1.6-5.6,1-8C788.6,405.7,790,408.6,788,411z"/>
			<path class="st1" d="M997,568c2.4,0.1,4.8-0.4,7,1C1001.1,572.1,999.1,571.8,997,568z"/>
			<path class="st1" d="M852.8,564.4c0.3,0.1,0.7,0.2,0.8,0.4c0.1,0.2-0.2,0.5-0.3,0.8c-0.3-0.1-0.7-0.2-0.8-0.4
				C852.4,565,852.6,564.6,852.8,564.4z"/>
			<path class="st13" d="M1059.3,367.8c0.7-0.7,1.6-0.7,2.5-0.5c0.3,1.1,1.1,1.6,2,2c4.2,2.3,8.4,4.6,12.6,7
				c1.8,1.2,3.7,2.3,5.5,3.5c1.4,2.3,5.5,1.6,5.9,5.2c-0.5-0.1-1-0.2-1.5-0.2c-0.9-0.7-1.6-1.9-3-1.6
				C1075.3,377.9,1067.3,372.9,1059.3,367.8z"/>
			<path class="st13" d="M934,553c-2.9-2.4-7.6-0.2-9.9-4c0.3,0.1,0.6,0.1,0.9-0.1c16.1-1.1,31.7,1.1,46.9,6.2
				c0.6,0.9,1.4,1.5,2.4,1.8c-0.1,0.4-0.2,0.9-0.3,1.3c-0.7,0.1-1.4,0.2-2,0.2C959.3,557,946.8,553.8,934,553z"/>
			<path class="st14" d="M1010.8,373.2c0.4,0.2,0.7,0.4,1.1,0.7C1011.6,373.6,1011.2,373.4,1010.8,373.2z"/>
			<path class="st8" d="M1059.3,367.8c8,5.1,16,10.2,24,15.3c-7.9-1-15.7-2-23.4-4C1059.1,375.3,1057.4,371.6,1059.3,367.8z"/>
			<path class="st12" d="M1018,373.2c-1.6-0.5-3.6,0.5-5-1.1c1.3-0.7,2.7-1.4,4-2c0.4,2.6,2.6,1.6,4.1,2c0,0.3,0,0.5,0,0.8
				C1020,373.1,1019,373.1,1018,373.2z"/>
			<path class="st11" d="M964.1,351.2c-0.1-12.3-0.1-24.7-0.2-37c0.7-4.4-0.6-8.7-0.8-13.1c0.9,0,1.9,0,2.8,0.1
				c0.3,0.3,0.6,0.5,0.9,0.8c0.1,7-0.5,14.2,0.4,21.1c1,8.1-0.4,16.1-0.2,24.2c0,1.7,0.1,3.3,0.1,5c-0.3,0-0.7,0-1-0.1
				C965.4,351.8,964.8,351.5,964.1,351.2z"/>
			<path class="st9" d="M963.1,301c0.1,4.4,1.4,8.7,0.8,13.1c-0.6,0-1.2,0-1.7,0c-1.2-9.7-2-19.5-4.5-29c0.9-0.1,1.8-0.2,2.7-0.4
				c0.6,1.8,1.2,3.5,1.8,5.3C960.7,293.9,963.3,297.3,963.1,301z"/>
			<path class="st15" d="M963.1,301c0.2-3.7-2.5-7.1-1.1-10.9c2.3,3.3,2.4,7.4,3.9,11C965,301,964.1,301,963.1,301z"/>
			<path class="st5" d="M942.3,251.6c-0.1-0.5-0.2-1-0.3-1.6c0.8,0.2,1.4,0.6,1.5,1.5C943.1,251.6,942.7,251.6,942.3,251.6z"/>
			<path class="st8" d="M902,332.2c0.6,0.1,1.3,0.2,1.9,0.3c1,2.1,2.4,1.9,4.1,0.8c0.6,0.1,1.3,0.1,1.9,0.2c1,2.5,3.3,1.2,4.9,1.8
				c0.1,0.3,0.2,0.5,0.2,0.8c-0.5,2.8-2.7,1.6-4.3,1.9c-1.2,0.3-3.6-1.2-3.1,1.9c0.3,4,0.5,8-0.2,11.9c-0.1,2.5-0.2,5.1-0.3,7.6
				c-6.7-0.8-13.4-1.6-20-2.4c-1.7-4.5-0.6-9.3-1.2-13.9c1.1-2.9-2.4-7.4,3.4-8.5c-1.3-1.4-2.9-1.4-4.2-2.1
				c-0.7-0.3-1.8,1.9-1.9-0.4c-0.1-1.4,0.5-2.3,2-2.1c1.3,0.1,2.6,0.6,3.9,0.7c2.7,0.1,5.2,2.4,8,0.5c0.6,0.1,1.3,0.2,1.9,0.3
				C899.6,333.4,900.6,333.4,902,332.2z M903.4,337.6c-0.1-0.1-0.1-0.3-0.2-0.3c-0.1,0-0.3,0-0.4,0c0.1,0.2,0.2,0.3,0.3,0.5
				C903.2,337.7,903.3,337.7,903.4,337.6z"/>
			<path class="st12" d="M871.6,323.1c-2.1-9.6-4.1-19.2-3.7-29c1.6-4.5,2.1-9.2,2.1-14c0-4.3,0.5-8.5,2-12.6c1.7-1.8,2.4-3.9,2-6.4
				l0,0c1.6-0.3,1.8-1.7,2.2-2.9c0.6-0.9,1.2-1.8,1.7-2.6c-3.3,12.2-5.7,24.5-4.9,37.2c0.2,3.2-1.1,6.7,2,9.3
				c1.2,8.4,2.4,16.7,3.6,25.1c-0.9,2.3-1.9,4.6-2.8,7c-0.9-0.4-1.9-0.7-2.8-1.1c0.5-1.1,1.6-2.2-0.1-3.2c-0.3-0.6-0.6-1.3-0.9-1.9
				C872.1,326.3,872.6,324.7,871.6,323.1z"/>
			<path class="st9" d="M875.9,334.1c0.9-2.3,1.9-4.6,2.8-7c6,1.6,12.4,1.8,18.3,4.1c-2.8,2-5.3-0.4-8-0.5c-1.3,0-2.6-0.5-3.9-0.7
				c-1.5-0.2-2.1,0.7-2,2.1c0.1,2.3,1.3,0.1,1.9,0.4c1.3,0.6,2.9,0.6,4.2,2.1c-5.8,1-2.3,5.6-3.4,8.5c-0.4,0-0.8,0-1.3,0
				c-1.3-2.2,0-4.8-0.8-6.9c-1.2-1.3-0.1,3.5-1.8,0.5c-0.4-0.8-0.7-1.5-1.6-1.4c-0.7,0.1-1.1,0.6-1.2,1.3c-0.4,2.9-0.8,5.8-1.1,8.7
				c-0.1,0.8-0.2,1.8,0.7,2.2c1.2,0.5,1.8-0.5,2.4-1.2c0.6-0.7,0.9-1.6,1.5-2.6c0.5,1.6,0.4,3.1,0,4.5c-0.3,2.2-0.6,4.4-0.9,6.7
				c-1.1-0.7-1.8-1.1-1.4-2.2c-1.8-0.4-1,1.1-1.2,1.8c-0.2,0.5-0.1,1-0.2,1.5c-0.6-0.2-1.2-0.3-1.7-0.5
				C877.3,348.4,876.6,341.3,875.9,334.1z"/>
			<path class="st10" d="M956.9,341.2c-1.7-0.1-1.3,1-1.1,2c-4.3,0.2-8.7-1.2-12.9,0.9c-1,0.7-2.1,0.5-3.3,0.3
				c-5.5-0.9-11.1-1.5-16.7-2.3c-1-0.6-1.9-1.1-3.1-0.9c-2-0.3-4-0.2-5.9-1.2c1.5-2,4.5,0.3,6-1.9c0.5,0,1.1-0.1,1.6-0.1
				c1.6,1.4,3.5,1.7,5.5,1.8c2,0.3,4-2.1,5.9,0.1c2.7,3.1,6.3,1.9,9.6,2.1c0.9,0,2.6-0.3,1.3-2.1c0-0.5,0-1,0-1.5
				c1.1,0.5,2.2,0.9,3.3,1.4c2.4,1,4.7,1.9,7.3,0.5c0.9-0.4,1.6-0.3,2.3,0.4C956.8,340.7,956.9,341.2,956.9,341.2z"/>
			<path class="st1" d="M944,338.4c0,0.5,0,1,0,1.5c-4.9-0.7-9.9-1.4-14.8-2c-0.1-0.5-0.1-0.9-0.2-1.4
				C934,336.6,939.1,336.7,944,338.4z"/>
			<path class="st1" d="M954.6,340.3c-2.5,1.5-4.9,0.5-7.3-0.5C949.9,337.1,952.2,339.2,954.6,340.3z"/>
			<path class="st1" d="M921.6,338c-0.5,0-1.1,0.1-1.6,0.1c-0.9-0.4-1.6-1-1.9-2c0.3-0.4,0.6-0.7,0.9-1.1c2.5,2.3,5.9-0.9,8.4,1.4
				C925.7,337.7,923.3,336.4,921.6,338z"/>
			<path class="st12" d="M921.6,338c1.7-1.5,4.1-0.3,5.9-1.5c0.5,0,1,0,1.5,0.1c0.1,0.5,0.1,0.9,0.2,1.4c-1,0.3-2.1,0.5-2,1.9
				C925.1,339.7,923.2,339.4,921.6,338z"/>
			<path class="st1" d="M956.9,341.2c0,0,0-0.4,0-0.4c1.2-1.9,3.5-0.8,5.1-1.8C961.8,343.2,958.7,340.7,956.9,341.2z"/>
			<path class="st9" d="M914.8,335.3c-1.6-0.6-3.9,0.7-4.9-1.8c1.8-0.6,3.4,0.4,5.1,0.7c0,0.3,0,0.5,0.1,0.8L914.8,335.3z"/>
			<path class="st9" d="M908,333.3c-1.6,1.1-3.1,1.2-4.1-0.8C905.4,332.1,906.7,332.5,908,333.3z"/>
			<path class="st9" d="M902,332.2c-1.3,1.2-2.4,1.2-3.1-0.7C900,331.2,901,331.6,902,332.2z"/>
			<path class="st9" d="M919,335c-0.3,0.4-0.6,0.7-0.9,1.1c-1.1,0-2.1,0-3.2,0c0-0.3-0.1-0.6-0.2-0.8c0,0,0.3-0.3,0.3-0.3
				c0.5-0.2,1-0.3,1.4-0.5C917.4,334.7,918.2,334.8,919,335z"/>
			<path class="st1" d="M916.5,334.5c-0.5,0.2-1,0.3-1.4,0.5c-0.1-0.2-0.1-0.5-0.1-0.8C915.5,334.3,916,334.4,916.5,334.5z"/>
			<path class="st6" d="M888.9,241c0.4-0.3,0.7-0.7,1.1-1C889.6,240.3,889.3,240.7,888.9,241z"/>
			<path class="st9" d="M872,267.5c-1.4,4.1-2,8.3-2,12.6c0,4.8-0.5,9.5-2.1,14c-0.5-15.3,0.2-30.3,7.8-44.2c0.8,0.2,1.7-1,2.4,0.2
				c-0.1,1.1-0.1,2.2-0.2,3.3c0,0.7,0,1.3,0.1,2c-2.9-1.3-2.7,1-3.1,2.6c-0.9,0.8-1,1.9-0.8,3.1c0,0,0,0,0,0
				C872,262.8,872,265.1,872,267.5z"/>
			<path class="st4" d="M874.9,258c0.4-1.6,0.2-4,3.1-2.6c0,0,0,0.2,0,0.2c-0.6,0.9-1.2,1.8-1.7,2.6
				C875.8,258.1,875.3,258.1,874.9,258z"/>
			<path class="st4" d="M882.9,245.3c-0.3,0.3-0.5,0.9-0.9,1c-0.7,0.3-0.9-0.3-0.7-0.7c0.2-0.4,0.6-0.7,1-1
				C882.5,244.8,882.6,245.1,882.9,245.3z"/>
			<path class="st4" d="M877.9,253.4c0.1-1.1,0.1-2.2,0.2-3.3c0.3-0.1,0.6-0.1,0.8-0.1l0.2,0.2C879.1,251.4,878.9,252.6,877.9,253.4
				z"/>
			<path class="st4" d="M884.5,241.6c0.1,0.1,0.3,0.2,0.3,0.3c-0.1,0.2-0.2,0.5-0.3,0.7c-0.1-0.1-0.3-0.2-0.3-0.3
				C884.3,242,884.4,241.8,884.5,241.6z"/>
			<path class="st4" d="M879.9,249c0.2-0.1,0.4-0.3,0.5-0.4c-0.1,0.2-0.2,0.4-0.4,0.6C880.1,249.2,879.9,249,879.9,249z"/>
			<path class="st4" d="M878.9,250c0.3-0.3,0.7-0.7,1-1c0,0,0.2,0.2,0.2,0.2c-0.3,0.3-0.7,0.7-1,1C879.1,250.2,878.9,250,878.9,250z
				"/>
			<path class="st10" d="M937,249c1,0.1,2,0.1,2.6,1C938.6,250,937.5,250.2,937,249z"/>
			<path class="st10" d="M942.8,256.1c0,0.1-0.1,0.2-0.1,0.3c-0.1-0.2-0.2-0.3-0.4-0.5c0.1-0.1,0.2-0.2,0.3-0.2
				C942.6,255.8,942.7,256,942.8,256.1z"/>
			<path class="st8" d="M875.9,334.1c0.7,7.1,1.4,14.3,1.3,21.5c-14.4-1.9-28.7-3.7-43.1-5.6c0,0,0.1,0,0.1,0
				c-2-2.5-1.7-5.6-1.2-8.1c1.1-5.1,1-10.2,0.8-15.3c-0.1-3,1.3-3.9,3.9-3.5c5.2,0.8,10.4,2,15.7,2.5c6.2,0.5,12.4,1.4,18.6,2.4
				c0.3,0.6,0.6,1.3,0.9,1.9c-0.5,0.6-0.9,1.3-1.4,1.9l-0.2,0c-1.2-2.3-2.8-3.3-5.2-1.8c-1,0-2-0.1-3-0.1c-0.8-1-2-0.8-3-0.8
				c-2.1-1-4.3-1.4-7.4-0.3c3,1.7,5.3,1,7.5,1.2c0.8,1.1,1.9,0.9,3.1,0.8c1,0.1,1.9,0.2,2.9,0.2c1.4,1.5,3.2,0.7,4.9,1.1
				c0.4,0.3,0.8,0.5,1.2,0.8l0.5,0l0.5,0C874,333.4,874.9,333.8,875.9,334.1z"/>
			<path class="st1" d="M835.6,290.1c-0.1,0.5-0.2,0.9-0.3,1.4C835.4,291,835.5,290.6,835.6,290.1z"/>
			<path class="st1" d="M833.6,301.3c0.1,0.3,0.1,0.5-0.2,0.7c-0.2-0.2-0.5-0.3-0.7-0.5C833,301.4,833.3,301.4,833.6,301.3z"/>
			<path class="st1" d="M834.1,297.1c-0.1,0.3-0.1,0.7-0.2,1c-0.1-0.3-0.2-0.5-0.3-0.8C833.7,297.3,834,297.2,834.1,297.1z"/>
			<path class="st1" d="M834,350c14.4,1.9,28.7,3.7,43.1,5.6c0.6,0.2,1.2,0.3,1.7,0.5c0.1,0.3,0.1,0.6,0.1,1c-1.6,0-3.3,0.1-4.9,0.1
				c-13.3-1.8-26.5-4.9-40-5.1C834,351.4,834,350.7,834,350z"/>
			<path class="st5" d="M974.8,510c-0.3,1.3-0.5,2.7-0.8,4c-2.5,6.8-2.1,14-2.9,21.1c-0.1,1-0.2,1.9-0.3,2.9c-3.5,0.9-7,2-10.6,2.7
				c-11.5,2.4-19.1-3.8-18-14.3c1.2-12.2,2.4-24.4,2.6-36.6c0.2-13.6,1.5-27.1,3.4-40.5c0.6-4-1-9.2,3.5-12.2
				c-1.5,12.1-3.6,24.2-4.1,36.3c-0.2,5.6-0.5,11.4-0.4,17.1c0.2,7.9,0.3,15.9-0.6,23.8c-0.7,6.1-0.1,12.1,0.7,18
				c0.5,4.4,5.1,7,10.1,6.8c5.3-0.2,8.3-3.1,9.6-9c1.3-5.6,2.8-11.2,4.4-16.8c0.4-1.3,0.4-3.1,2.4-3.4
				C974.2,510,974.5,510,974.8,510z"/>
			<path class="st6" d="M951.8,437c-4.6,3.1-2.9,8.2-3.5,12.2c-1.9,13.4-3.3,26.9-3.4,40.5c-0.1,12.2-1.4,24.4-2.6,36.6
				c-1,10.5,6.5,16.7,18,14.3c3.6-0.7,7-1.8,10.6-2.7c-0.6,4.5-4.4,4.6-7.5,4.9c-5.8,0.4-11.6,0.5-17.3-0.9
				c-3.6-0.9-6.1-2.5-6.1-7.1c0-20.7,1.4-41.3,3.7-61.9c0.7-6.8,1-13.7,1.2-20.6c0.2-5.8,1.8-11,3.6-16.4c2-5.9,3.7-12,5.6-17.9
				c0.5-1.7-0.8-4.1,1.7-5.1c1.3,6.7-2.7,12.4-3.1,18.8C952.5,433.5,952.1,435.3,951.8,437z"/>
			<path class="st6" d="M984.6,448.9c0.1,7.3-2.6,14.2-3.1,21.4c-0.6,8.7-2.3,17.3-3.6,25.9c-0.4,2.4,0.2,5.4-2.7,6.9
				c-0.1-1.7-0.2-3.4-0.3-5.1c0-0.7,0.1-1.4,0.1-2.1c1.3-5.2,3.1-10.4,1.1-15.9c0-0.7,0-1.4,0.1-2.1c1.5-0.2,1.7-1.2,1.8-2.5
				c1-8.3,1.9-16.6,4.8-24.5C983,449.9,983.4,449.1,984.6,448.9z"/>
			<path class="st5" d="M982.8,451c-2.9,7.9-3.8,16.2-4.8,24.5c-0.2,1.3-0.3,2.3-1.8,2.5c-0.5-7.5,1.6-14.7,3.1-22
				C979.7,454.1,980.3,451.7,982.8,451z"/>
			<path class="st5" d="M976.1,480.1c2,5.5,0.2,10.6-1.1,15.9C973.5,490.5,975,485.3,976.1,480.1z"/>
			<path class="st5" d="M991.7,391c0,3.1-0.2,6.1-1.7,8.9C988.2,396.5,989.2,393.6,991.7,391z"/>
			<path class="st5" d="M974.9,498c0.1,1.7,0.2,3.4,0.3,5.1c0,0.6-0.1,1.2-0.1,1.8c-0.3,0-0.7,0.1-1,0.1
				C972.8,502.5,971.7,500,974.9,498z"/>
			<path class="st5" d="M989.9,402.1c0.1,1.7,0.7,3.4-0.6,4.9C987.5,405.1,987.2,403.4,989.9,402.1z"/>
			<path class="st6" d="M974,505c0.3,0,0.7-0.1,1-0.1c1.4,1.7,1.5,3.4-0.2,5.1c-0.3,0-0.7,0-1-0.1C973.9,508.3,974,506.7,974,505z"
				/>
			<path class="st6" d="M988.9,415c1.3,1.7,1.8,3.1-0.8,4.1c0-1.3-0.1-2.7-0.1-4C988.3,415,988.6,415,988.9,415z"/>
			<path class="st5" d="M988.9,415c-0.3,0-0.6,0-0.9,0c-1.3-1.6-1.8-3.1,0.8-3.9C988.9,412.4,988.9,413.7,988.9,415z"/>
			<path class="st5" d="M986.9,440.1c0.3,1.4-0.4,2.3-1.5,3.1C984.9,441.7,984.8,440.4,986.9,440.1z"/>
			<path class="st14" d="M932,481c-2-6.5-1.1-13.2-0.7-19.7c0.4-7.2,1.9-14.3,2.7-21.5c1.1-10.2,9.1-19,18-19.8
				c-0.8,2.8-3,4.3-5.3,5.6c-2.8,1.6-4.5,4-5.5,6.8c-3.4,9.6-5.6,19.5-6.2,29.7c-0.4,5.5-2.4,10.9-0.9,16.5
				C934.3,480,933.4,480.9,932,481z"/>
			<path class="st6" d="M971.1,535.1c0.8-7.1,0.4-14.3,2.9-21.1C975.2,521.3,974.6,528.4,971.1,535.1z"/>
			<path class="st15" d="M974.1,558.2c0.1-0.4,0.2-0.9,0.3-1.3c0.8,0.3,2.7-0.3,2,1.5C976,559.4,974.8,559,974.1,558.2z"/>
			<path class="st8" d="M923,342.1c5.6,0.7,11.1,1.4,16.7,2.3c1.2,0.2,2.2,0.4,3.3-0.3c3.1,1.7,6.5,2,10,2.2c-3.4,5.8-4,12.2-4,18.7
				c-2.3-0.5-5.2,0.4-6-3.1c-0.1-0.3-0.3-1.3-0.7-0.4c-2.8,5.2-6.9,1.2-10.2,1.3c-2.9,0.1-6.3,0.1-9.1-1.6
				C924.8,354.8,921.4,348.4,923,342.1z"/>
			<path class="st10" d="M948.9,364.9c0-6.5,0.7-12.9,4-18.7c2.3-2.4,4.7-0.5,7-0.1c0,0.6,0.1,1.1,0.1,1.7c-3.1,0-4.8,1.4-5.1,4.6
				c-0.2,2.9-0.7,5.8-1.2,8.7C953.4,364,952.1,365.8,948.9,364.9z"/>
			<path class="st1" d="M887,357c6.7,0.8,13.4,1.6,20,2.4c1.9,1,3.9,0.4,5.9,0.6c1,0,1.9,0,2.9,0c0.3,0.9,0.9,1.1,1.8,1
				c1.1,0.1,2.3,0.2,3.4,0.3c0,0.5,0,1,0,1.6c-1.4,0.1-2.7,0.2-4.1,0.3c-6.5-2.1-13.3-1.9-19.9-3.1c-5.4-0.9-10.7-1.8-16.1-2.6
				c1.1-0.1,2.1-0.3,3.2-0.4c0.3,0,0.5-0.1,0.8-0.3C885.6,356.9,886.3,356.9,887,357z"/>
			<path class="st12" d="M921,361.3c-1.1-0.1-2.3-0.2-3.4-0.3c0.6-3.7,3.1-7,2.4-11c2.2-2.9,0.2-5.8-0.1-8.7
				c1.2-0.2,2.1,0.3,3.1,0.9c-1.6,6.3,1.7,12.7-0.1,19C922.3,361.2,921.7,361.2,921,361.3z"/>
			<path class="st4" d="M960,346.1c-2.4-0.4-4.7-2.3-7,0.1c-3.5-0.1-6.9-0.4-10-2.2c4.2-2.1,8.6-0.7,12.9-0.9
				c1.3,1.4,3.1,0.4,4.5,0.9C962.8,345,961.5,345.6,960,346.1z"/>
			<path class="st6" d="M884.1,357c-1.1,0.1-2.1,0.3-3.2,0.4c-0.6-0.1-1.3-0.3-1.9-0.4c0-0.3,0-0.7-0.1-1c0.1-0.5,0-1,0.2-1.5
				c0.2-0.7-0.6-2.2,1.2-1.8c-0.4,1,0.3,1.5,1.4,2.2c0.3-2.3,0.6-4.5,0.9-6.7c0.2,0.9,0.3,1.9,0.5,2.8
				C882.8,353.1,882.5,355.3,884.1,357z"/>
			<path class="st10" d="M907.4,351.8c0.7-4,0.5-7.9,0.2-11.9c0.7,0.4,1.5,0.8,2.2,1.2c2.4,4.1,1.1,8.6,1.1,12.9
				C909.2,354.3,908.9,352.1,907.4,351.8z"/>
			<path class="st12" d="M907.4,351.8c1.5,0.3,1.8,2.4,3.5,2.2c-0.4,2.4,2.7,3.6,2,6c-2-0.2-4,0.4-5.9-0.6
				C907.2,356.9,907.3,354.4,907.4,351.8z"/>
			<path class="st12" d="M909.8,341.1c-0.7-0.4-1.5-0.8-2.2-1.2c-0.5-3.1,1.9-1.6,3.1-1.9c1.6-0.3,3.8,0.8,4.3-1.9
				c1.1,0,2.1,0,3.2,0c0.3,1,0.9,1.6,1.9,2c-1.5,2.2-4.4-0.1-6,1.9C912.6,340.2,910.9,339.6,909.8,341.1z"/>
			<path class="st10" d="M887,357c-0.7-0.1-1.4-0.2-2.1-0.2c-0.1-2-0.2-4-0.2-6c0-2.5-0.1-5.1-0.1-7.6c0.4,0,0.8,0,1.3,0
				C886.5,347.7,885.3,352.5,887,357z"/>
			<path class="st12" d="M903.4,337.6c-0.1,0.1-0.2,0.1-0.3,0.2c-0.1-0.2-0.2-0.3-0.3-0.5c0.1,0,0.3-0.1,0.4,0
				C903.3,337.3,903.3,337.5,903.4,337.6z"/>
			<path class="st14" d="M872,267.5c-0.1-2.4-0.1-4.7,2-6.4C874.5,263.6,873.7,265.7,872,267.5z"/>
			<path class="st14" d="M874.9,258c0.5,0,0.9,0.1,1.4,0.2c-0.4,1.2-0.6,2.6-2.2,2.9C873.9,260,873.9,258.9,874.9,258z"/>
			<path class="st9" d="M871.5,331.8c0.5-0.6,0.9-1.3,1.4-1.9c1.7,1,0.7,2.1,0.1,3.2c0,0-0.5,0-0.5,0s-0.5,0-0.5,0
				C871.8,332.6,871.7,332.2,871.5,331.8z"/>
			<path class="st8" d="M884.6,343.1c0,2.5,0.1,5.1,0.1,7.6c-0.5,0.1-1,0.2-1.6,0.3c-0.1-0.9-0.3-1.9-0.5-2.8c0.4-1.4,0.5-2.8,0-4.5
				c-0.6,1-0.9,1.9-1.5,2.6c-0.6,0.7-1.3,1.7-2.4,1.2c-0.9-0.4-0.8-1.4-0.7-2.2c0.3-2.9,0.7-5.8,1.1-8.7c0.1-0.7,0.5-1.3,1.2-1.3
				c1-0.1,1.2,0.7,1.6,1.4c1.6,3,0.6-1.8,1.8-0.5C884.6,338.4,883.3,340.9,884.6,343.1z"/>
			<path class="st8" d="M909.8,341.1c1.1-1.5,2.8-0.9,4.3-1.1c1.8,1,3.9,0.9,5.9,1.2c0.3,2.9,2.3,5.8,0.1,8.7
				c-2.6,2.8-2.9,6.6-4.1,10.1c-1,0-1.9,0-2.9,0c0.6-2.4-2.4-3.6-2-6C910.9,349.7,912.2,345.3,909.8,341.1z"/>
			<path class="st8" d="M927.1,339.8c0-1.4,1-1.7,2-1.9c4.9,0.7,9.9,1.4,14.8,2c1.2,1.8-0.4,2.1-1.3,2.1c-3.3-0.1-6.9,1-9.6-2.1
				C931.1,337.7,929.1,340.1,927.1,339.8z"/>
			<path class="st12" d="M866,330c2.4-1.5,4.1-0.5,5.2,1.8c-0.1,0.2-0.3,0.3-0.4,0.5c-1.6-0.4-3.5,0.4-4.9-1.1
				C866,330.8,866,330.4,866,330z"/>
			<path class="st9" d="M860,330.1c-2.1-0.3-4.4,0.4-7.5-1.2c3.2-1.1,5.3-0.7,7.4,0.3C860,329.4,860,329.8,860,330.1z"/>
			<path class="st12" d="M860,330.1c0-0.3,0-0.7,0-1c1.1-0.1,2.2-0.3,3,0.8c0,0.4,0,0.7,0,1.1C862,331,860.8,331.2,860,330.1z"/>
			<path class="st9" d="M863.1,330.9c0-0.4,0-0.7,0-1.1c1,0,2,0.1,3,0.1c0,0.4,0,0.8,0,1.2C865,331.1,864.1,331,863.1,330.9z"/>
			<path class="st12" d="M871.5,331.8c0.2,0.4,0.4,0.9,0.5,1.3c-0.4-0.3-0.8-0.5-1.2-0.8c0.1-0.1,0.3-0.3,0.4-0.5
				C871.3,331.8,871.5,331.8,871.5,331.8z"/>
			<path class="st3" d="M915.9,360c1.2-3.4,1.5-7.2,4.1-10.1c0.8,4-1.7,7.3-2.4,11C916.8,361.1,916.1,361,915.9,360z"/>
			<path class="st9" d="M883.1,351c0.5-0.1,1-0.2,1.6-0.3c0.1,2,0.2,4,0.2,6c-0.3,0.1-0.5,0.2-0.8,0.2
				C882.5,355.3,882.8,353.1,883.1,351z"/>
		</g>
	</g>
</g>
</svg>
