<?xml version="1.0" encoding="utf-8"?>
<!-- Generator: Adobe Illustrator 26.5.0, SVG Export Plug-In . SVG Version: 6.00 Build 0)  -->
<svg version="1.1" id="Calque_2" xmlns="http://www.w3.org/2000/svg" xmlns:xlink="http://www.w3.org/1999/xlink" x="0px" y="0px"
	 viewBox="0 0 500 500" style="enable-background:new 0 0 500 500;" xml:space="preserve">
<style type="text/css">
	.st0{fill:#FFFFFF;}
	.st1{fill:#D3C033;}
	.st2{fill:none;stroke:#D3C033;stroke-width:8;stroke-miterlimit:10;}
	.st3{font-family:'MyriadPro-Regular';}
	.st4{font-size:93.7247px;}
	.st5{font-size:93.7246px;}
</style>
<path d="M488.5,439H9.5c-4.2,0-7.5-3.4-7.5-7.5V112.5c0-4.2,3.4-7.5,7.5-7.5h478.9c4.2,0,7.5,3.4,7.5,7.5v318.9
	C496,435.6,492.6,439,488.5,439z"/>
<g id="Calque_1">
	<g>
		<ellipse class="st0" cx="151.6" cy="264.5" rx="93.1" ry="92"/>
		<path class="st0" d="M151.6,174c50.5,0,91.6,40.6,91.6,90.5S202.1,355,151.6,355S60,314.4,60,264.5S101.1,174,151.6,174
			 M151.6,171C99.3,171,57,212.9,57,264.5S99.3,358,151.6,358s94.6-41.9,94.6-93.5S203.8,171,151.6,171L151.6,171z"/>
	</g>
	<g>
		<ellipse class="st0" cx="328" cy="264" rx="92.5" ry="91.4"/>
		<path class="st0" d="M328,174.1c50.2,0,91,40.3,91,89.9s-40.8,89.9-91,89.9s-91-40.3-91-89.9S277.8,174.1,328,174.1 M328,171.1
			c-51.9,0-94,41.6-94,92.9s42.1,92.9,94,92.9s94-41.6,94-92.9S379.9,171.1,328,171.1L328,171.1z"/>
	</g>
</g>
<path class="st1" d="M365.6,321.3h-69.7c-7.3,0-13.3-6-13.3-13.4v-51.2c-0.7-7.9,5.1-14.1,13.3-13.4h69.7c7.3,0,13.3,6,13.3,13.4
	v51.2C378.9,315.3,372.9,321.3,365.6,321.3z"/>
<path class="st2" d="M289.8,252.8c1.1-68.4,82.6-66.4,82.4-0.7"/>
<text transform="matrix(0.7723 0 0 1 97.9229 287.3398)" class="st1 st3 st4">&lt;</text>
<text transform="matrix(-0.8118 0 0 1 196.3643 287.3398)" class="st1 st3 st5">&lt;</text>
</svg>
