<?xml version="1.0" encoding="utf-8"?>
<!-- Generator: Adobe Illustrator 26.0.3, SVG Export Plug-In . SVG Version: 6.00 Build 0)  -->
<svg version="1.1" id="Calque_1" xmlns="http://www.w3.org/2000/svg" xmlns:xlink="http://www.w3.org/1999/xlink" x="0px" y="0px"
	 viewBox="0 0 500 500" enable-background="new 0 0 500 500" xml:space="preserve">
<g id="_x34_YBhpc.tif">
	
		<image overflow="visible" width="1024" height="1863" id="Layer_0_00000148627081848239310260000005407442244755485074_" xlink:href="A1873DA98D3814CA.png"  transform="matrix(0.2277 0 0 0.2203 152.2573 27.0788)">
	</image>
</g>
<path fill="none" stroke="#FFFFFF" stroke-miterlimit="10" d="M230.266,42.846l13.278-7.469l22.822,3.319
	c0,0,8.299,2.075,12.033,11.203s6.639,13.278,6.639,13.278l-1.245,12.863l-3.32,12.863l-5.394,4.564v9.129l-3.734-3.32l0.415,8.299
	l-2.49-2.075v6.224l-5.809-6.224l-0.415,5.809l1.627-12.815l1.692-13.327h-2.49l-4.564,2.075l-0.415-11.618
	c0,0-10.788-10.788-13.278-15.353s-11.203-2.075-11.203-2.075l-4.149,3.32l-6.224,8.299l-2.49,11.203l9.544,16.598l3.32,6.639
	l14.108,7.469c0,0,12.033-3.734,12.448-7.469"/>
<path fill="none" stroke="#FFFFFF" stroke-miterlimit="10" d="M282.548,142.846l-3.32,21.162l10.373,92.116
	c0,0-29.046-2.49,4.149,0.83c33.195,3.32,48.963-19.087,51.037-23.236c2.075-4.149,18.257-18.672,18.257-18.672l5.394-17.012
	l-36.514-19.502c0,0-18.257-34.44-23.237-44.398c-4.979-9.959-25.311-18.672-25.311-18.672l-5.394-7.469l-13.278,23.651
	c0,0-4.564,43.568,5.809,59.336s12.448,19.502,12.448,19.502"/>
<path fill="none" stroke="#FFFFFF" stroke-miterlimit="10" d="M343.129,237.452l41.909,50.207c0,0-1.66,4.149-3.734,11.618
	c-2.075,7.469-6.639,17.842-6.639,17.842l-7.054,10.373l-52.697-73.029C314.913,254.465,326.531,258.199,343.129,237.452z"/>
<path fill="none" stroke="#FFFFFF" stroke-miterlimit="10" d="M153.502,336.622l45.643-19.917l20.332-2.49l-13.693-32.365
	l-4.149-40.664l16.598-37.759l2.49-5.809l1.66-0.415l1.66-10.373l-2.49-3.734l4.979-5.394l-3.32-8.714l-17.427,31.535l-9.958,9.958
	l-17.012,15.768l4.149,12.863l-6.224,12.448l-5.809-10.788l-2.49-18.672l3.32-17.427l-2.075-17.427l14.108-35.27l6.639-2.905
	l0.415-2.905l6.224-1.66l3.734-4.149l8.714-0.415c0,0,1.245-12.033,11.618-16.598s13.278-4.979,13.278-4.979l1.66-2.905h2.075
	c0,0,3.734,4.149-0.83,9.129"/>
<path fill="none" stroke="#FFFFFF" stroke-miterlimit="10" d="M239.394,250.73l-15.353,72.199l-2.905,1.66l-9.129,14.938
	c0,0,3.734,9.958,8.714,11.203c4.979,1.245,9.959,5.809,9.959,5.809l2.905,4.979L237.32,386l-1.66,13.693l-4.149,3.734l3.734,7.884
	l-2.075,5.394l-4.979,3.32l-11.618,8.299l0.415,7.054c0,0,28.216,2.075,31.535,0.83s6.224-3.734,6.224-3.734l0.83-14.523
	l-1.66-5.394l2.905-3.734l-1.245-8.299c0,0,0.415-12.033,6.224-19.502c5.809-7.469,5.809-19.917,5.809-19.917l-14.938-2.49
	c0,0-5.394,3.734-9.129,2.49"/>
<polyline fill="none" stroke="#FFFFFF" stroke-miterlimit="10" points="236.075,71.062 241.054,69.402 250.183,70.232 "/>
<line fill="none" stroke="#FFFFFF" stroke-miterlimit="10" x1="228.191" y1="78.531" x2="223.212" y2="80.191"/>
<line fill="none" stroke="#FFFFFF" stroke-miterlimit="10" x1="236.905" y1="96.788" x2="240.224" y2="98.033"/>
<path fill="none" stroke="#FFFFFF" stroke-miterlimit="10" d="M272.589,75.212l2.49-2.49c0,0,7.469,7.054,2.905,12.863
	c-4.564,5.809-4.979,4.149-4.979,4.149L272.589,75.212z"/>
<path fill="none" stroke="#FFFFFF" stroke-miterlimit="10" d="M244.373,80.606c0,0,5.394-4.564,9.959-3.32s4.979,2.905,4.979,2.905
	v7.054l-8.714,2.905L244.373,80.606z"/>
<path fill="none" stroke="#FFFFFF" stroke-miterlimit="10" d="M226.531,87.245L234.83,86c0,0,4.149,4.564,3.32,7.054
	c-0.83,2.49-7.054,4.564-7.054,4.564L226.531,87.245z"/>
</svg>
